<svg width="21" height="23" viewBox="0 0 21 23" fill="none" xmlns="http://www.w3.org/2000/svg">
<path d="M8.02327 15.096C8.2028 15.1931 8.38885 15.2775 8.58008 15.3488C9.6105 15.7459 10.7484 15.7646 11.7913 15.4016C11.9961 15.3295 12.1955 15.2429 12.3881 15.1424C13.3695 14.6342 14.1385 13.7938 14.5577 12.7712C14.6219 12.6096 14.6753 12.4439 14.7177 12.2752C15.0178 11.2128 14.9293 10.0782 14.4681 9.07521C14.4281 8.98561 14.3817 8.89601 14.3273 8.79841C13.7999 7.82706 12.9432 7.07586 11.9113 6.68001C11.8681 6.66241 11.8265 6.64801 11.7849 6.63361C10.7412 6.26859 9.60161 6.28731 8.57048 6.68641L8.49048 6.71681C7.47102 7.13179 6.63228 7.89567 6.12408 8.87201C6.08995 8.93332 6.05898 8.99633 6.03128 9.06081C5.56602 10.0624 5.47409 11.1974 5.77207 12.2608C5.80727 12.3888 5.85048 12.5216 5.90488 12.6656C6.29916 13.7021 7.05033 14.5639 8.02327 15.096ZM6.69847 12.0128C6.45694 11.1623 6.53081 10.2532 6.90648 9.45281C6.92256 9.41372 6.94126 9.37577 6.96247 9.33921L6.97207 9.32001C7.37174 8.54192 8.03703 7.93283 8.84727 7.60321L8.91928 7.57441C9.73698 7.25784 10.6408 7.24366 11.4681 7.53441L11.5641 7.56801C12.3848 7.88388 13.0657 8.48251 13.4841 9.25601C13.5228 9.32406 13.558 9.39402 13.5897 9.46561C13.9619 10.2672 14.0323 11.1762 13.7881 12.0256C13.754 12.157 13.7107 12.2859 13.6585 12.4112C13.3256 13.2207 12.7168 13.8862 11.9401 14.2896C11.789 14.3704 11.6317 14.4388 11.4697 14.4944C10.6414 14.7825 9.73775 14.7678 8.91928 14.4528C8.77035 14.3961 8.62548 14.3293 8.48568 14.2528C7.71598 13.8319 7.12064 13.1516 6.80568 12.3328C6.7638 12.2283 6.728 12.1215 6.69847 12.0128Z" fill="#2F2E41"/>
<path d="M18.1176 9.264C17.8731 8.15781 17.3964 7.11617 16.7192 6.208L18.2312 4.696L16.196 2.6592L14.6168 4.2384C13.7071 3.65048 12.6876 3.25314 11.62 3.0704V0.766403H8.73998V3.0928C7.68921 3.28982 6.68865 3.6957 5.79758 4.2864L4.17678 2.6592L2.14158 4.696L3.72398 6.2784C3.07468 7.17055 2.61609 8.18686 2.37678 9.264H0.248779V12.144H2.26478C2.42666 13.2986 2.83895 14.4039 3.47278 15.3824L2.14158 16.7136L3.18958 17.76C3.97951 16.8502 4.98676 16.1551 6.11758 15.7392C5.57773 15.2665 5.12218 14.7054 4.77038 14.08C4.43069 13.4764 4.19386 12.8205 4.06958 12.1392C4.00265 11.7659 3.96892 11.3873 3.96878 11.008C3.96857 10.1837 4.13086 9.3674 4.44636 8.60584C4.76186 7.84429 5.22439 7.15239 5.8075 6.56973C6.39061 5.98707 7.08286 5.52507 7.84465 5.21015C8.60645 4.89522 9.42286 4.73356 10.2472 4.7344C10.7111 4.73424 11.1736 4.78522 11.6264 4.8864C12.2194 5.01892 12.7897 5.23779 13.3192 5.536C14.1675 6.01346 14.8941 6.68039 15.4424 7.4848C16.1468 8.52365 16.5241 9.74963 16.5256 11.0048C16.5254 11.3841 16.4917 11.7627 16.4248 12.136C16.2949 12.8466 16.0426 13.5293 15.6792 14.1536C15.636 14.2272 15.5928 14.3008 15.5464 14.3728L15.5368 14.3856C15.4936 14.456 15.4472 14.5264 15.3976 14.5952L15.3848 14.6144C15.34 14.6784 15.292 14.7424 15.244 14.8064C15.196 14.8704 15.1752 14.896 15.1384 14.9392C15.1016 14.9824 15.084 15.0064 15.0552 15.04C15.0104 15.0944 14.9624 15.1488 14.9144 15.2C14.8664 15.2512 14.8376 15.2848 14.7976 15.3248C14.7576 15.3648 14.7256 15.4016 14.6872 15.4384C14.5816 15.5456 14.4712 15.6496 14.356 15.7472C15.4552 16.1617 16.4355 16.8403 17.2104 17.7232L18.2344 16.6992L16.9768 15.4416C17.6377 14.4453 18.0669 13.3136 18.2328 12.1296H20.1272V9.2496L18.1176 9.264Z" fill="#2F2E41"/>
<path d="M17.0071 18.832C16.6176 18.3825 16.1718 17.9851 15.6807 17.6496C15.1735 17.3024 14.6212 17.0262 14.0391 16.8288C13.9271 16.7904 13.8135 16.7568 13.6983 16.7232C13.0938 16.5531 12.4687 16.467 11.8407 16.4672H8.57994C7.97139 16.4665 7.36547 16.5472 6.77834 16.7072C6.61834 16.7488 6.46954 16.7968 6.29834 16.856C5.76093 17.0451 5.24966 17.3015 4.77674 17.6192C4.40584 17.8674 4.06019 18.1515 3.74474 18.4672C3.62314 18.5888 3.50474 18.7168 3.38154 18.8592C2.57169 19.8061 2.03758 20.9574 1.83754 22.1872L1.74634 22.744L18.6599 22.72L18.5671 22.1616C18.3614 20.93 17.8218 19.7783 17.0071 18.832ZM2.90794 21.7824C3.13352 20.9348 3.54631 20.1486 4.11594 19.4816C4.22154 19.36 4.32394 19.248 4.43594 19.144C4.70592 18.8719 5.00292 18.6279 5.32234 18.416C5.72643 18.1432 6.16352 17.9227 6.62314 17.76C6.76394 17.7104 6.89674 17.6688 7.02634 17.6336C7.53222 17.4962 8.05414 17.4268 8.57834 17.4272H11.8391C12.38 17.4262 12.9185 17.4999 13.4391 17.6464C13.5399 17.6752 13.6375 17.704 13.7335 17.7376C14.2331 17.9075 14.7072 18.1443 15.1431 18.4416C15.5659 18.7306 15.9493 19.0732 16.2839 19.4608C16.8587 20.1254 17.2755 20.9114 17.5031 21.76L2.90794 21.7824Z" fill="#2F2E41"/>
</svg>
