<svg width="26" height="25" viewBox="0 0 26 25" fill="none" xmlns="http://www.w3.org/2000/svg">
<path d="M16.0387 0.995697C13.7092 0.995697 11.4514 1.73507 9.67894 3.07313C7.97923 4.35925 6.82625 6.11845 6.41076 8.04574C2.79887 8.37908 0 11.1137 0 14.3602C0 15.922 0.635505 17.4197 1.79415 18.5774C2.91029 19.6992 4.4457 20.4301 6.12559 20.6369L9.58735 24.7162C9.66092 24.8026 9.75239 24.872 9.85543 24.9196C9.95848 24.9673 10.0706 24.9919 10.1841 24.9919C10.2873 24.9923 10.3894 24.9717 10.4844 24.9315C10.6377 24.8681 10.7667 24.7575 10.8527 24.6156C10.9386 24.4738 10.977 24.3082 10.9622 24.143L10.9282 23.7436C10.9794 23.8958 11.0702 24.0317 11.1911 24.1374C11.3121 24.243 11.4589 24.3146 11.6167 24.3449C11.7744 24.3751 11.9373 24.363 12.0888 24.3096C12.2403 24.2562 12.3749 24.1635 12.4788 24.041L17.3664 18.2809C19.6959 18.0033 21.8272 17.0014 23.3787 15.448C24.966 13.8635 25.8395 11.8125 25.8395 9.67181C25.8395 4.89183 21.4429 0.995697 16.0387 0.995697ZM9.48914 19.448L9.82531 23.3536L6.76298 19.7464C6.73957 19.7093 6.70785 19.6781 6.67033 19.6553C6.6328 19.6325 6.59049 19.6188 6.54674 19.6151C3.4221 19.3498 1.06988 17.0911 1.06988 14.3602C1.06988 11.6095 3.4457 9.34886 6.59679 9.1024C6.69122 9.09579 6.77809 9.09013 6.8678 9.08635C6.95751 9.08257 7.03588 9.08068 7.12087 9.07974C7.1369 9.08465 7.15333 9.08812 7.16997 9.09013C7.20694 9.0949 7.24448 9.09233 7.28045 9.08257C10.5666 9.14395 13.2295 11.4981 13.2295 14.3602C13.2235 15.4918 12.8163 16.5846 12.0803 17.4442C12.0349 17.4981 11.9858 17.5509 11.9415 17.6038L11.9027 17.6463C11.8659 17.686 11.8281 17.7256 11.7904 17.7643L11.7526 17.8031C11.7063 17.8493 11.6582 17.8975 11.6119 17.94L11.5996 17.9513C11.5439 18.0033 11.4863 18.0552 11.4278 18.1052C10.9059 18.5517 10.3132 18.9082 9.67422 19.16C9.61617 19.1812 9.56667 19.2209 9.53325 19.2729C9.49984 19.3249 9.48435 19.3864 9.48914 19.448ZM12.4939 18.5594C13.6516 17.3951 14.288 15.9088 14.288 14.3611C14.288 12.686 13.5571 11.1043 12.2295 9.90882C10.9553 8.78271 9.33742 8.12106 7.63928 8.03158C8.51558 4.62459 11.9924 2.1855 16.0387 2.1855C20.7866 2.1855 24.6459 5.5481 24.6459 9.68314C24.6459 13.5604 21.3069 16.7653 16.8782 17.143C16.835 17.1469 16.7933 17.1607 16.7563 17.1833C16.7193 17.2059 16.688 17.2367 16.6648 17.2733L12.1426 22.601L12.4939 18.5594ZM10.8886 23.312L10.5958 19.9126C10.8064 19.8087 11.0123 19.6954 11.2106 19.5727L10.8886 23.312Z" fill="#2F2E41"/>
<path d="M3.69697 13.2903C3.4944 13.2905 3.29644 13.3508 3.12815 13.4635C2.95987 13.5763 2.82882 13.7365 2.7516 13.9237C2.67438 14.111 2.65447 14.317 2.69438 14.5156C2.73429 14.7142 2.83223 14.8965 2.9758 15.0394C3.11937 15.1823 3.30211 15.2794 3.50089 15.3184C3.69968 15.3574 3.90556 15.3365 4.09248 15.2584C4.27939 15.1803 4.43894 15.0486 4.55092 14.8798C4.6629 14.7109 4.72227 14.5127 4.72152 14.3101C4.72028 14.0392 4.61178 13.7798 4.41978 13.5887C4.22777 13.3976 3.96788 13.2903 3.69697 13.2903Z" fill="#2F2E41"/>
<path d="M7.28605 13.2903C7.08344 13.2903 6.88539 13.3504 6.71698 13.4631C6.54856 13.5757 6.41737 13.7358 6.34001 13.9231C6.26264 14.1103 6.24259 14.3163 6.2824 14.515C6.3222 14.7137 6.42007 14.8961 6.5636 15.0391C6.70713 15.1821 6.88987 15.2792 7.08868 15.3183C7.28749 15.3574 7.49342 15.3366 7.68039 15.2585C7.86737 15.1805 8.02697 15.0487 8.13899 14.8799C8.25101 14.711 8.31041 14.5128 8.30966 14.3101C8.30841 14.0394 8.20005 13.7802 8.00825 13.5891C7.81644 13.398 7.5568 13.2906 7.28605 13.2903Z" fill="#2F2E41"/>
<path d="M11.0413 15.3236C11.5993 15.2331 11.9782 14.7073 11.8877 14.1493C11.7971 13.5912 11.2713 13.2123 10.7133 13.3029C10.1552 13.3935 9.77631 13.9193 9.86689 14.4773C9.95747 15.0353 10.4833 15.4142 11.0413 15.3236Z" fill="#2F2E41"/>
</svg>
