<svg width="407" height="320" viewBox="0 0 407 320" fill="none" xmlns="http://www.w3.org/2000/svg">
    <path d="M160.763 213.609C140.078 218.884 138.481 227.162 117.89 232.77C107.681 235.551 83.8676 242.036 68.233 229.209C55.077 218.415 54.7165 199.692 54.6555 196.5C54.27 176.454 63.6862 171.569 76.7823 141.65C83.2257 126.93 83.9257 117.353 87.9126 98.6929C90.9343 84.5542 99.8924 71.6739 114.331 62.7296C137.208 48.5576 163.862 57.1825 168.306 58.6196C190.8 65.8982 192.9 78.8203 211.553 91.3283C254.149 119.893 291.986 85.2197 325.706 110.45C348.126 127.226 358.905 163.139 348.172 189.925C335.541 221.445 295.048 235.52 266.366 232.228C242.626 229.503 236.686 215.993 200.489 212.099C189.109 210.876 176.393 209.623 160.763 213.609Z" fill="#EDF2FA"/>
    <path d="M125.867 155.933H77.8835C77.8064 155.933 77.7324 155.903 77.6779 155.848C77.6234 155.794 77.5928 155.72 77.5928 155.642C77.5928 155.565 77.6234 155.491 77.6779 155.437C77.7324 155.382 77.8064 155.352 77.8835 155.352H125.867C125.944 155.352 126.018 155.382 126.072 155.437C126.127 155.491 126.157 155.565 126.157 155.642C126.157 155.72 126.127 155.794 126.072 155.848C126.018 155.903 125.944 155.933 125.867 155.933Z" fill="#AFC4DB"/>
    <path d="M125.869 155.933H78.3317C78.2546 155.933 78.1807 155.903 78.1262 155.848C78.0716 155.794 78.041 155.72 78.041 155.642C78.041 155.565 78.0716 155.491 78.1262 155.437C78.1807 155.382 78.2546 155.352 78.3317 155.352H125.869C125.946 155.352 126.02 155.382 126.074 155.437C126.129 155.491 126.159 155.565 126.159 155.642C126.159 155.72 126.129 155.794 126.074 155.848C126.02 155.903 125.946 155.933 125.869 155.933Z" fill="#AFC4DB"/>
    <path d="M125.867 167.57H77.8835C77.8064 167.57 77.7324 167.539 77.6779 167.484C77.6234 167.43 77.5928 167.356 77.5928 167.279C77.5928 167.202 77.6234 167.128 77.6779 167.073C77.7324 167.018 77.8064 166.988 77.8835 166.988H125.867C125.944 166.988 126.018 167.018 126.072 167.073C126.127 167.128 126.157 167.202 126.157 167.279C126.157 167.356 126.127 167.43 126.072 167.484C126.018 167.539 125.944 167.57 125.867 167.57Z" fill="#AFC4DB"/>
    <path d="M97.0231 167.49C96.985 167.49 96.9471 167.483 96.9119 167.468C96.8766 167.454 96.8445 167.432 96.8175 167.405C96.7905 167.378 96.7691 167.346 96.7545 167.311C96.7399 167.275 96.7324 167.238 96.7324 167.199V155.632C96.7324 155.555 96.763 155.481 96.8176 155.426C96.8721 155.371 96.946 155.341 97.0231 155.341C97.1002 155.341 97.1742 155.371 97.2287 155.426C97.2832 155.481 97.3139 155.555 97.3139 155.632V167.199C97.3139 167.238 97.3064 167.275 97.2918 167.311C97.2772 167.346 97.2558 167.378 97.2288 167.405C97.2018 167.432 97.1697 167.454 97.1344 167.468C97.0991 167.483 97.0613 167.49 97.0231 167.49Z" fill="#AFC4DB"/>
    <path d="M85.3942 179.096C85.356 179.096 85.3182 179.089 85.2829 179.074C85.2477 179.06 85.2156 179.038 85.1886 179.011C85.1616 178.984 85.1402 178.952 85.1256 178.917C85.111 178.882 85.1035 178.844 85.1035 178.806V167.243C85.1035 167.166 85.1341 167.092 85.1887 167.037C85.2432 166.983 85.3171 166.952 85.3942 166.952C85.4713 166.952 85.5453 166.983 85.5998 167.037C85.6543 167.092 85.6849 167.166 85.6849 167.243V178.806C85.685 178.844 85.6775 178.882 85.6629 178.917C85.6483 178.952 85.6268 178.984 85.5998 179.011C85.5728 179.038 85.5408 179.06 85.5055 179.074C85.4702 179.089 85.4324 179.096 85.3942 179.096Z" fill="#AFC4DB"/>
    <path d="M114.466 179.096C114.428 179.096 114.39 179.089 114.355 179.074C114.319 179.06 114.287 179.038 114.26 179.011C114.233 178.984 114.212 178.952 114.197 178.917C114.183 178.882 114.175 178.844 114.175 178.806V167.243C114.175 167.166 114.206 167.092 114.26 167.037C114.315 166.983 114.389 166.952 114.466 166.952C114.543 166.952 114.617 166.983 114.672 167.037C114.726 167.092 114.757 167.166 114.757 167.243V178.806C114.757 178.844 114.749 178.882 114.735 178.917C114.72 178.952 114.699 178.984 114.672 179.011C114.645 179.038 114.613 179.06 114.577 179.074C114.542 179.089 114.504 179.096 114.466 179.096Z" fill="#AFC4DB"/>
    <path d="M125.418 179.206H77.8815C77.8044 179.206 77.7305 179.175 77.676 179.121C77.6214 179.066 77.5908 178.992 77.5908 178.915C77.5908 178.838 77.6214 178.764 77.676 178.709C77.7305 178.655 77.8044 178.624 77.8815 178.624H125.418C125.496 178.624 125.569 178.655 125.624 178.709C125.679 178.764 125.709 178.838 125.709 178.915C125.709 178.992 125.679 179.066 125.624 179.121C125.569 179.175 125.496 179.206 125.418 179.206Z" fill="#AFC4DB"/>
    <path d="M262.719 116.608H214.736C214.658 116.608 214.584 116.578 214.53 116.523C214.475 116.469 214.445 116.395 214.445 116.318C214.445 116.24 214.475 116.166 214.53 116.112C214.584 116.057 214.658 116.027 214.736 116.027H262.719C262.796 116.027 262.87 116.057 262.924 116.112C262.979 116.166 263.009 116.24 263.009 116.318C263.009 116.395 262.979 116.469 262.924 116.523C262.87 116.578 262.796 116.608 262.719 116.608Z" fill="#AFC4DB"/>
    <path d="M286.38 85.8975H238.398C238.321 85.8975 238.247 85.8668 238.192 85.8123C238.138 85.7577 238.107 85.6837 238.107 85.6066C238.107 85.5294 238.138 85.4554 238.192 85.4009C238.247 85.3463 238.321 85.3157 238.398 85.3157H286.38C286.457 85.3157 286.531 85.3463 286.586 85.4009C286.64 85.4554 286.671 85.5294 286.671 85.6066C286.671 85.6837 286.64 85.7577 286.586 85.8123C286.531 85.8668 286.457 85.8975 286.38 85.8975Z" fill="#AFC4DB"/>
    <path d="M257.536 85.8179C257.498 85.8179 257.46 85.8104 257.425 85.7958C257.39 85.7812 257.358 85.7597 257.331 85.7327C257.304 85.7057 257.282 85.6736 257.268 85.6383C257.253 85.603 257.246 85.5652 257.246 85.527V73.9594C257.246 73.8822 257.276 73.8082 257.331 73.7537C257.385 73.6991 257.459 73.6685 257.536 73.6685C257.613 73.6685 257.687 73.6991 257.742 73.7537C257.796 73.8082 257.827 73.8822 257.827 73.9594V85.527C257.827 85.5652 257.82 85.603 257.805 85.6383C257.79 85.6736 257.769 85.7057 257.742 85.7327C257.715 85.7597 257.683 85.7812 257.648 85.7958C257.612 85.8104 257.575 85.8179 257.536 85.8179Z" fill="#AFC4DB"/>
    <path d="M245.908 97.4249C245.87 97.4249 245.832 97.4174 245.797 97.4028C245.761 97.3882 245.729 97.3668 245.702 97.3398C245.675 97.3127 245.654 97.2806 245.639 97.2453C245.625 97.21 245.617 97.1722 245.617 97.134V85.5709C245.617 85.4938 245.648 85.4198 245.702 85.3652C245.757 85.3107 245.831 85.28 245.908 85.28C245.985 85.28 246.059 85.3107 246.113 85.3652C246.168 85.4198 246.199 85.4938 246.199 85.5709V97.134C246.199 97.1722 246.191 97.21 246.177 97.2453C246.162 97.2806 246.141 97.3127 246.114 97.3398C246.087 97.3668 246.054 97.3882 246.019 97.4028C245.984 97.4174 245.946 97.4249 245.908 97.4249Z" fill="#AFC4DB"/>
    <path d="M274.979 97.4249C274.941 97.4249 274.903 97.4174 274.868 97.4028C274.833 97.3882 274.801 97.3668 274.774 97.3398C274.747 97.3127 274.725 97.2806 274.711 97.2453C274.696 97.21 274.688 97.1722 274.688 97.134V85.5709C274.688 85.4938 274.719 85.4198 274.774 85.3652C274.828 85.3107 274.902 85.28 274.979 85.28C275.056 85.28 275.13 85.3107 275.185 85.3652C275.239 85.4198 275.27 85.4938 275.27 85.5709V97.134C275.27 97.1722 275.262 97.21 275.248 97.2453C275.233 97.2806 275.212 97.3127 275.185 97.3398C275.158 97.3668 275.126 97.3882 275.09 97.4028C275.055 97.4174 275.017 97.4249 274.979 97.4249Z" fill="#AFC4DB"/>
    <path d="M285.932 97.534H238.395C238.318 97.534 238.244 97.5033 238.19 97.4488C238.135 97.3942 238.104 97.3202 238.104 97.2431C238.104 97.1659 238.135 97.0919 238.19 97.0374C238.244 96.9828 238.318 96.9521 238.395 96.9521H285.932C286.009 96.9521 286.083 96.9828 286.138 97.0374C286.192 97.0919 286.223 97.1659 286.223 97.2431C286.223 97.3202 286.192 97.3942 286.138 97.4488C286.083 97.5033 286.009 97.534 285.932 97.534Z" fill="#AFC4DB"/>
    <path d="M240.131 206.57H192.148C192.071 206.57 191.997 206.539 191.943 206.484C191.888 206.43 191.857 206.356 191.857 206.279C191.857 206.202 191.888 206.128 191.943 206.073C191.997 206.018 192.071 205.988 192.148 205.988H240.131C240.208 205.988 240.282 206.018 240.336 206.073C240.391 206.128 240.421 206.202 240.421 206.279C240.421 206.356 240.391 206.43 240.336 206.484C240.282 206.539 240.208 206.57 240.131 206.57Z" fill="#AFC4DB"/>
    <path d="M240.133 206.57H192.596C192.519 206.57 192.445 206.539 192.39 206.484C192.336 206.43 192.305 206.356 192.305 206.279C192.305 206.202 192.336 206.128 192.39 206.073C192.445 206.018 192.519 205.988 192.596 205.988H240.133C240.21 205.988 240.284 206.018 240.338 206.073C240.393 206.128 240.423 206.202 240.423 206.279C240.423 206.356 240.393 206.43 240.338 206.484C240.284 206.539 240.21 206.57 240.133 206.57Z" fill="#AFC4DB"/>
    <path d="M240.131 218.206H192.148C192.071 218.206 191.997 218.175 191.943 218.121C191.888 218.066 191.857 217.992 191.857 217.915C191.857 217.838 191.888 217.764 191.943 217.709C191.997 217.655 192.071 217.624 192.148 217.624H240.131C240.208 217.624 240.282 217.655 240.336 217.709C240.391 217.764 240.421 217.838 240.421 217.915C240.421 217.992 240.391 218.066 240.336 218.121C240.282 218.175 240.208 218.206 240.131 218.206Z" fill="#AFC4DB"/>
    <path d="M211.287 218.126C211.249 218.127 211.211 218.119 211.176 218.104C211.14 218.09 211.108 218.068 211.081 218.041C211.054 218.014 211.033 217.982 211.018 217.947C211.004 217.912 210.996 217.874 210.996 217.836V206.268C210.996 206.191 211.027 206.117 211.081 206.062C211.136 206.008 211.21 205.977 211.287 205.977C211.364 205.977 211.438 206.008 211.492 206.062C211.547 206.117 211.578 206.191 211.578 206.268V217.836C211.578 217.874 211.57 217.912 211.555 217.947C211.541 217.982 211.519 218.014 211.492 218.041C211.465 218.068 211.433 218.09 211.398 218.104C211.363 218.119 211.325 218.127 211.287 218.126Z" fill="#AFC4DB"/>
    <path d="M199.658 229.733C199.62 229.733 199.582 229.726 199.547 229.711C199.512 229.697 199.48 229.675 199.453 229.648C199.426 229.621 199.404 229.589 199.39 229.554C199.375 229.518 199.368 229.481 199.368 229.442V217.879C199.368 217.802 199.398 217.728 199.453 217.674C199.507 217.619 199.581 217.588 199.658 217.588C199.735 217.588 199.809 217.619 199.864 217.674C199.918 217.728 199.949 217.802 199.949 217.879V229.442C199.949 229.481 199.942 229.518 199.927 229.554C199.912 229.589 199.891 229.621 199.864 229.648C199.837 229.675 199.805 229.697 199.77 229.711C199.734 229.726 199.697 229.733 199.658 229.733Z" fill="#AFC4DB"/>
    <path d="M228.73 229.733C228.691 229.733 228.654 229.726 228.618 229.711C228.583 229.697 228.551 229.675 228.524 229.648C228.497 229.621 228.476 229.589 228.461 229.554C228.446 229.518 228.439 229.481 228.439 229.442V217.879C228.439 217.802 228.47 217.728 228.524 217.674C228.579 217.619 228.653 217.588 228.73 217.588C228.807 217.588 228.881 217.619 228.935 217.674C228.99 217.728 229.02 217.802 229.02 217.879V229.442C229.02 229.481 229.013 229.518 228.998 229.554C228.984 229.589 228.962 229.621 228.935 229.648C228.908 229.675 228.876 229.697 228.841 229.711C228.806 229.726 228.768 229.733 228.73 229.733Z" fill="#AFC4DB"/>
    <path d="M239.683 229.843H192.146C192.069 229.843 191.995 229.812 191.94 229.757C191.886 229.703 191.855 229.629 191.855 229.552C191.855 229.474 191.886 229.401 191.94 229.346C191.995 229.291 192.069 229.261 192.146 229.261H239.683C239.76 229.261 239.834 229.291 239.888 229.346C239.943 229.401 239.973 229.474 239.973 229.552C239.973 229.629 239.943 229.703 239.888 229.757C239.834 229.812 239.76 229.843 239.683 229.843Z" fill="#AFC4DB"/>
    <path d="M155.547 164.017L155.53 165.181L200.495 165.846L200.512 164.682L155.547 164.017Z" fill="#E4EBF1"/>
    <path d="M276.127 203.984L276.11 205.147L321.075 205.813L321.092 204.65L276.127 203.984Z" fill="#E4EBF1"/>
    <path d="M101.486 120.212L101.469 121.376L146.435 122.042L146.452 120.878L101.486 120.212Z" fill="#E4EBF1"/>
    <path d="M114.761 148.065L114.744 149.228L132.341 149.488L132.358 148.325L114.761 148.065Z" fill="#E4EBF1"/>
    <path d="M120.753 183.549L120.735 184.712L132.47 184.886L132.487 183.722L120.753 183.549Z" fill="#E4EBF1"/>
    <path d="M260.453 140.034L260.436 141.198L270.498 141.346L270.515 140.183L260.453 140.034Z" fill="#E4EBF1"/>
    <path d="M259.971 183.192L259.954 184.355L286.914 184.755L286.932 183.591L259.971 183.192Z" fill="#E4EBF1"/>
    <path d="M294.982 183.71L294.965 184.874L306.51 185.044L306.527 183.88L294.982 183.71Z" fill="#E4EBF1"/>
    <path d="M211.927 200.583L211.91 201.747L223.455 201.918L223.472 200.754L211.927 200.583Z" fill="#E4EBF1"/>
    <path d="M259.557 211.243L259.54 212.407L280.885 212.723L280.903 211.559L259.557 211.243Z" fill="#E4EBF1"/>
    <path d="M89.1783 110.544L89.1611 111.707L133.508 112.364L133.525 111.2L89.1783 110.544Z" fill="#E4EBF1"/>
    <path d="M298.601 284.001C298.601 290.123 254.383 295.086 199.837 295.086C145.292 295.086 101.074 290.123 101.074 284.001C101.074 277.879 145.292 272.915 199.837 272.915C254.383 272.915 298.601 277.879 298.601 284.001Z" fill="#EDF2FA"/>
    <path d="M123.629 63.8445C123.629 63.8445 124.466 72.6416 124.362 75.6787C124.257 78.7164 124.885 82.8002 119.024 82.5907V87.5129L110.547 86.8851C110.547 86.8851 110.861 81.5434 109.814 79.1347C108.768 76.726 104.581 72.118 105.733 70.8618C106.884 69.6045 108.558 71.4896 109.71 73.1658L109.5 67.6147C109.5 67.6147 112.013 67.6147 112.955 66.4627C113.896 65.3113 115.152 65.4154 115.989 65.4154C116.826 65.4154 117.978 64.3682 118.187 62.902C118.396 61.4358 121.431 59.2365 123.629 63.8445Z" fill="#E9A48A"/>
    <path d="M163.946 59.4731C164.081 59.4685 164.209 59.4118 164.303 59.3148C164.396 59.2178 164.449 59.0881 164.449 58.9532C164.449 58.8183 164.396 58.6886 164.303 58.5916C164.209 58.4946 164.081 58.4379 163.946 58.4333C163.811 58.4379 163.684 58.4946 163.59 58.5916C163.496 58.6886 163.444 58.8183 163.444 58.9532C163.444 59.0881 163.496 59.2178 163.59 59.3148C163.684 59.4118 163.811 59.4685 163.946 59.4731Z" fill="white"/>
    <path d="M177.641 24.9136L140.106 31.2415L144.953 60.0327L182.488 53.7049L177.641 24.9136Z" fill="#82C56D"/>
    <path d="M144.832 30.4448C144.832 30.4448 159.795 56.9187 181.797 49.6024L182.489 53.7053L144.953 60.0326L140.106 31.2413L144.832 30.4448Z" fill="#4DA258"/>
    <path d="M198.021 108.499L119.299 121.77L121.317 133.755L200.038 120.483L198.021 108.499Z" fill="#FFCC5D"/>
    <path d="M200.464 98.9197L113.418 113.595L114.919 122.51L201.965 107.834L200.464 98.9197Z" fill="#65CADE"/>
    <path d="M204.191 71.9893L147.815 81.4939L152.121 107.07L208.497 97.5652L204.191 71.9893Z" fill="#FFCC5D"/>
    <path d="M193.734 51.8088L130.056 62.5439L133.648 83.8816L197.327 73.1465L193.734 51.8088Z" fill="#F15B43"/>
    <path d="M197.327 73.1464L147.815 81.4932L147.996 82.5693L197.508 74.2225L197.327 73.1464Z" fill="#F39821"/>
    <path d="M197.327 73.1464L147.815 81.4932L147.996 82.5693L197.508 74.2225L197.327 73.1464Z" fill="#F39821"/>
    <path d="M194.857 58.4784L131.179 69.2141L132.033 74.289L195.712 63.5533L194.857 58.4784Z" fill="#65CADE"/>
    <path d="M194.278 99.9623L190.292 100.634L192.705 73.9259L196.69 73.2539L194.278 99.9623Z" fill="#82C56D"/>
    <path d="M196.589 74.3774L192.604 75.0494L192.705 73.9265L196.69 73.2539L196.589 74.3774Z" fill="#4DA258"/>
    <path d="M207.3 90.4571L149.399 90.9005L148.741 86.9941L206.643 86.5508L207.3 90.4571Z" fill="#82C56D"/>
    <path d="M197.835 99.3628L140.916 118.126L114.919 122.509L113.417 113.595L197.835 99.3628Z" fill="#46C2CC"/>
    <path d="M142.641 130.16L141.017 120.515L198.415 110.838L198.022 108.5L119.3 121.771L119.718 124.256L137.098 121.325L138.698 130.825L142.641 130.16Z" fill="#F39821"/>
    <path d="M198.07 104.032C198.639 103.641 199.086 103.097 199.358 102.463C199.575 101.952 199.848 101.306 199.551 100.927C199.199 100.481 198.279 100.689 197.838 100.865C197.459 101.021 197.125 101.267 196.864 101.581C196.602 101.896 196.422 102.27 196.339 102.671C196.216 103.289 196.278 104.281 196.797 104.498C197.167 104.653 197.612 104.348 198.07 104.032Z" fill="#A5DDEA"/>
    <path d="M200.415 104.033C200.382 104.609 200.327 105.184 200.249 105.756C200.142 106.541 198.914 106.421 199.021 105.629C199.098 105.057 199.153 104.483 199.187 103.907C199.232 103.114 200.46 103.239 200.415 104.033Z" fill="#A5DDEA"/>
    <path d="M194.888 116.239C195.457 115.848 195.903 115.304 196.176 114.669C196.392 114.158 196.666 113.513 196.368 113.134C196.017 112.688 195.097 112.896 194.656 113.072C194.277 113.227 193.943 113.473 193.681 113.788C193.42 114.103 193.24 114.477 193.157 114.878C193.034 115.496 193.096 116.487 193.615 116.704C193.985 116.859 194.43 116.554 194.888 116.239Z" fill="#FEECAA"/>
    <path d="M197.232 116.24C197.199 116.816 197.143 117.39 197.066 117.962C196.96 118.748 195.731 118.627 195.838 117.836C195.915 117.264 195.971 116.69 196.004 116.114C196.049 115.32 197.277 115.446 197.232 116.24Z" fill="#FEECAA"/>
    <path d="M192.386 68.9838C192.955 68.5926 193.401 68.0484 193.674 67.4141C193.89 66.9027 194.163 66.2574 193.866 65.8787C193.515 65.4318 192.594 65.6401 192.153 65.817C191.775 65.9722 191.44 66.2179 191.179 66.5327C190.918 66.8475 190.738 67.2217 190.655 67.6224C190.531 68.2409 190.593 69.2317 191.113 69.4487C191.483 69.6041 191.927 69.2986 192.386 68.9838Z" fill="#F6978F"/>
    <path d="M194.73 68.9841C194.697 69.5607 194.642 70.1349 194.564 70.7068C194.458 71.4923 193.229 71.3719 193.336 70.5812C193.414 70.0092 193.469 69.435 193.502 68.8584C193.547 68.0654 194.775 68.1911 194.73 68.9841Z" fill="#F6978F"/>
    <path d="M174.783 30.298C175.352 29.9072 175.799 29.3629 176.071 28.7283C176.288 28.2169 176.561 27.5716 176.264 27.1929C175.913 26.7466 174.992 26.9543 174.551 27.1312C174.172 27.2864 173.838 27.5322 173.577 27.8469C173.315 28.1617 173.135 28.5359 173.053 28.9366C172.929 29.5551 172.991 30.5459 173.511 30.7635C173.88 30.9183 174.325 30.6128 174.783 30.298Z" fill="#BCDA86"/>
    <path d="M177.128 30.2986C177.095 30.8746 177.04 31.4486 176.962 32.0207C176.855 32.8062 175.627 32.6863 175.734 31.8951C175.812 31.3231 175.867 30.7489 175.9 30.1723C175.945 29.3793 177.173 29.505 177.128 30.2986Z" fill="#BCDA86"/>
    <path d="M141.921 45.7396C141.948 45.9011 142.038 46.0452 142.172 46.1401C142.305 46.235 142.471 46.273 142.632 46.2458L160.628 43.2122C159.982 43.8165 159.501 44.5763 159.232 45.4193C158.963 46.2622 158.914 47.1601 159.091 48.0273C159.097 48.0674 159.111 48.1058 159.132 48.1404C159.153 48.1751 159.181 48.2052 159.214 48.229C159.247 48.2528 159.284 48.27 159.323 48.2794C159.363 48.2888 159.404 48.2903 159.444 48.2839L159.447 48.2833C159.527 48.2698 159.598 48.2252 159.646 48.1592C159.693 48.0932 159.713 48.0111 159.7 47.9307C159.507 46.9908 159.608 46.0142 159.989 45.1337C160.37 44.2532 161.013 43.5115 161.83 43.0097L163.347 42.7537L165.668 56.541C165.696 56.7022 165.786 56.8459 165.919 56.9404C166.053 57.035 166.218 57.0728 166.379 57.0455C166.54 57.0183 166.684 56.9282 166.779 56.795C166.874 56.6618 166.912 56.4964 166.885 56.3351L164.606 42.7985C166.589 44.1291 167.021 46.6594 167.026 46.6897C167.039 46.7705 167.083 46.8428 167.15 46.8908C167.216 46.9388 167.298 46.9586 167.379 46.9457L167.382 46.9451C167.462 46.9318 167.534 46.8873 167.581 46.8214C167.629 46.7554 167.648 46.6734 167.635 46.5931C167.338 44.9629 166.471 43.4919 165.188 42.4436L180.168 39.9179C180.248 39.9046 180.324 39.8756 180.393 39.8327C180.462 39.7897 180.522 39.7335 180.569 39.6674C180.616 39.6013 180.649 39.5266 180.668 39.4475C180.686 39.3684 180.688 39.2864 180.675 39.2064C180.661 39.1263 180.632 39.0497 180.589 38.981C180.546 38.9122 180.489 38.8526 180.423 38.8057C180.357 38.7587 180.282 38.7253 180.203 38.7073C180.124 38.6893 180.042 38.687 179.962 38.7008L166.899 40.9024C168.808 39.5448 170.322 37.7025 171.283 35.5653C171.6 34.8037 172.344 33.0222 171.497 32.1309C171.09 31.7015 170.405 31.5642 169.506 31.7259C168.9 31.8376 168.047 32.1634 166.819 33.7146C166.11 34.61 165.564 35.5281 164.384 38.3249C164.245 38.6554 164.119 38.9538 164.005 39.2273L162.038 27.5444C162.011 27.3829 161.921 27.2389 161.787 27.144C161.654 27.049 161.488 27.0109 161.327 27.0381C161.166 27.0652 161.022 27.1554 160.927 27.2887C160.832 27.4221 160.794 27.5877 160.821 27.7492L162.864 39.8818C162.484 39.5973 162.025 39.2599 161.461 38.8456C159.015 37.0507 158.076 36.5422 157.009 36.1373C155.159 35.4356 154.259 35.5938 153.682 35.8091C153.338 35.8938 153.02 36.0635 152.758 36.3026C152.495 36.5417 152.297 36.8427 152.18 37.1781C151.911 38.3784 153.462 39.5264 154.125 40.0168C155.684 41.1209 157.472 41.8584 159.355 42.1742L142.427 45.0286C142.266 45.0557 142.122 45.1458 142.027 45.2792C141.932 45.4125 141.894 45.5781 141.921 45.7396ZM163.014 40.7726L163.141 41.5325L163.14 41.5365L161.673 41.7832C159.108 41.7606 156.607 40.9728 154.492 39.5205C153.975 39.1377 152.601 38.1213 152.783 37.3137C152.862 36.9605 153.269 36.6231 153.899 36.3874C154.374 36.21 155.132 36.0861 156.791 36.7144C157.805 37.0996 158.708 37.5906 161.097 39.3437C161.833 39.8842 162.515 40.3845 163.014 40.7726ZM165.354 41.163L164.403 41.323C164.387 41.2657 164.363 41.2113 164.33 41.1618L164.199 40.3764C164.409 39.8533 164.673 39.2285 164.953 38.5652C166.105 35.8347 166.628 34.9492 167.303 34.098C168.402 32.7086 169.117 32.4247 169.617 32.3333C169.635 32.3304 169.653 32.3269 169.67 32.3246C169.903 32.2546 170.148 32.239 170.387 32.2791C170.626 32.3191 170.853 32.4137 171.05 32.5556C171.619 33.1554 170.962 34.7333 170.714 35.3274C169.582 37.786 167.707 39.8272 165.354 41.163Z" fill="white"/>
    <path d="M164.365 48.801C164.806 48.9907 165.254 49.1693 165.707 49.3369L166.885 56.335L165.668 56.541L164.365 48.801Z" fill="#E4EBF1"/>
    <path d="M142.427 45.0283L155.19 42.8767C155.594 43.2281 156.008 43.5759 156.432 43.9199L142.632 46.246L142.427 45.0283Z" fill="#E4EBF1"/>
    <path d="M159.7 47.9305C159.713 48.011 159.693 48.0932 159.646 48.1593C159.598 48.2254 159.526 48.2699 159.446 48.2831L159.444 48.2837C159.404 48.2901 159.363 48.2886 159.323 48.2791C159.284 48.2697 159.246 48.2526 159.214 48.2288C159.181 48.2049 159.153 48.1749 159.132 48.1403C159.111 48.1057 159.096 48.0672 159.09 48.0271C158.971 47.3247 158.979 46.6066 159.114 45.907C159.299 46.0321 159.486 46.1558 159.674 46.2782C159.601 46.8272 159.609 47.3841 159.7 47.9305Z" fill="#E4EBF1"/>
    <path d="M180.955 85.2504C180.955 85.2504 176.97 84.1455 173.477 84.7663C169.984 85.3871 165.895 85.2108 160.13 83.4089L162.637 82.3651L161.554 79.7493C161.554 79.7493 167.007 82.414 172.458 81.7001C177.91 80.9868 179.989 81.3353 180.764 81.5529L180.955 85.2504Z" fill="#F15B43"/>
    <path d="M180.955 85.2505C180.955 85.2505 180.228 85.0492 179.125 84.8671C179.049 84.7158 178.982 84.5651 178.918 84.4191C178.379 83.1915 178.932 82.9686 179.473 81.3354C179.908 81.369 180.34 81.4418 180.763 81.5531L180.955 85.2505Z" fill="#CF2633"/>
    <path d="M203.188 88.3556C203.188 88.3556 207.322 88.4179 210.5 89.9975C213.677 91.5772 217.651 92.5599 223.689 92.4545L221.577 90.7463L223.353 88.5412C223.353 88.5412 217.37 89.5623 212.34 87.3427C207.309 85.1219 205.216 84.8717 204.411 84.8618L203.188 88.3556Z" fill="#F15B43"/>
    <path d="M204.412 84.8618C205.103 84.8901 205.788 84.9987 206.454 85.1853C206.577 86.3257 206.798 86.7236 206.07 87.5911C205.797 87.94 205.478 88.2498 205.121 88.5116C203.972 88.3673 203.188 88.3556 203.188 88.3556L204.412 84.8618Z" fill="#CF2633"/>
    <path d="M190.321 81.0293C190.321 81.0293 187.089 77.1486 184.243 76.5895C181.397 76.0298 181.805 77.1026 181.215 79.9081C180.624 82.7143 179.685 82.7294 180.335 84.2124C180.985 85.6949 181.945 87.6347 189.282 86.1738C196.621 84.7134 190.321 81.0293 190.321 81.0293Z" fill="#F15B43"/>
    <path d="M186.873 78.9628C186.846 78.9452 184.189 77.2111 182.823 77.4866L182.783 77.2844C184.227 76.9918 186.874 78.7167 186.985 78.79L186.873 78.9628Z" fill="#CF2633"/>
    <path d="M181.241 85.576C182.163 82.1834 189.29 86.141 189.29 86.141C184.241 87.1458 182.221 86.536 181.241 85.576Z" fill="#CF2633"/>
    <path d="M196.359 81.8976C196.359 81.8976 200.552 79.0839 203.441 79.3486C206.329 79.6134 205.635 80.528 205.412 83.3864C205.19 86.2455 206.087 86.5242 205.046 87.764C204.005 89.0033 202.539 90.5946 195.909 87.1264C189.278 83.6576 196.359 81.8976 196.359 81.8976Z" fill="#F15B43"/>
    <path d="M203.779 88.8152C203.831 86.1173 199.16 86.545 196.984 86.8888C196.326 86.9935 195.896 87.0901 195.896 87.0901C200.458 89.4767 202.568 89.4605 203.779 88.8152Z" fill="#CF2633"/>
    <path d="M197.372 83.5061C198.129 83.7777 198.95 83.8142 199.728 83.6108C199.118 83.9125 198.528 84.2527 197.961 84.6296C197.646 84.9089 198.01 84.9862 199.255 85.3394C199.255 85.3394 197.202 85.2818 196.526 86.4012L197.372 83.5061Z" fill="#CF2633"/>
    <path d="M189.05 82.3095C188.247 82.3572 187.449 82.1611 186.76 81.7468C187.26 82.2079 187.731 82.7006 188.168 83.2217C188.392 83.579 188.022 83.5505 186.727 83.5388C186.727 83.5388 188.714 84.0619 189.047 85.3262L189.05 82.3095Z" fill="#CF2633"/>
    <path d="M194.042 87.0215C194.042 87.0215 195.151 88.568 194.69 92.8194C194.69 92.8194 195.232 93.0463 196.193 91.5626C196.728 91.9333 197.178 92.4149 197.511 92.9747C197.511 92.9747 198.04 88.6983 196.249 86.7114L194.042 87.0215Z" fill="#F15B43"/>
    <path d="M197.222 91.7408L197.017 91.7374C197.017 91.7135 197.055 89.3936 196.49 88.7027L196.649 88.572C197.261 89.322 197.225 91.6425 197.222 91.7408Z" fill="#CF2633"/>
    <path d="M191.551 86.6304C191.551 86.6304 190.069 87.8249 189.38 92.0448C189.38 92.0448 188.798 92.1199 188.267 90.4326C187.652 90.6468 187.09 90.9911 186.62 91.4421C186.62 91.4421 187.25 87.1791 189.506 85.7432L191.551 86.6304Z" fill="#F15B43"/>
    <path d="M187.426 90.3817L187.226 90.3306C187.25 90.2351 187.834 87.988 188.624 87.4294L188.743 87.5976C188.014 88.113 187.432 90.359 187.426 90.3817Z" fill="#CF2633"/>
    <path d="M189.506 85.7429L191.551 86.6302C191.225 86.9414 190.954 87.3057 190.751 87.7077C190.449 87.7498 190.142 87.6843 189.884 87.5227C189.421 87.2006 189.094 86.719 188.963 86.17C189.131 86.0111 189.313 85.8681 189.506 85.7429Z" fill="#CF2633"/>
    <path d="M196.249 86.7112C196.433 86.9195 196.594 87.1474 196.729 87.3907C196.492 87.7216 196.17 87.983 195.798 88.1477C195.376 88.3144 194.905 88.3075 194.489 88.1285C194.4 87.738 194.249 87.3642 194.042 87.0213L196.249 86.7112Z" fill="#CF2633"/>
    <path d="M195.632 87.1618C195.997 86.9652 196.319 86.6968 196.578 86.3728C196.837 86.0488 197.029 85.6758 197.141 85.2761C197.307 84.8171 197.699 83.7372 197.116 82.8325C196.961 82.5791 196.751 82.3645 196.501 82.2049C196.251 82.0453 195.967 81.9449 195.672 81.9115C195.264 81.8957 195.181 82.0872 194.59 82.1314C194.153 82.1594 193.715 82.0964 193.304 81.9464C192.4 81.6363 191.966 81.2912 191.324 81.0987C191.042 81.0064 190.739 80.9953 190.45 81.0666C190.161 81.1379 189.898 81.2886 189.691 81.5019C189.321 81.8259 189.033 82.2328 188.85 82.6892C188.667 83.1457 188.595 83.6389 188.638 84.1288C188.645 84.3638 188.693 85.8975 189.719 86.5369C190.316 86.9093 190.655 86.6108 192.024 86.6806C194.161 86.79 194.623 87.5848 195.632 87.1618Z" fill="#F15B43"/>
    <path d="M188.887 86.2493C184.246 87.1221 182.276 86.5763 181.292 85.6826L181.241 85.5762L188.964 86.1702L188.887 86.2493Z" fill="#CF2633"/>
    <path d="M203.779 88.8151C203.779 88.8151 203.811 88.8198 203.865 88.8273C202.722 89.4668 200.763 89.5447 196.605 87.4804L197.046 87.2483L200.87 88.0727L203.779 88.8151Z" fill="#CF2633"/>
    <path d="M180.955 85.2504C180.955 85.2504 176.97 84.1455 173.477 84.7663C169.984 85.3871 165.895 85.2108 160.13 83.4089L162.637 82.3651L161.554 79.7493C161.554 79.7493 167.007 82.414 172.458 81.7001C177.91 80.9868 179.989 81.3353 180.764 81.5529L180.955 85.2504Z" fill="#F15B43"/>
    <path d="M161.76 80.2487L161.554 79.7495C161.554 79.7495 161.876 79.9066 162.441 80.1341L161.76 80.2487Z" fill="#CF2633"/>
    <path d="M180.955 85.2505C180.955 85.2505 180.228 85.0492 179.125 84.8671C179.049 84.7158 178.982 84.5651 178.918 84.4191C178.379 83.1915 178.932 82.9686 179.473 81.3354C179.908 81.369 180.34 81.4418 180.763 81.5531L180.955 85.2505Z" fill="#CF2633"/>
    <path d="M203.188 88.3556C203.188 88.3556 207.322 88.4179 210.5 89.9975C213.677 91.5772 217.651 92.5599 223.689 92.4545L221.577 90.7463L223.353 88.5412C223.353 88.5412 217.37 89.5623 212.34 87.3427C207.309 85.1219 205.216 84.8717 204.411 84.8618L203.188 88.3556Z" fill="#F15B43"/>
    <path d="M204.412 84.8618C205.103 84.8901 205.788 84.9987 206.454 85.1853C206.577 86.3257 206.798 86.7236 206.07 87.5911C205.797 87.94 205.478 88.2498 205.121 88.5116C203.972 88.3673 203.188 88.3556 203.188 88.3556L204.412 84.8618Z" fill="#CF2633"/>
    <path d="M190.321 81.0293C190.321 81.0293 187.089 77.1486 184.243 76.5895C181.397 76.0298 181.805 77.1026 181.215 79.9081C180.624 82.7143 179.685 82.7294 180.335 84.2124C180.985 85.6949 181.945 87.6347 189.282 86.1738C196.621 84.7134 190.321 81.0293 190.321 81.0293Z" fill="#F15B43"/>
    <path d="M183.864 76.5225L181.989 76.8385C182.302 76.462 182.835 76.359 183.864 76.5225Z" fill="#CF2633"/>
    <path d="M186.873 78.9628C186.846 78.9452 184.189 77.2111 182.823 77.4866L182.783 77.2844C184.227 76.9918 186.874 78.7167 186.985 78.79L186.873 78.9628Z" fill="#CF2633"/>
    <path d="M181.241 85.576C182.163 82.1834 189.29 86.141 189.29 86.141C184.241 87.1458 182.221 86.536 181.241 85.576Z" fill="#CF2633"/>
    <path d="M196.359 81.8976C196.359 81.8976 200.552 79.0839 203.441 79.3486C206.329 79.6134 205.635 80.528 205.412 83.3864C205.19 86.2455 206.087 86.5242 205.046 87.764C204.005 89.0033 202.539 90.5946 195.909 87.1264C189.278 83.6576 196.359 81.8976 196.359 81.8976Z" fill="#F15B43"/>
    <path d="M203.779 88.8152C203.831 86.1173 199.16 86.545 196.984 86.8888C196.326 86.9935 195.896 87.0901 195.896 87.0901C200.458 89.4767 202.568 89.4605 203.779 88.8152Z" fill="#CF2633"/>
    <path d="M197.372 83.5061C198.129 83.7777 198.95 83.8142 199.728 83.6108C199.118 83.9125 198.528 84.2527 197.961 84.6296C197.646 84.9089 198.01 84.9862 199.255 85.3394C199.255 85.3394 197.202 85.2818 196.526 86.4012L197.372 83.5061Z" fill="#CF2633"/>
    <path d="M189.05 82.3095C188.247 82.3572 187.449 82.1611 186.76 81.7468C187.26 82.2079 187.731 82.7006 188.168 83.2217C188.392 83.579 188.022 83.5505 186.727 83.5388C186.727 83.5388 188.714 84.0619 189.047 85.3262L189.05 82.3095Z" fill="#CF2633"/>
    <path d="M194.042 87.0215C194.042 87.0215 195.151 88.568 194.69 92.8194C194.69 92.8194 195.232 93.0463 196.193 91.5626C196.728 91.9333 197.178 92.4149 197.511 92.9747C197.511 92.9747 198.04 88.6983 196.249 86.7114L194.042 87.0215Z" fill="#F15B43"/>
    <path d="M197.222 91.7408L197.017 91.7374C197.017 91.7135 197.055 89.3936 196.49 88.7027L196.649 88.572C197.261 89.322 197.225 91.6425 197.222 91.7408Z" fill="#CF2633"/>
    <path d="M191.551 86.6304C191.551 86.6304 190.069 87.8249 189.38 92.0448C189.38 92.0448 188.798 92.1199 188.267 90.4326C187.652 90.6468 187.09 90.9911 186.62 91.4421C186.62 91.4421 187.25 87.1791 189.506 85.7432L191.551 86.6304Z" fill="#F15B43"/>
    <path d="M187.426 90.3817L187.226 90.3306C187.25 90.2351 187.834 87.988 188.624 87.4294L188.743 87.5976C188.014 88.113 187.432 90.359 187.426 90.3817Z" fill="#CF2633"/>
    <path d="M189.506 85.7429L191.551 86.6302C191.225 86.9414 190.954 87.3057 190.751 87.7077C190.449 87.7498 190.142 87.6843 189.884 87.5227C189.421 87.2006 189.094 86.719 188.963 86.17C189.131 86.0111 189.313 85.8681 189.506 85.7429Z" fill="#CF2633"/>
    <path d="M196.249 86.7112C196.433 86.9195 196.594 87.1474 196.729 87.3907C196.492 87.7216 196.17 87.983 195.798 88.1477C195.376 88.3144 194.905 88.3075 194.489 88.1285C194.4 87.738 194.249 87.3642 194.042 87.0213L196.249 86.7112Z" fill="#CF2633"/>
    <path d="M195.632 87.1618C195.997 86.9652 196.319 86.6968 196.578 86.3728C196.837 86.0488 197.029 85.6758 197.141 85.2761C197.307 84.8171 197.699 83.7372 197.116 82.8325C196.961 82.5791 196.751 82.3645 196.501 82.2049C196.251 82.0453 195.967 81.9449 195.672 81.9115C195.264 81.8957 195.181 82.0872 194.59 82.1314C194.153 82.1594 193.715 82.0964 193.304 81.9464C192.4 81.6363 191.966 81.2912 191.324 81.0987C191.042 81.0064 190.739 80.9953 190.45 81.0666C190.161 81.1379 189.898 81.2886 189.691 81.5019C189.321 81.8259 189.033 82.2328 188.85 82.6892C188.667 83.1457 188.595 83.6389 188.638 84.1288C188.645 84.3638 188.693 85.8975 189.719 86.5369C190.316 86.9093 190.655 86.6108 192.024 86.6806C194.161 86.79 194.623 87.5848 195.632 87.1618Z" fill="#F15B43"/>
    <path d="M188.887 86.2493C184.246 87.1221 182.276 86.5763 181.292 85.6826L181.241 85.5762L188.964 86.1702L188.887 86.2493Z" fill="#CF2633"/>
    <path d="M203.779 88.8151C203.779 88.8151 203.811 88.8198 203.865 88.8273C202.722 89.4668 200.763 89.5447 196.605 87.4804L197.046 87.2483L200.87 88.0727L203.779 88.8151Z" fill="#CF2633"/>
    <path d="M146.028 59.8513L140.957 60.7065L144.55 82.044L149.621 81.1887L146.028 59.8513Z" fill="#65CADE"/>
    <path d="M137.484 109.538L129.37 110.906L132.888 131.804L141.002 130.437L137.484 109.538Z" fill="#F15B43"/>
    <path d="M137.461 113.571C137.784 113.811 138.068 114.098 138.306 114.422L139.016 118.64C138.829 118.512 138.627 118.407 138.415 118.328C137.783 119.979 137.206 119.869 137.206 119.869C136.774 115.615 135.367 114.333 135.367 114.333L137.461 113.571Z" fill="#CF2633"/>
    <path d="M130.417 117.122C130.433 116.257 130.668 115.41 131.1 114.66L133.328 114.599C133.328 114.599 132.49 116.309 133.649 120.424C133.649 120.424 133.153 120.738 131.959 119.434C131.566 119.812 131.251 120.263 131.029 120.761L130.417 117.122Z" fill="#CF2633"/>
    <path d="M135.367 114.333C134.678 114.331 133.992 114.421 133.327 114.599C132.438 114.877 129.855 113.791 129.855 113.791L134.498 111.207L137.794 112.287C137.794 112.287 137.398 114.4 136.548 114.575C136.348 114.646 136.132 114.66 135.924 114.618C135.716 114.575 135.523 114.476 135.367 114.333Z" fill="#CF2633"/>
    <path d="M130.038 108.407C130.038 108.407 125.79 105.704 122.917 106.038C120.045 106.372 120.759 107.266 121.05 110.111C121.341 112.954 120.453 113.254 121.52 114.465C122.588 115.675 124.088 117.226 130.613 113.608C137.138 109.991 130.038 108.407 130.038 108.407Z" fill="#F15B43"/>
    <path d="M126.124 107.508C126.094 107.5 123.037 106.662 121.819 107.337L121.719 107.156C123.014 106.442 126.051 107.274 126.18 107.31L126.124 107.508Z" fill="#F6978F"/>
    <path d="M136.035 107.396C136.035 107.396 139.163 103.45 141.986 102.823C144.81 102.197 144.428 103.276 145.084 106.058C145.74 108.841 146.678 108.833 146.066 110.326C145.453 111.821 144.544 113.777 137.194 112.499C129.845 111.22 136.035 107.396 136.035 107.396Z" fill="#F15B43"/>
    <path d="M137.509 108.634C138.312 108.663 139.106 108.448 139.784 108.017C139.295 108.49 138.837 108.994 138.412 109.525C138.197 109.887 138.566 109.85 139.861 109.807C139.861 109.807 137.887 110.378 137.584 111.651L137.509 108.634Z" fill="#CF2633"/>
    <path d="M129.218 110.032C128.468 110.323 127.647 110.379 126.865 110.195C127.482 110.481 128.08 110.807 128.656 111.17C128.978 111.442 128.617 111.528 127.379 111.911C127.379 111.911 129.431 111.804 130.134 112.906L129.218 110.032Z" fill="#CF2633"/>
    <path d="M135.407 112.998C135.407 112.998 136.934 114.133 137.79 118.322C137.79 118.322 138.374 118.374 138.838 116.668C139.461 116.858 140.036 117.179 140.524 117.611C140.524 117.611 139.726 113.376 137.414 112.031L135.407 112.998Z" fill="#F15B43"/>
    <path d="M139.676 116.583C139.67 116.561 138.999 114.339 138.25 113.853L138.362 113.68C139.174 114.208 139.846 116.43 139.874 116.524L139.676 116.583Z" fill="#F6978F"/>
    <path d="M132.915 113.386C132.915 113.386 131.868 114.975 132.496 119.204C132.496 119.204 131.964 119.453 130.945 118.008C130.425 118.4 129.994 118.899 129.683 119.471C129.683 119.471 128.985 115.219 130.698 113.163L132.915 113.386Z" fill="#F15B43"/>
    <path d="M132.915 113.386C132.915 113.386 131.868 114.975 132.496 119.204C132.496 119.204 131.964 119.453 130.945 118.008C130.425 118.4 129.994 118.899 129.683 119.471C129.683 119.471 128.985 115.219 130.698 113.163L132.915 113.386Z" fill="#F15B43"/>
    <path d="M129.923 118.228C129.918 118.129 129.789 115.811 130.371 115.038L130.535 115.162C129.998 115.875 130.128 118.192 130.129 118.215L129.923 118.228Z" fill="#F6978F"/>
    <path d="M130.402 113.577C130.491 113.432 130.59 113.294 130.698 113.163L132.915 113.386C132.753 113.678 132.633 113.992 132.56 114.319C132.262 114.477 131.917 114.521 131.589 114.443C131.105 114.3 130.685 113.994 130.402 113.577Z" fill="#CF2633"/>
    <path d="M137.414 112.031C137.611 112.147 137.797 112.281 137.969 112.432C137.842 112.742 137.645 113.018 137.394 113.239C137.193 113.395 136.964 113.509 136.718 113.575C136.473 113.64 136.217 113.656 135.965 113.621C135.807 113.39 135.619 113.18 135.407 112.998L137.414 112.031Z" fill="#CF2633"/>
    <path d="M136.941 112.616C137.229 112.319 137.453 111.966 137.601 111.58C137.749 111.193 137.817 110.781 137.802 110.368C137.821 109.881 137.865 108.736 137.037 108.054C136.813 107.86 136.548 107.72 136.262 107.645C135.976 107.569 135.677 107.56 135.387 107.618C134.994 107.728 134.973 107.934 134.426 108.156C134.02 108.315 133.584 108.389 133.148 108.371C132.196 108.352 131.678 108.156 131.011 108.168C130.714 108.166 130.423 108.248 130.171 108.403C129.918 108.559 129.714 108.782 129.582 109.047C129.329 109.468 129.179 109.942 129.144 110.431C129.109 110.92 129.19 111.41 129.38 111.862C129.458 112.083 129.969 113.525 131.136 113.82C131.817 113.992 132.049 113.605 133.369 113.256C135.432 112.711 136.112 113.325 136.941 112.616Z" fill="#F15B43"/>
    <path d="M137.194 112.499C137.194 112.499 137.291 112.442 137.458 112.35C137.405 112.253 137.389 112.139 137.414 112.03C137.755 111.835 139.733 111.261 139.733 111.261C141.853 110.395 144.624 109.717 145.227 111.738C144.339 112.652 142.542 113.284 138.229 112.662L138.229 112.664L137.666 112.616L137.69 112.579C137.525 112.552 137.366 112.529 137.194 112.499Z" fill="#CF2633"/>
    <path d="M122.774 115.524C122.686 113.511 125.273 113.177 127.498 113.257L127.496 113.257C127.496 113.257 129.55 113.331 130.446 113.472L130.465 113.58C130.558 113.597 130.612 113.608 130.612 113.608C130.567 113.633 130.526 113.654 130.482 113.679V113.68L130.237 113.814L130.231 113.814C125.994 116.099 123.964 116.121 122.774 115.524Z" fill="#CF2633"/>
    <path d="M182.488 53.7048C182.488 53.7048 154.521 61.2277 147.152 66.5211L146.076 66.7027L144.953 60.0327L182.488 53.7048Z" fill="#CF2633"/>
    <path d="M146.027 59.8515L144.952 60.033L146.076 66.7027L147.151 66.5212L146.027 59.8515Z" fill="#46C2CC"/>
    <path d="M158.727 43.2566L148.702 44.9451L148.799 45.5189L158.823 43.8305L158.727 43.2566Z" fill="#303443"/>
    <path d="M146.315 59.8032L145.742 59.8999L149.334 81.2374L149.908 81.1407L146.315 59.8032Z" fill="#303443"/>
    <path d="M183.515 90.2929L161.244 90.5105L161.25 91.0923L183.52 90.8747L183.515 90.2929Z" fill="#303443"/>
    <path d="M172.624 107.369L162.598 110.672L162.78 111.224L172.806 107.921L172.624 107.369Z" fill="#303443"/>
    <path d="M142.355 130.208L140.683 120.276L145.226 119.51L145.323 120.084L141.352 120.753L142.928 130.112L142.355 130.208Z" fill="#303443"/>
    <path d="M174.526 51.2266C173.626 51.2265 172.726 51.1708 171.833 51.0596L171.904 50.4823C175.206 50.9221 178.566 50.5285 181.678 49.3374L181.917 49.867C179.567 50.8019 177.055 51.2639 174.526 51.2266Z" fill="#303443"/>
    <path d="M194.043 63.6553L186.443 64.9438L186.501 65.2859L194.101 63.9973L194.043 63.6553Z" fill="#303443"/>
    <path d="M119.024 77.4072C119.024 77.4072 120.908 74.0553 122.582 77.093C122.582 77.093 121.379 79.92 119.024 77.4072Z" fill="#F5F7F7"/>
    <path d="M120.28 71.2805C120.28 71.2805 122.059 74.0581 121.43 74.2926C121.285 74.3951 121.111 74.45 120.934 74.45C120.756 74.45 120.582 74.3951 120.437 74.2926" fill="#C58877"/>
    <path d="M119.024 85.4185C119.024 85.4185 114.419 82.4862 113.582 80.8105C113.582 80.8105 116.512 82.8481 119.024 82.5909V85.4185Z" fill="#C58877"/>
    <path d="M116.617 71.6026C116.843 71.5948 117.058 71.4994 117.215 71.3366C117.372 71.1738 117.46 70.9563 117.46 70.7299C117.46 70.5035 117.372 70.286 117.215 70.1232C117.058 69.9604 116.843 69.865 116.617 69.8572C116.391 69.865 116.177 69.9604 116.02 70.1232C115.863 70.286 115.775 70.5035 115.775 70.7299C115.775 70.9563 115.863 71.1738 116.02 71.3366C116.177 71.4994 116.391 71.5948 116.617 71.6026Z" fill="#303443"/>
    <path d="M122.583 71.1834C122.809 71.1757 123.023 71.0803 123.18 70.9175C123.337 70.7547 123.425 70.5371 123.425 70.3107C123.425 70.0843 123.337 69.8667 123.18 69.7039C123.023 69.5411 122.809 69.4457 122.583 69.438C122.356 69.4457 122.142 69.5411 121.985 69.7039C121.828 69.8667 121.74 70.0843 121.74 70.3107C121.74 70.5371 121.828 70.7547 121.985 70.9175C122.142 71.0803 122.356 71.1757 122.583 71.1834Z" fill="#303443"/>
    <path d="M118.967 77.4138C118.972 77.2881 118.987 77.163 119.012 77.0396C119.036 76.9317 119.068 76.8258 119.107 76.7226C119.187 76.5148 119.295 76.319 119.428 76.1407C119.566 75.9357 119.746 75.763 119.957 75.6343C120.168 75.5057 120.404 75.4242 120.649 75.3954C120.786 75.3936 120.923 75.4076 121.056 75.4373C121.182 75.4776 121.304 75.528 121.422 75.588L121.72 75.7969L121.966 76.0238C122.14 76.1576 122.261 76.3258 122.434 76.4631C122.575 76.6161 122.732 76.765 122.895 76.9204L122.956 76.978L122.911 77.2328C122.83 77.6755 122.622 78.085 122.312 78.411C122.145 78.6083 121.938 78.7681 121.705 78.8799C121.473 78.9917 121.219 79.053 120.961 79.0597C120.469 79.0432 120 78.8482 119.641 78.5111C119.49 78.3563 119.352 78.1885 119.231 78.0095C119.111 77.8268 119.022 77.6255 118.967 77.4138ZM119.082 77.3998C119.258 77.4746 119.44 77.5347 119.626 77.5796C119.788 77.625 119.962 77.693 120.113 77.7442C120.369 77.8233 120.638 77.8512 120.905 77.8263C121.138 77.7956 121.36 77.7116 121.555 77.5807C121.802 77.388 122.036 77.178 122.254 76.9524L122.27 77.2654C122.221 77.0798 122.161 76.8974 122.091 76.7191C122.002 76.5576 121.883 76.4151 121.74 76.2996C121.667 76.2491 121.589 76.2073 121.507 76.1751C121.42 76.1588 121.334 76.1582 121.258 76.15C121.177 76.1628 121.102 76.1954 121.037 76.2111C120.97 76.2414 120.91 76.2868 120.854 76.3118C120.636 76.4572 120.365 76.587 120.073 76.7941C119.924 76.8913 119.774 77.0001 119.608 77.1066C119.53 77.1636 119.441 77.2159 119.355 77.2718L119.219 77.3544C119.174 77.3742 119.121 77.4312 119.082 77.3998Z" fill="#CF2633"/>
    <path d="M109.814 79.1351C108.768 76.7258 104.581 72.1178 105.732 70.8616C106.884 69.6049 108.558 71.4894 109.71 73.1656L109.662 71.9118C109.604 70.9302 109.818 69.9516 110.281 69.0843C110.744 68.2169 111.438 67.4946 112.285 66.9972C112.54 66.8636 112.767 66.6823 112.954 66.4631C113.896 65.3111 115.152 65.4158 115.989 65.4158C116.826 65.4158 117.977 64.3685 118.187 62.9024C118.396 61.4362 121.431 59.2369 123.629 63.8449C123.629 63.8449 124.78 54.6289 111.593 55.4661C98.4066 56.3045 101.546 69.6049 102.907 71.2805C104.267 72.9556 109.923 79.0082 110.143 80.1492C110.062 79.8025 109.952 79.4633 109.814 79.1351Z" fill="#303443"/>
    <path d="M101.577 63.8447C101.577 63.8447 97.5695 65.7298 98.1974 71.3851C98.8254 77.0403 104.058 85.7327 102.384 89.8171C100.709 93.9014 98.3021 95.8913 94.7438 96.6243C94.7438 96.6243 98.6161 89.9218 97.1509 86.6753C95.6857 83.4287 91.4994 75.5742 93.2786 69.5C95.0577 63.4258 100.148 61.7071 102.155 61.6763C102.155 61.6763 104.12 62.9022 101.577 63.8447Z" fill="#303443"/>
    <path d="M110.547 86.885C109.621 88.2003 109.144 89.7794 109.186 91.3877L122.112 90.917C122.112 90.917 121.222 88.403 119.024 87.5128L110.547 86.885Z" fill="#FFCC5D"/>
    <path d="M115.646 89.1362C115.646 89.1362 122.269 88.8749 126.455 95.4728C130.641 102.07 140.165 122.806 140.165 122.806L164.027 119.559C164.027 119.559 165.492 124.796 164.655 126.891C164.655 126.891 151.049 133.698 137.757 135.688C137.757 135.688 134.932 136.421 132.734 132.65L116.303 133.593C116.303 133.593 109.082 119.245 108.035 116.732C106.988 114.218 102.383 99.5565 109.187 91.3878C111.028 89.9371 113.302 89.1446 115.646 89.1362Z" fill="#82C56D"/>
    <path d="M132.734 132.65L116.617 104.374L127.978 132.924L132.734 132.65Z" fill="#4DA258"/>
    <path d="M125.584 119.518L125.078 119.807L131.432 130.954L131.938 130.666L125.584 119.518Z" fill="#303443"/>
    <path d="M132.734 132.65L116.303 133.593C116.023 137.276 115.249 140.904 114 144.38C112.047 149.407 108.628 165.186 115.152 181.104C115.152 181.104 117.21 197.861 114.977 213.5C112.745 229.139 111.698 260.941 112.535 265.863H130.118C130.118 265.863 136.397 229.418 138.49 209.73C140.583 190.042 147.909 151.501 137.758 135.688C137.758 135.688 134.932 136.421 132.734 132.65Z" fill="#F15B43"/>
    <path d="M116.512 265.863C116.512 265.863 116.826 270.891 115.885 272.776C114.943 274.66 112.954 281.364 115.047 284.505H147.282C147.282 284.505 145.816 280.944 140.06 280.63C137.324 280.399 134.746 279.254 132.74 277.379C131.452 276.228 130.631 274.643 130.434 272.927L129.594 265.863H116.512Z" fill="#E9A48A"/>
    <path d="M115.047 284.505H147.281C147.281 284.505 145.816 280.944 140.06 280.63C126.978 283.143 115.884 272.775 115.884 272.775L114.448 277.481C113.982 279.97 113.895 282.776 115.047 284.505Z" fill="#F15B43"/>
    <path d="M133.006 281.136C129.228 280.627 125.581 279.409 122.255 277.545L122.532 277.033C125.794 278.862 129.371 280.059 133.077 280.559L133.006 281.136Z" fill="#303443"/>
    <path d="M175.801 121.127C173.498 120.182 175.121 118.67 176.219 117.57C177.318 116.47 182.342 114.795 178.156 114.533C173.97 114.271 164.027 119.56 164.027 119.56C164.027 119.56 165.376 124.398 164.734 126.631L164.74 126.638C165.557 125.651 169.26 125.634 170.045 125.634C170.83 125.634 173.132 127.1 173.812 127.362C174.493 127.624 184.644 125.739 185.325 125.372C186.005 125.006 178.103 122.073 175.801 121.127Z" fill="#E9A48A"/>
    <path d="M181.41 125.222L179.169 124.274L174.706 122.318L178.979 124.667L181.133 125.815C181.367 125.937 181.602 126.058 181.837 126.178C182.305 126.087 182.748 125.997 183.154 125.913C182.573 125.694 181.99 125.461 181.41 125.222Z" fill="#C58877"/>
    <path d="M180.045 126.517C179.577 126.392 179.12 126.23 178.678 126.031C178.242 125.859 177.807 125.673 177.374 125.482C176.508 125.096 175.649 124.692 174.795 124.269C175.575 124.815 176.365 125.347 177.168 125.866C177.571 126.123 177.976 126.377 178.393 126.621C178.479 126.669 178.564 126.717 178.649 126.764C179.071 126.691 179.5 126.615 179.927 126.538L180.045 126.517Z" fill="#C58877"/>
    <path d="M177.18 127.007L174.363 126.166L175.901 127.199C176.091 127.173 176.29 127.143 176.495 127.113L177.18 127.007Z" fill="#C58877"/>
    <path d="M108.14 77.8434C110.384 77.8434 110.388 74.3525 108.14 74.3525C105.895 74.3525 105.892 77.8434 108.14 77.8434Z" fill="#F15B43"/>
    <path d="M132.734 132.65L127.978 132.924C127.978 132.924 132.211 139.143 137.758 135.688C137.758 135.688 134.932 136.421 132.734 132.65Z" fill="#CF2633"/>
    <path d="M116.487 269.876L129.594 265.864H116.512C116.584 267.2 116.576 268.54 116.487 269.876Z" fill="#C58877"/>
    <path d="M115.151 181.104C115.151 181.104 117.21 197.861 114.977 213.5C112.744 229.139 111.698 260.942 112.535 265.864H116.512C116.512 265.864 118.605 229 120.754 211.406C122.903 193.811 115.151 181.104 115.151 181.104Z" fill="#CF2633"/>
    <path d="M121.043 211.441L120.466 211.37C122.576 194.087 114.98 181.382 114.903 181.256L115.4 180.953C115.477 181.08 123.178 193.948 121.043 211.441Z" fill="#303443"/>
    <path d="M232.719 272.915C232.719 272.915 233.592 275.743 219.149 280.875C219.149 280.875 211.614 282.236 211.927 283.807C212.199 285.168 234.684 284.172 240.704 283.881C241.101 283.861 241.475 283.689 241.749 283.401C242.022 283.113 242.174 282.73 242.173 282.332V272.575L232.719 272.915Z" fill="#F15B43"/>
    <path d="M285.168 269.114C284.205 270.139 282.673 271.034 280.234 271.216C278.614 271.388 276.976 271.144 275.476 270.509L275.468 270.511C275.468 270.511 273.047 283.145 273.361 284.087C273.625 284.877 283.382 284.342 286.525 284.148C286.641 284.132 286.753 284.089 286.85 284.023C286.948 283.958 287.03 283.871 287.09 283.769C287.15 283.668 287.186 283.554 287.196 283.437C287.206 283.319 287.19 283.201 287.148 283.091C285.764 278.564 285.096 273.848 285.168 269.114Z" fill="#F15B43"/>
    <path d="M247.119 139.572C247.119 139.572 236.626 226.556 232.719 272.915L242.81 272.575C244.382 272.522 245.892 271.946 247.102 270.939C248.311 269.932 249.151 268.551 249.489 267.013C251.524 257.788 255.441 238.038 256.511 218.457C256.511 218.457 264.047 184.735 265.721 176.566C265.721 176.566 272.001 224.741 272.419 268.936C272.419 268.936 273.954 272.566 280.234 272.147C286.513 271.729 286.792 267.121 286.792 267.121C286.792 267.121 292.106 140.041 284.669 138.196L247.119 139.572Z" fill="#FFCC5D"/>
    <path d="M288.186 160.232C287.654 147.453 286.584 138.671 284.669 138.196L272.202 138.653C272.202 138.653 277.092 154.37 288.186 160.232Z" fill="#F39821"/>
    <path d="M288.05 160.489C282.257 157.428 278.18 151.674 275.78 147.386L276.287 147.102C278.649 151.321 282.654 156.98 288.321 159.974L288.05 160.489Z" fill="#303443"/>
    <path d="M265.721 176.566L264.116 160.231L262.634 190.851L265.721 176.566Z" fill="#F39821"/>
    <path d="M235.092 116.941C235.092 116.941 239.836 86.5012 243.046 82.0322C246.255 77.5639 253.093 72.6766 264.047 72.0488C275.001 71.4204 276.955 70.4424 285.467 72.0488C293.978 73.6546 298.165 75.7486 300.677 83.2889C303.189 90.8293 306.677 105.631 306.677 105.631C306.677 105.631 296.909 106.888 290.63 106.608L288.676 108.842L288.99 130.934C289.019 132.958 288.287 134.92 286.937 136.428C285.588 137.937 283.721 138.882 281.707 139.077C273.299 139.883 259.513 140.984 250.089 140.607C249.372 140.581 248.667 140.411 248.017 140.108C247.367 139.804 246.784 139.373 246.303 138.84C245.822 138.307 245.453 137.683 245.217 137.005C244.981 136.327 244.884 135.608 244.931 134.892L246.394 113.031L235.092 116.941Z" fill="#F15B43"/>
    <path d="M290.63 106.608C290.63 106.608 287.281 92.2607 286.443 91.3181L288.676 108.842L290.63 106.608Z" fill="#CF2633"/>
    <path d="M260.593 46.5998C260.593 46.5998 259.337 65.5554 261.43 66.7074C263.523 67.8594 264.047 67.44 264.047 67.44V75.1461C264.047 75.7523 264.211 76.3472 264.52 76.8681C264.83 77.389 265.275 77.8166 265.807 78.1059C266.339 78.3953 266.94 78.5356 267.545 78.5122C268.15 78.4887 268.738 78.3023 269.246 77.9726C271.113 76.8006 272.906 75.5157 274.616 74.125C275.013 73.7824 275.33 73.358 275.547 72.881C275.764 72.4039 275.875 71.8855 275.873 71.3614V58.6434C275.873 58.6434 278.908 53.9307 276.605 52.045C274.303 50.1605 273.466 55.1874 273.256 58.224C272.476 57.2378 272.036 56.0257 272.001 54.7685C272.001 52.7787 271.896 46.0762 271.896 46.0762C271.896 46.0762 261.116 49.9511 260.593 46.5998Z" fill="#E9A48A"/>
    <path d="M264.465 54.4658C264.465 54.4658 263 56.4556 263.732 57.5035C263.803 57.6363 263.909 57.7473 264.038 57.8247C264.167 57.9021 264.315 57.943 264.465 57.943C264.616 57.943 264.763 57.9021 264.892 57.8247C265.021 57.7473 265.127 57.6363 265.198 57.5035" fill="#C58877"/>
    <path d="M262.687 59.7952H266.036C266.036 59.7952 264.466 62.937 262.687 59.7952Z" fill="#303443"/>
    <path d="M268.442 53.6515C268.668 53.6437 268.882 53.5484 269.04 53.3855C269.197 53.2227 269.285 53.0052 269.285 52.7787C269.285 52.5523 269.197 52.3347 269.04 52.1719C268.882 52.0091 268.668 51.9138 268.442 51.906C268.216 51.9138 268.001 52.0091 267.844 52.1719C267.687 52.3347 267.599 52.5523 267.599 52.7787C267.599 53.0052 267.687 53.2227 267.844 53.3855C268.001 53.5484 268.216 53.6437 268.442 53.6515Z" fill="#303443"/>
    <path d="M262.372 53.8607C262.598 53.8529 262.813 53.7575 262.97 53.5947C263.127 53.4318 263.215 53.2143 263.215 52.988C263.215 52.7616 263.127 52.5441 262.97 52.3813C262.813 52.2185 262.598 52.1231 262.372 52.1152C262.146 52.1231 261.932 52.2185 261.775 52.3813C261.618 52.5441 261.53 52.7616 261.53 52.988C261.53 53.2143 261.618 53.4318 261.775 53.5947C261.932 53.7575 262.146 53.8529 262.372 53.8607Z" fill="#303443"/>
    <path d="M264.047 67.4401C264.047 67.4401 269.488 66.8123 271.687 64.2988C271.687 64.2988 268.233 73.3048 264.047 72.0486V67.4401Z" fill="#C58877"/>
    <path d="M277.469 41.7822C276.028 40.1066 269.698 39.6877 264.363 41.2586C259.027 42.8295 260.593 46.5997 260.593 46.5997L261.568 47.7046C264.328 48.7955 271.896 46.0761 271.896 46.0761C271.896 46.0761 272.001 52.7786 272.001 54.7684C272.036 56.0258 272.477 57.238 273.257 58.2244C273.466 55.1873 274.303 50.1604 276.606 52.0455C277.973 53.1649 277.456 55.2764 276.813 56.8112L276.817 56.8048C279.54 51.9291 278.908 43.4579 277.469 41.7822Z" fill="#303443"/>
    <path d="M235.092 116.941C235.092 116.941 233.696 125.04 238.022 126.437C242.347 127.834 246.534 127.275 250.86 124.343C250.86 124.343 255.814 124.552 255.953 123.156L256.093 121.759H238.022L235.092 116.941Z" fill="#E9A48A"/>
    <path d="M247.371 124.038C245.656 124.174 243.953 124.427 242.273 124.795C243.969 124.585 245.677 124.491 247.385 124.513C248.351 124.528 249.314 124.598 250.272 124.722C250.467 124.598 250.663 124.476 250.86 124.342C250.86 124.342 251.624 124.373 252.559 124.328L253.057 124.298C251.186 123.921 249.268 123.833 247.371 124.038Z" fill="#C58877"/>
    <path d="M246.142 125.384L248.163 125.867C248.529 125.7 248.897 125.521 249.265 125.319L246.142 125.384Z" fill="#C58877"/>
    <path d="M235.092 116.941L235.676 85.4294H277.527V121.759H238.022L235.092 116.941Z" fill="#FFCC5D"/>
    <path d="M290.63 106.608V109.366L280.164 103.676V96.885C280.164 96.5157 280.046 96.1561 279.828 95.8582C279.61 95.5604 279.303 95.3398 278.951 95.2285L270.884 92.6802C270.884 92.6802 270.326 98.2825 271.32 99.2256C272.314 100.168 277.547 102.786 277.6 103.99C277.652 105.194 277.495 110.745 277.495 110.745L288.882 120.716L299.453 129.757C304.173 133.096 309.759 127.153 308.631 121.48L305.928 105.722L290.63 106.608Z" fill="#E9A48A"/>
    <path d="M290.629 109.366L303.816 114.987L290.629 106.608V109.366Z" fill="#C58877"/>
    <path d="M280.164 103.676V106.608L282.138 104.749L280.164 103.676Z" fill="#C58877"/>
    <path d="M276.27 98.6805C275.618 98.3524 274.959 98.0382 274.298 97.7281C273.116 97.1748 271.925 96.6412 270.73 96.1135C270.733 96.4231 270.745 96.7291 270.763 97.0258C271.887 97.3912 273.012 97.7589 274.128 98.147C274.815 98.3861 275.501 98.6293 276.18 98.8876C276.866 99.1269 277.532 99.4207 278.171 99.7662C277.567 99.3543 276.932 98.9913 276.27 98.6805Z" fill="#C58877"/>
    <path d="M278.751 97.8375C278.479 97.5557 278.157 97.3274 277.802 97.1643C277.459 96.9764 277.111 96.7984 276.761 96.6261C276.06 96.2823 275.352 95.9541 274.641 95.633C273.364 95.057 272.08 94.5031 270.788 93.9585C270.772 94.2285 270.759 94.5287 270.747 94.844C271.994 95.2333 273.239 95.6335 274.475 96.0536C275.211 96.3032 275.944 96.5604 276.671 96.8333C277.035 96.9706 277.396 97.1125 277.752 97.2656C278.118 97.3923 278.457 97.5862 278.751 97.8375Z" fill="#C58877"/>
    <path d="M243.482 85.4158L243.27 121.745L247.921 121.773L248.134 85.4431L243.482 85.4158Z" fill="#82C56D"/>
    <path d="M277.468 110.585H235.166V115.24H277.468V110.585Z" fill="#82C56D"/>
    <path d="M266.067 85.4294C266.067 85.4294 268.754 83.0835 269.277 82.6646C269.43 83.5798 269.43 84.5141 269.277 85.4294H266.067Z" fill="#CF2633"/>
    <path d="M237.472 101.055C235.445 101.745 233.568 102.817 231.944 104.213C229.757 106.289 226.775 108.079 221.845 109.501L223.134 107.587L221.143 106.238C221.143 106.238 226.256 105.575 229.788 102.517C233.319 99.4573 234.957 98.7318 235.608 98.5229L237.472 101.055Z" fill="#F15B43"/>
    <path d="M221.523 106.496L221.143 106.239C221.143 106.239 221.446 106.199 221.952 106.096L221.523 106.496Z" fill="#CF2633"/>
    <path d="M237.472 101.055C237.472 101.055 236.863 101.253 235.996 101.64C235.871 101.568 235.753 101.493 235.64 101.419C234.683 100.801 234.97 100.385 234.591 98.9733C234.915 98.7927 235.256 98.642 235.608 98.5229L237.472 101.055Z" fill="#CF2633"/>
    <path d="M254.689 92.8463C256.51 91.7197 258.531 90.9527 260.641 90.5865C263.633 90.2188 266.91 89.0546 271.141 86.1536L268.846 85.9308L269.073 83.5366C269.073 83.5366 265.31 87.0619 260.704 87.8421C256.099 88.6235 254.498 89.4264 253.923 89.7958L254.689 92.8463Z" fill="#F15B43"/>
    <path d="M253.923 89.7959C254.426 89.4923 254.963 89.2482 255.522 89.0686C256.142 89.8203 256.485 89.9995 256.375 90.9554C256.345 91.3304 256.263 91.6994 256.132 92.0522C255.251 92.4874 254.689 92.8463 254.689 92.8463L253.923 89.7959Z" fill="#CF2633"/>
    <path d="M242.14 93.6766C242.14 93.6766 238.034 92.4379 235.754 93.3741C233.475 94.3102 234.266 94.8792 235.159 97.1454C236.053 99.411 235.393 99.8625 236.548 100.609C237.701 101.355 239.29 102.282 243.809 97.8098C248.33 93.3386 242.14 93.6766 242.14 93.6766Z" fill="#F15B43"/>
    <path d="M235.454 93.5039L234.272 94.6065C234.318 94.1928 234.647 93.8699 235.454 93.5039Z" fill="#CF2633"/>
    <path d="M235.167 94.6748L235.044 94.5497C235.937 93.6679 238.614 93.6509 238.727 93.6509V93.8259C238.701 93.8259 236.009 93.8429 235.167 94.6748Z" fill="#CF2633"/>
    <path d="M237.827 101.152C236.895 98.3141 243.799 97.7834 243.799 97.7834C240.689 100.86 238.972 101.374 237.827 101.152Z" fill="#CF2633"/>
    <path d="M246.827 91.4646C246.827 91.4646 248.485 87.5059 250.656 86.3417C252.828 85.1769 252.764 86.1497 253.943 88.2815C255.122 90.4127 255.889 90.1904 255.731 91.5565C255.572 92.9226 255.276 94.7379 248.953 95.3831C242.629 96.0284 246.827 91.4646 246.827 91.4646Z" fill="#F15B43"/>
    <path d="M255.323 92.8957C254.099 90.9577 250.986 93.4479 249.605 94.711C249.187 95.0933 248.927 95.3632 248.927 95.3632C253.277 94.9199 254.766 93.9203 255.323 92.8957Z" fill="#CF2633"/>
    <path d="M248.298 92.1305C248.962 91.9692 249.561 91.6106 250.017 91.1018C249.726 91.6014 249.466 92.1191 249.24 92.6518C249.148 92.9968 249.442 92.8816 250.49 92.5494C250.49 92.5494 249.008 93.4698 249.052 94.5799L248.298 92.1305Z" fill="#CF2633"/>
    <path d="M241.837 95.1794C241.29 95.589 240.632 95.8237 239.95 95.8526C240.52 95.9452 241.085 96.0742 241.639 96.2389C241.964 96.3873 241.688 96.5409 240.764 97.139C240.764 97.139 242.418 96.5793 243.246 97.32L241.837 95.1794Z" fill="#CF2633"/>
    <path d="M247.58 96.1828C247.58 96.1828 249.09 96.76 250.751 99.9897C250.751 99.9897 251.241 99.8983 251.229 98.3961C251.782 98.4077 252.326 98.5387 252.824 98.7801C252.824 98.7801 251.2 95.4992 248.999 94.9302L247.58 96.1828Z" fill="#F15B43"/>
    <path d="M251.895 98.1333C251.884 98.1169 250.825 96.4544 250.102 96.2288L250.154 96.0618C250.938 96.3061 251.997 97.9692 252.042 98.0402L251.895 98.1333Z" fill="#CF2633"/>
    <path d="M245.63 97.072C245.63 97.072 245.138 98.6127 246.623 101.928C246.623 101.928 246.246 102.253 245.08 101.306C244.744 101.746 244.507 102.253 244.384 102.792C244.384 102.792 242.837 99.4749 243.766 97.3996L245.63 97.072Z" fill="#F15B43"/>
    <path d="M244.295 101.72C244.268 101.641 243.63 99.7753 243.929 99.0083L244.093 99.0719C243.817 99.7793 244.454 101.645 244.461 101.663L244.295 101.72Z" fill="#CF2633"/>
    <path d="M243.767 97.3998L245.631 97.0723C245.545 97.4455 245.524 97.8305 245.567 98.2109C245.373 98.382 245.125 98.479 244.867 98.4849C244.388 98.4735 243.93 98.2856 243.581 97.9572C243.625 97.766 243.687 97.5794 243.767 97.3998Z" fill="#CF2633"/>
    <path d="M248.999 94.9299C249.228 94.991 249.448 95.0769 249.658 95.1859C249.645 95.5319 249.539 95.8679 249.351 96.1587C249.13 96.475 248.793 96.6909 248.414 96.7592C248.169 96.5234 247.887 96.3288 247.58 96.1826L248.999 94.9299Z" fill="#CF2633"/>
    <path d="M248.773 95.5378C248.94 95.2273 249.043 94.8862 249.075 94.535C249.107 94.1838 249.068 93.8297 248.961 93.4939C248.912 93.1372 248.782 92.7965 248.581 92.4981C248.38 92.1997 248.113 91.9515 247.801 91.7729C247.572 91.6658 247.323 91.6122 247.071 91.6162C246.819 91.6201 246.571 91.6814 246.346 91.7955C246.049 91.9765 246.08 92.151 245.682 92.4582C245.386 92.6829 245.045 92.8435 244.684 92.9301C243.897 93.1332 243.429 93.0918 242.883 93.2553C242.64 93.3225 242.42 93.4566 242.248 93.6424C242.077 93.8282 241.961 94.0583 241.914 94.3067C241.803 94.7096 241.789 95.133 241.873 95.5423C241.957 95.9517 242.136 96.3355 242.396 96.6625C242.511 96.8254 243.262 97.8907 244.288 97.8633C244.885 97.8482 244.986 97.477 245.99 96.8859C247.556 95.9625 248.255 96.3099 248.773 95.5378Z" fill="#F15B43"/>
    <path d="M243.564 98.0486C240.681 100.841 239.029 101.376 237.913 101.204L237.828 101.151L243.581 97.9573L243.564 98.0486Z" fill="#CF2633"/>
    <path d="M255.323 92.8958C255.323 92.8958 255.348 92.8836 255.39 92.8638C254.878 93.8534 253.525 94.8251 249.612 95.308L249.816 94.9374L252.912 93.7313L255.323 92.8958Z" fill="#CF2633"/>
    <path d="M271.32 99.2253C271.32 99.2253 277.72 115.157 277.528 121.759V101.775L271.32 99.2253Z" fill="#F39821"/>
    <path d="M276.624 115.24H277.532V110.585H275.307C275.793 112.142 276.249 113.724 276.624 115.24Z" fill="#4DA258"/>
    <path d="M248.956 110.585H247.988V115.24H248.956V110.585Z" fill="#4DA258"/>
    <path d="M243.242 110.585H242.274V115.24H243.242V110.585Z" fill="#4DA258"/>
    <path d="M267.671 190.826L267.092 190.877L270.322 226.976L270.901 226.924L267.671 190.826Z" fill="#303443"/>
    <path d="M248.279 97.46H247.697V116.941H248.279V97.46Z" fill="#303443"/>
    <path d="M306.659 105.341L296.858 105.956L296.895 106.536L306.695 105.922L306.659 105.341Z" fill="#303443"/>
    <path d="M241.149 272.366L233.391 272.624L233.41 273.205L241.168 272.948L241.149 272.366Z" fill="#303443"/>
    <path d="M250.128 85.1384H241.598V85.7202H250.128V85.1384Z" fill="#303443"/>
</svg>
