<svg width="355" height="246" viewBox="0 0 355 246" fill="none" xmlns="http://www.w3.org/2000/svg">
    <g clip-path="url(#clip0_1_3041)">
        <path opacity="0.2" d="M106.166 31.8922L105.913 31.8286L25.8027 199.249L308.209 221.011L308.528 221.035L318.875 85.1275L318.896 84.8603L106.166 31.8922ZM187.292 139.559L26.9142 198.4L106.151 32.8078L187.292 139.559ZM187.763 140.063L307.057 220.283L27.7711 198.763L187.763 140.063ZM187.91 139.321L106.889 32.7259L317.549 85.1784L187.91 139.321ZM307.958 220.124L188.473 139.774L318.201 85.5955L307.958 220.124Z" fill="#367CFF"/>
        <path d="M354.97 87.9579C354.714 94.4031 352.9 100.691 349.681 106.284C346.461 111.877 341.934 116.608 336.484 120.075C331.035 123.541 324.826 125.638 318.387 126.188C311.949 126.738 305.473 125.724 299.513 123.232C296.718 122.063 294.067 120.576 291.612 118.801C286.92 115.42 283.015 111.067 280.164 106.041V106.036C277.124 100.66 275.375 94.6531 275.053 88.4878C274.731 82.3226 275.845 76.1668 278.309 70.5042C280.773 64.8415 284.518 59.8262 289.251 55.8523C293.984 51.8784 299.576 49.0541 305.587 47.6014C311.597 46.1487 317.864 46.1071 323.894 47.4799C329.924 48.8527 335.552 51.6025 340.338 55.5133C345.123 59.424 348.935 64.3892 351.474 70.0187C354.013 75.6481 355.209 81.7886 354.969 87.9576L354.97 87.9579Z" fill="white"/>
        <path opacity="0.09" d="M354.97 87.9579C354.714 94.4031 352.9 100.691 349.681 106.284C346.461 111.877 341.934 116.608 336.484 120.075C331.035 123.541 324.826 125.638 318.387 126.188C311.949 126.738 305.473 125.724 299.513 123.232C296.718 122.063 294.067 120.576 291.612 118.801C286.92 115.42 283.015 111.067 280.164 106.041V106.036C277.124 100.66 275.375 94.6531 275.053 88.4878C274.731 82.3226 275.845 76.1668 278.309 70.5042C280.773 64.8415 284.518 59.8262 289.251 55.8523C293.984 51.8784 299.576 49.0541 305.587 47.6014C311.597 46.1487 317.864 46.1071 323.894 47.4799C329.924 48.8527 335.552 51.6025 340.338 55.5133C345.123 59.424 348.935 64.3892 351.474 70.0187C354.013 75.6481 355.209 81.7886 354.969 87.9576L354.97 87.9579Z" fill="#367CFF"/>
        <path d="M324.457 56.0012C324.457 56.0012 334.02 56.1181 330.723 69.2736L329.825 69.3175L328.002 69.4061" fill="#0C0C0C"/>
        <path d="M313.779 83.0757C313.823 83.0716 314 91.2772 323.555 90.9325C330.169 90.6948 332.793 83.8005 332.944 83.8062C332.239 83.6279 331.05 83.3614 330.741 83.1815C329.724 82.5845 328.461 81.9551 328.204 79.9286C328.057 78.7607 328.615 72.837 328.56 71.6592L318.348 73.5226C318.393 76.0079 319.16 81.7943 315.65 82.6773C315.065 82.8235 314.437 82.954 313.779 83.0757Z" fill="#E98862"/>
        <path opacity="0.52" d="M317.937 80.4131C318.116 79.9091 318.238 79.387 318.303 78.8563C318.461 77.6457 318.487 76.4214 318.378 75.2053C320.447 75.0078 322.418 74.235 324.069 72.9749C324.23 73.6739 325.146 76.7437 324.833 77.3912C324.244 78.6158 321.623 80.5561 317.937 80.4131Z" fill="#0C0C0C"/>
        <path d="M320.255 78.9635C324.259 78.6775 329.088 76.2447 329.255 70.8297L329.407 65.9446C329.575 60.5306 326.861 56.0535 321.755 55.8959C316.649 55.737 312.696 60.0092 312.528 65.4232L312.461 67.586C312.451 68.3293 312.491 69.0723 312.583 69.8101C312.809 71.7609 313.161 74.7272 314.448 76.7527C315.663 78.6648 317.698 79.1455 320.255 78.9635Z" fill="#E98862"/>
        <path d="M328.887 72.4704C330.439 72.5181 331.748 70.8996 331.797 69.3507C331.845 67.8018 330.613 66.9083 329.061 66.8604L328.229 67.8736L327.553 72.4291L328.887 72.4704Z" fill="#E98862"/>
        <path d="M312.79 71.4451C313.071 71.7769 313.43 72.0335 313.835 72.1914C314.24 72.3494 314.678 72.4036 315.11 72.3494C316.033 72.2334 316.645 72.6115 317.415 72.5355C318.062 72.472 318.174 72.1737 319.278 72.1085C323.539 71.8566 326.736 71.5884 326.944 66.2509L329.656 63.8467C329.656 63.8467 330.867 78.6375 322.853 80.6036C317.928 81.8109 313.31 81.3696 312.716 76.7527C312.233 73.0013 312.79 71.4451 312.79 71.4451Z" fill="#0C0C0C"/>
        <path d="M314.809 68.3561C315.157 68.3561 315.439 68.0749 315.439 67.728C315.439 67.3811 315.157 67.0999 314.809 67.0999C314.462 67.0999 314.18 67.3811 314.18 67.728C314.18 68.0749 314.462 68.3561 314.809 68.3561Z" fill="#0C0C0C"/>
        <path d="M320.431 68.2392C320.779 68.2392 321.06 67.958 321.06 67.6111C321.06 67.2641 320.779 66.9829 320.431 66.9829C320.083 66.9829 319.802 67.2641 319.802 67.6111C319.802 67.958 320.083 68.2392 320.431 68.2392Z" fill="#0C0C0C"/>
        <path d="M327.388 69.9522C327.388 69.9522 327.004 62.2804 324.685 61.7647C323.141 61.4212 319.341 63.5481 315.871 62.8218C314.353 62.504 312.9 62.8535 312.74 63.5697C312.676 63.8531 311.475 61.3396 313.917 58.2811C315.862 55.8461 322.185 55.1611 324.998 56.0221C332.787 58.407 329.376 67.2039 329.376 67.2039L328.978 69.8391L327.388 69.9522Z" fill="#0C0C0C"/>
        <path d="M330.928 63.7661C333.221 63.7661 335.079 61.9109 335.079 59.6223C335.079 57.3338 333.221 55.4785 330.928 55.4785C328.635 55.4785 326.777 57.3338 326.777 59.6223C326.777 61.9109 328.635 63.7661 330.928 63.7661Z" fill="#0C0C0C"/>
        <g opacity="0.52">
            <path d="M317.492 72.2891H317.482C316.982 72.2748 316.145 72.1954 316.154 71.8221C316.163 71.5126 317.107 68.1962 317.214 67.8187C317.224 67.7863 317.245 67.7588 317.275 67.7424C317.304 67.726 317.339 67.7219 317.372 67.7312C317.404 67.7404 317.432 67.7621 317.448 67.7916C317.465 67.8211 317.469 67.8558 317.459 67.8883C317.041 69.3571 316.415 71.6187 316.409 71.8281C316.456 71.9177 316.971 72.0187 317.489 72.0337C317.522 72.0333 317.555 72.0463 317.579 72.0699C317.603 72.0934 317.617 72.1256 317.617 72.1593C317.618 72.193 317.605 72.2255 317.581 72.2496C317.558 72.2737 317.525 72.2875 317.492 72.2878V72.2891Z" fill="#0C0C0C"/>
        </g>
        <path d="M315.969 65.5939C315.452 65.4412 314.904 65.4302 314.382 65.5622C314.125 65.6252 313.879 65.7266 313.652 65.8627C313.427 65.9962 313.22 66.1575 313.036 66.3428C313.004 66.3714 312.985 66.4114 312.982 66.4542C312.98 66.497 312.995 66.5389 313.023 66.5708C313.052 66.6027 313.092 66.6219 313.135 66.6243C313.178 66.6266 313.22 66.6119 313.252 66.5833L313.261 66.5751C313.433 66.4204 313.624 66.2879 313.829 66.1808C314.03 66.0741 314.247 65.9985 314.471 65.9565C314.914 65.8701 315.372 65.902 315.798 66.0489L315.814 66.055C315.845 66.0666 315.877 66.0721 315.909 66.0712C315.941 66.0704 315.973 66.0631 316.002 66.0498C316.032 66.0365 316.058 66.0175 316.08 65.9939C316.102 65.9703 316.119 65.9426 316.131 65.9123C316.142 65.8821 316.147 65.8499 316.145 65.8177C316.144 65.7855 316.136 65.7539 316.122 65.7248C316.108 65.6957 316.089 65.6696 316.065 65.648C316.041 65.6265 316.013 65.6099 315.982 65.5993L315.969 65.5939Z" fill="#0C0C0C"/>
        <path d="M319.677 66.0496C320.087 65.8617 320.539 65.7855 320.988 65.8288C321.216 65.8487 321.439 65.903 321.65 65.9899C321.864 66.0766 322.067 66.1899 322.253 66.327L322.263 66.334C322.297 66.3565 322.339 66.365 322.38 66.3576C322.421 66.3502 322.457 66.3275 322.481 66.2942C322.506 66.261 322.517 66.2196 322.512 66.1787C322.506 66.1377 322.486 66.1003 322.454 66.0741C322.252 65.9076 322.031 65.7671 321.794 65.656C321.555 65.5425 321.3 65.4655 321.038 65.4275C320.505 65.3474 319.961 65.4118 319.461 65.614C319.403 65.6393 319.356 65.6866 319.332 65.7458C319.308 65.8049 319.309 65.8711 319.333 65.93C319.358 65.9889 319.404 66.0358 319.463 66.0606C319.522 66.0853 319.588 66.086 319.648 66.0623L319.659 66.0572L319.677 66.0496Z" fill="#0C0C0C"/>
        <path d="M345.169 103.565C344.814 106.248 344.466 109.932 344.156 113.742C342.944 115.03 341.648 116.236 340.276 117.353C339.404 118.061 338.504 118.733 337.576 119.37C332.559 122.789 326.829 125.024 320.818 125.907C314.808 126.791 308.676 126.298 302.884 124.468C302.805 120.929 302.697 116.156 302.591 111.782C302.468 106.738 302.344 102.221 302.278 100.737C302.003 94.847 300.439 90.9171 301.622 87.7036C301.975 86.7524 302.544 85.8953 303.283 85.1989C306.038 82.5075 312.881 82.5688 315.625 82.6752C315.673 82.6772 314.825 89.0002 323.855 88.924C330.493 88.8696 330.99 83.2703 330.99 83.2703C330.99 83.2703 334.261 83.61 336.433 83.9865C339.986 84.6077 342.296 85.9084 344.093 87.851C345.77 89.6624 346.76 91.5852 345.169 103.565Z" fill="#367CFF"/>
        <path d="M292.081 83.2986L292.354 76.5517C292.36 76.4033 292.335 76.2553 292.281 76.117C292.227 75.9787 292.144 75.8533 292.038 75.7486C291.933 75.644 291.807 75.5625 291.668 75.5093C291.529 75.4561 291.38 75.4324 291.232 75.4396C290.958 75.4617 290.702 75.5844 290.514 75.784C290.326 75.9836 290.219 76.2459 290.213 76.5199L290.155 77.9668L288.246 73.3334C288.043 72.8146 287.461 72.3075 286.893 72.5734C286.667 72.6614 286.479 72.8231 286.357 73.032C286.236 73.2409 286.189 73.4847 286.224 73.7236C286.219 73.7243 286.214 73.7254 286.208 73.7271C286.205 73.7291 286.201 73.7315 286.198 73.7341L285.885 72.934C285.827 72.7858 285.736 72.6525 285.62 72.5436C285.504 72.4347 285.365 72.3531 285.213 72.3048C285.061 72.2564 284.9 72.2425 284.742 72.264C284.584 72.2855 284.433 72.3419 284.3 72.4292C284.093 72.5707 283.94 72.779 283.869 73.0192C283.797 73.2594 283.81 73.5169 283.906 73.7487L284.039 74.089C284.031 74.0974 284.024 74.1072 284.02 74.1179C283.876 73.909 283.663 73.7577 283.418 73.6912C283.173 73.6247 282.912 73.6472 282.683 73.7547C282.435 73.8801 282.243 74.0942 282.146 74.3543C282.049 74.6145 282.054 74.9015 282.16 75.1581L282.491 76.0039C282.478 75.9952 282.463 75.9898 282.447 75.988C282.432 75.9863 282.416 75.9882 282.401 75.9937C282.384 76.0014 282.37 76.0137 282.359 76.0293C282.18 75.8785 281.955 75.7907 281.721 75.7795C281.486 75.7683 281.255 75.8343 281.061 75.9674C280.861 76.1114 280.716 76.3185 280.648 76.5553C280.581 76.7921 280.595 77.0448 280.69 77.2723L283.483 84.4081C283.874 85.4064 284.555 86.2654 285.438 86.8751C286.321 87.4847 287.366 87.8173 288.44 87.83C289.365 87.8409 290.259 87.4911 290.931 86.8549C291.602 86.2187 291.999 85.3462 292.036 84.4227L292.081 83.2986Z" fill="#E98862"/>
        <g opacity="0.2">
            <path d="M288.09 78.3195C288.066 78.3288 288.039 78.3283 288.015 78.3181C287.991 78.3079 287.973 78.2887 287.963 78.2648L286.154 73.8557C286.148 73.8436 286.145 73.8304 286.145 73.817C286.144 73.8036 286.146 73.7903 286.151 73.7778C286.156 73.7653 286.164 73.7539 286.173 73.7444C286.182 73.7348 286.194 73.7273 286.206 73.7222C286.219 73.7171 286.232 73.7146 286.245 73.7149C286.259 73.7151 286.272 73.7181 286.284 73.7236C286.296 73.7291 286.307 73.737 286.316 73.7469C286.326 73.7568 286.333 73.7684 286.337 73.7811L288.146 78.1901C288.151 78.2021 288.153 78.215 288.153 78.228C288.153 78.2409 288.151 78.2537 288.146 78.2657C288.141 78.2777 288.133 78.2885 288.124 78.2976C288.115 78.3067 288.104 78.3139 288.092 78.3188L288.09 78.3195Z" fill="#0C0C0C"/>
        </g>
        <g opacity="0.2">
            <path d="M286.164 79.1697C286.14 79.1791 286.113 79.1786 286.089 79.1683C286.065 79.158 286.046 79.1387 286.037 79.1147L284.018 74.1941C284.009 74.17 284.009 74.1432 284.019 74.1195C284.029 74.0957 284.048 74.0768 284.072 74.067C284.096 74.0584 284.123 74.0591 284.146 74.0691C284.17 74.079 284.189 74.0974 284.2 74.1207L286.218 79.0413C286.228 79.0655 286.228 79.0927 286.218 79.1168C286.208 79.1409 286.188 79.1601 286.164 79.17V79.1697Z" fill="#0C0C0C"/>
        </g>
        <g opacity="0.2">
            <path d="M284.083 80.1023C284.059 80.1117 284.032 80.1112 284.008 80.1009C283.984 80.0906 283.966 80.0714 283.956 80.0473L282.346 76.1224C282.336 76.0983 282.336 76.0711 282.346 76.047C282.356 76.0229 282.375 76.0038 282.4 75.9939C282.424 75.984 282.451 75.9841 282.475 75.9942C282.499 76.0043 282.519 76.0236 282.528 76.0478L284.14 79.9717C284.15 79.9959 284.149 80.0231 284.139 80.0472C284.129 80.0713 284.11 80.0904 284.086 80.1004L284.083 80.1023Z" fill="#0C0C0C"/>
        </g>
        <path d="M314.454 93.8764L298.005 119.122C297.406 120.039 296.605 120.808 295.662 121.368C294.261 120.596 292.908 119.739 291.612 118.801C288.849 116.811 286.352 114.477 284.183 111.855L280.728 85.1138L294.555 82.9021L296.132 95.7738L302.449 86.079L314.454 93.8764Z" fill="#367CFF"/>
        <path d="M316.383 73.6664C317.892 73.7664 319.391 73.3616 320.644 72.5159C320.687 72.4868 320.738 72.4706 320.79 72.4693C320.843 72.468 320.894 72.4816 320.939 72.5085C320.984 72.5354 321.02 72.5745 321.044 72.6212C321.067 72.6679 321.077 72.7203 321.071 72.7723C320.97 73.6619 320.53 75.2982 318.66 75.5067C317.453 75.6411 316.578 74.7155 316.137 74.1001C316.107 74.0575 316.089 74.0071 316.086 73.9548C316.084 73.9026 316.096 73.8506 316.122 73.8051C316.147 73.7595 316.186 73.7223 316.232 73.6977C316.278 73.6731 316.331 73.6623 316.383 73.6664Z" fill="white"/>
        <path d="M349.63 106.402C347.199 110.586 344.03 114.296 340.276 117.353C339.404 118.06 338.504 118.733 337.576 119.37L331.151 94.9712L345.62 91.1721L349.63 106.402Z" fill="#367CFF"/>
        <path d="M337.717 119.274C337.671 119.304 337.621 119.338 337.576 119.37C337.531 119.401 337.484 119.433 337.439 119.463L332.542 100.876L332.851 100.795L337.717 119.274Z" fill="#0C0C0C"/>
        <path d="M302.63 112.932C302.59 112.93 302.552 112.914 302.524 112.886C302.496 112.857 302.479 112.82 302.477 112.78L302.161 105.854C302.159 105.812 302.174 105.77 302.203 105.739C302.231 105.708 302.271 105.69 302.313 105.688C302.355 105.686 302.397 105.701 302.428 105.729C302.459 105.758 302.478 105.797 302.48 105.839L302.795 112.766C302.797 112.808 302.782 112.849 302.754 112.88C302.725 112.911 302.686 112.93 302.644 112.932H302.63Z" fill="#0C0C0C"/>
        <path d="M183.629 177.026C206.15 177.026 224.407 158.802 224.407 136.321C224.407 113.84 206.15 95.6152 183.629 95.6152C161.108 95.6152 142.851 113.84 142.851 136.321C142.851 158.802 161.108 177.026 183.629 177.026Z" fill="white"/>
        <path opacity="0.09" d="M224.408 136.32C224.408 144.37 222.016 152.24 217.536 158.934C213.055 165.628 206.686 170.845 199.235 173.926C191.784 177.007 183.585 177.813 175.675 176.242C167.765 174.672 160.499 170.795 154.796 165.102C149.094 159.41 145.21 152.157 143.637 144.261C142.063 136.365 142.871 128.18 145.957 120.743C149.043 113.305 154.27 106.948 160.976 102.475C167.682 98.0021 175.565 95.6148 183.63 95.6148C188.991 95.595 194.302 96.6344 199.259 98.673C204.215 100.712 208.718 103.709 212.509 107.493C216.299 111.277 219.302 115.772 221.344 120.719C223.386 125.667 224.428 130.969 224.408 136.32Z" fill="#367CFF"/>
        <path d="M165.579 112.312C165.579 112.312 165.169 118.457 163.784 120.686C159.797 127.104 158.642 134.324 162.634 138.097C166.627 141.87 192.094 141.922 194.023 133.246C195.646 125.941 192.162 125.156 191.314 119.13C190.93 116.404 189.874 110.687 189.874 110.687" fill="#0A0A0A"/>
        <path d="M187.431 131.973C187.387 131.967 186.9 140.047 177.496 139.344C170.986 138.857 168.665 131.963 168.516 131.963C169.218 131.814 170.4 131.597 170.712 131.431C171.737 130.881 173.006 130.309 173.336 128.322C173.527 127.178 173.203 121.317 173.304 120.159L183.297 122.385C183.157 124.831 182.18 130.506 185.605 131.51C186.173 131.675 186.787 131.828 187.431 131.973Z" fill="#E98862"/>
        <path opacity="0.5" d="M183.435 129.19C183.278 128.687 183.178 128.167 183.134 127.642C183.024 126.443 183.046 125.235 183.2 124.041C181.169 123.768 179.255 122.931 177.677 121.626C177.491 122.311 176.471 125.299 176.754 125.95C177.289 127.178 179.797 129.19 183.435 129.19Z" fill="#0C0C0C"/>
        <path d="M182.143 126.673C178.203 127.054 173.106 125.48 172.05 120.243L171.097 115.517C170.041 110.28 171.941 105.481 176.88 104.489C181.82 103.496 186.369 106.999 187.424 112.237L187.846 114.329C188.252 116.339 189.172 125.994 182.143 126.673Z" fill="#E98862"/>
        <path opacity="0.1" d="M179.638 119.811C180.286 119.734 180.766 119.287 180.709 118.812C180.652 118.337 180.081 118.015 179.433 118.092C178.784 118.169 178.305 118.617 178.362 119.091C178.418 119.566 178.99 119.889 179.638 119.811Z" fill="#0C0C0C"/>
        <path opacity="0.1" d="M186.489 117.912C186.548 118.386 187.119 118.707 187.767 118.632C187.879 118.618 187.99 118.593 188.097 118.557C188.127 117.992 188.129 117.448 188.112 116.945C187.932 116.9 187.745 116.889 187.561 116.913C186.913 116.989 186.433 117.436 186.489 117.912Z" fill="#0C0C0C"/>
        <path opacity="0.5" d="M183.625 119.377H183.634C183.834 119.335 184.032 119.282 184.226 119.219C184.516 119.123 184.895 118.963 184.843 118.701C184.783 118.402 183.315 115.347 183.148 115C183.132 114.971 183.106 114.95 183.075 114.94C183.044 114.93 183.01 114.932 182.981 114.946C182.952 114.96 182.929 114.985 182.917 115.016C182.905 115.046 182.906 115.08 182.918 115.11C183.545 116.412 184.553 118.55 184.594 118.751C184.562 118.845 184.081 119.028 183.584 119.128C183.552 119.135 183.525 119.154 183.507 119.181C183.489 119.207 183.482 119.24 183.487 119.272C183.492 119.304 183.509 119.332 183.535 119.352C183.56 119.372 183.593 119.381 183.625 119.378V119.377Z" fill="#0C0C0C"/>
        <path d="M167.156 117.214L171.584 116.35C174.93 114.952 175.879 109.134 175.879 109.134C175.879 109.134 180.007 113.059 189.874 110.686C189.874 110.686 187.731 96.9356 173.162 101.109C168.464 102.455 165.136 107.235 165.631 113.566C165.977 118.004 167.156 117.214 167.156 117.214Z" fill="#0A0A0A"/>
        <path d="M172.678 121.777C171.177 122.079 169.637 120.72 169.336 119.221C169.035 117.723 170.084 116.652 171.586 116.35L172.562 117.199L173.97 121.518L172.678 121.777Z" fill="#E98862"/>
        <path d="M184.212 112.563C184.588 112.298 185.027 112.137 185.485 112.096C185.716 112.074 185.948 112.087 186.174 112.134C186.402 112.18 186.624 112.255 186.833 112.356L186.84 112.359C186.863 112.369 186.889 112.369 186.912 112.36C186.935 112.351 186.954 112.333 186.965 112.311C186.975 112.288 186.977 112.262 186.969 112.239C186.961 112.215 186.945 112.195 186.923 112.184C186.701 112.067 186.465 111.978 186.22 111.92C185.974 111.86 185.721 111.838 185.468 111.853C184.957 111.881 184.462 112.046 184.036 112.33C184.019 112.34 184.005 112.354 183.994 112.37C183.983 112.386 183.975 112.404 183.971 112.423C183.967 112.443 183.967 112.462 183.971 112.481C183.975 112.501 183.983 112.519 183.994 112.535C184.005 112.551 184.019 112.565 184.035 112.575C184.052 112.586 184.07 112.593 184.09 112.597C184.109 112.6 184.129 112.599 184.148 112.595C184.167 112.59 184.185 112.582 184.201 112.571L184.204 112.568L184.212 112.563Z" fill="#0C0C0C"/>
        <path d="M180.167 113.121C179.664 113.021 179.143 113.058 178.66 113.228C178.421 113.31 178.195 113.428 177.991 113.577C177.788 113.724 177.604 113.896 177.443 114.089C177.427 114.109 177.419 114.133 177.421 114.159C177.422 114.184 177.434 114.207 177.452 114.224C177.471 114.241 177.495 114.25 177.521 114.249C177.546 114.249 177.57 114.238 177.587 114.22L177.592 114.215C177.747 114.041 177.923 113.887 178.116 113.757C178.307 113.627 178.517 113.526 178.738 113.459C179.177 113.321 179.644 113.302 180.093 113.404L180.104 113.406C180.123 113.411 180.142 113.412 180.162 113.41C180.181 113.407 180.2 113.401 180.216 113.391C180.233 113.381 180.248 113.368 180.259 113.352C180.271 113.336 180.279 113.319 180.284 113.3C180.288 113.281 180.289 113.261 180.286 113.242C180.283 113.223 180.276 113.204 180.265 113.188C180.255 113.172 180.242 113.157 180.226 113.146C180.21 113.135 180.192 113.127 180.173 113.123L180.167 113.121Z" fill="#0C0C0C"/>
        <path d="M171.587 116.278C174.564 115.172 175.552 113.12 175.856 111.592C176.053 110.574 176.035 109.525 175.802 108.514L175.71 108.54C175.939 109.538 175.957 110.572 175.762 111.577C175.462 113.079 174.489 115.099 171.554 116.188L171.587 116.278Z" fill="#0C0C0C"/>
        <path d="M209.226 130.363L211.008 124.327C211.047 124.194 211.114 124.071 211.203 123.965C211.292 123.86 211.403 123.774 211.527 123.713C211.652 123.653 211.787 123.618 211.926 123.613C212.064 123.607 212.202 123.631 212.331 123.682C212.566 123.783 212.755 123.967 212.861 124.199C212.968 124.432 212.984 124.695 212.907 124.939L212.525 126.233L215.597 122.713C215.932 122.316 216.598 122.042 217.019 122.446C217.192 122.591 217.31 122.79 217.354 123.011C217.399 123.231 217.367 123.461 217.265 123.661C217.269 123.663 217.273 123.666 217.277 123.669C217.28 123.672 217.282 123.675 217.284 123.678L217.801 123.065C217.896 122.952 218.016 122.861 218.151 122.8C218.287 122.739 218.434 122.708 218.582 122.711C218.731 122.713 218.877 122.749 219.01 122.815C219.143 122.881 219.259 122.976 219.351 123.093C219.491 123.28 219.563 123.509 219.554 123.743C219.546 123.976 219.457 124.199 219.303 124.375L219.084 124.636C219.089 124.646 219.091 124.657 219.092 124.668C219.281 124.526 219.515 124.456 219.751 124.471C219.987 124.485 220.211 124.583 220.381 124.747C220.563 124.932 220.668 125.178 220.675 125.436C220.683 125.695 220.593 125.947 220.422 126.141L219.877 126.789C219.891 126.785 219.906 126.785 219.92 126.788C219.934 126.791 219.948 126.797 219.959 126.807C219.972 126.819 219.981 126.834 219.985 126.851C220.189 126.772 220.414 126.761 220.624 126.822C220.835 126.883 221.019 127.011 221.149 127.186C221.283 127.373 221.349 127.599 221.337 127.828C221.326 128.057 221.237 128.276 221.086 128.448L216.482 133.913C215.838 134.678 214.98 135.233 214.018 135.507C213.056 135.781 212.034 135.762 211.082 135.453C210.262 135.186 209.578 134.611 209.176 133.849C208.774 133.087 208.686 132.199 208.93 131.372L209.226 130.363Z" fill="#E98862"/>
        <g opacity="0.2">
            <path d="M214.239 127.161C214.258 127.176 214.281 127.183 214.305 127.181C214.329 127.179 214.351 127.168 214.367 127.151L217.284 123.8C217.3 123.781 217.308 123.757 217.306 123.733C217.305 123.709 217.293 123.686 217.275 123.67C217.257 123.654 217.232 123.646 217.208 123.648C217.184 123.649 217.161 123.661 217.145 123.679L214.228 127.03C214.22 127.039 214.214 127.05 214.21 127.061C214.206 127.072 214.204 127.085 214.205 127.097C214.206 127.109 214.209 127.12 214.215 127.131C214.22 127.142 214.228 127.152 214.237 127.16L214.239 127.161Z" fill="#0C0C0C"/>
        </g>
        <g opacity="0.2">
            <path d="M215.684 128.486C215.703 128.501 215.726 128.509 215.75 128.507C215.774 128.505 215.796 128.494 215.812 128.476L219.068 124.736C219.075 124.727 219.082 124.717 219.085 124.705C219.089 124.694 219.091 124.682 219.09 124.67C219.089 124.657 219.086 124.646 219.08 124.635C219.075 124.624 219.067 124.615 219.058 124.607C219.04 124.591 219.016 124.584 218.992 124.586C218.967 124.587 218.945 124.598 218.928 124.616L215.675 128.355C215.667 128.365 215.661 128.375 215.657 128.387C215.653 128.398 215.652 128.41 215.653 128.422C215.653 128.434 215.657 128.446 215.662 128.457C215.667 128.468 215.675 128.477 215.684 128.485L215.684 128.486Z" fill="#0C0C0C"/>
        </g>
        <g opacity="0.2">
            <path d="M217.241 129.931C217.26 129.946 217.283 129.953 217.307 129.951C217.331 129.949 217.353 129.938 217.369 129.92L219.966 126.937C219.98 126.919 219.987 126.895 219.985 126.872C219.983 126.848 219.971 126.827 219.954 126.811C219.936 126.796 219.913 126.788 219.889 126.789C219.866 126.79 219.843 126.8 219.827 126.816L217.23 129.8C217.222 129.809 217.216 129.819 217.212 129.831C217.208 129.842 217.206 129.854 217.207 129.866C217.208 129.878 217.211 129.89 217.217 129.901C217.222 129.912 217.23 129.921 217.239 129.929L217.241 129.931Z" fill="#0C0C0C"/>
        </g>
        <path d="M220.074 132.999L213.183 164.206C213.167 164.276 213.151 164.349 213.132 164.419C211.584 166.035 209.907 167.524 208.119 168.87C207.759 169.137 207.399 169.401 207.03 169.655C206.802 169.68 206.572 169.693 206.342 169.693C205.114 169.692 203.908 169.37 202.844 168.757C201.78 168.144 200.897 167.262 200.282 166.201L187.149 143.517L199.276 136.524L203.386 143.622L206.397 129.989L220.074 132.999Z" fill="#F7941D"/>
        <path d="M198.866 147.226C198.824 147.722 198.742 148.605 198.627 149.768C198.054 155.713 196.714 168.962 196.093 175.084C188.252 177.587 179.838 177.672 171.948 175.329H171.945C166.118 173.588 160.756 170.565 156.253 166.484C156.278 161.009 156.199 154.852 155.829 150.893C154.725 139.064 155.769 137.211 157.485 135.499C157.625 135.359 157.771 135.223 157.917 135.089C159.69 133.481 161.915 132.433 165.159 131.994C167.304 131.705 170.531 131.496 170.531 131.496C170.531 131.496 170.805 137.017 177.321 137.322C186.191 137.739 185.599 131.496 185.644 131.496C187.875 131.496 192.841 131.635 195.973 133.227C195.976 133.227 195.976 133.227 195.979 133.23C196.61 133.537 197.183 133.948 197.675 134.447C201.263 138.241 199.493 139.863 198.866 147.226Z" fill="#F7941D"/>
        <path d="M184.945 120.409C183.665 121.059 182.205 121.265 180.795 120.993C180.746 120.984 180.695 120.989 180.649 121.007C180.603 121.026 180.563 121.057 180.534 121.097C180.505 121.137 180.488 121.185 180.485 121.234C180.482 121.284 180.493 121.333 180.517 121.377C180.938 122.116 181.935 123.38 183.645 122.865C184.75 122.532 185.167 121.398 185.322 120.696C185.333 120.648 185.329 120.597 185.312 120.55C185.295 120.504 185.265 120.463 185.225 120.433C185.186 120.403 185.138 120.384 185.089 120.38C185.039 120.376 184.989 120.386 184.945 120.409Z" fill="white"/>
        <path d="M185.025 114.727C185.367 114.727 185.644 114.45 185.644 114.109C185.644 113.768 185.367 113.492 185.025 113.492C184.684 113.492 184.407 113.768 184.407 114.109C184.407 114.45 184.684 114.727 185.025 114.727Z" fill="#0C0C0C"/>
        <path d="M179.081 115.765C179.423 115.765 179.7 115.489 179.7 115.148C179.7 114.807 179.423 114.531 179.081 114.531C178.74 114.531 178.463 114.807 178.463 115.148C178.463 115.489 178.74 115.765 179.081 115.765Z" fill="#0C0C0C"/>
        <path d="M197.498 160.553C197.494 160.554 197.49 160.554 197.486 160.553C197.461 160.55 197.438 160.537 197.423 160.516C197.407 160.496 197.401 160.471 197.404 160.446L198.498 149.45C198.499 149.437 198.503 149.425 198.509 149.414C198.516 149.403 198.524 149.394 198.534 149.386C198.544 149.378 198.556 149.373 198.568 149.37C198.58 149.367 198.593 149.366 198.605 149.368C198.631 149.372 198.653 149.385 198.668 149.405C198.684 149.425 198.69 149.451 198.687 149.476L197.594 160.472C197.59 160.495 197.579 160.516 197.561 160.531C197.543 160.546 197.521 160.554 197.498 160.553Z" fill="#0C0C0C"/>
        <path d="M190.88 160.024L196.856 157.36C196.987 157.301 197.129 157.271 197.273 157.271C197.416 157.27 197.558 157.299 197.69 157.356C197.822 157.414 197.94 157.498 198.038 157.603C198.135 157.708 198.21 157.833 198.256 157.968C198.335 158.221 198.317 158.494 198.205 158.735C198.093 158.975 197.896 159.166 197.651 159.269L196.37 159.841L201.226 159.891C201.767 159.887 202.431 160.227 202.395 160.832C202.397 161.066 202.319 161.293 202.175 161.477C202.03 161.661 201.827 161.79 201.6 161.844C201.601 161.849 201.602 161.854 201.602 161.86C201.601 161.864 201.601 161.868 201.6 161.871L202.432 161.866C202.586 161.865 202.739 161.898 202.878 161.963C203.018 162.028 203.141 162.124 203.239 162.242C203.337 162.361 203.407 162.5 203.444 162.649C203.482 162.798 203.485 162.954 203.455 163.105C203.402 163.341 203.269 163.552 203.078 163.703C202.888 163.853 202.651 163.934 202.408 163.931L202.054 163.933C202.049 163.944 202.043 163.953 202.035 163.961C202.275 164.015 202.488 164.152 202.635 164.348C202.783 164.544 202.856 164.786 202.842 165.031C202.818 165.298 202.694 165.547 202.495 165.727C202.295 165.907 202.035 166.006 201.766 166.003L200.886 166.009C200.899 166.018 200.909 166.029 200.916 166.043C200.923 166.056 200.927 166.071 200.927 166.086C200.926 166.104 200.92 166.122 200.91 166.137C201.111 166.244 201.27 166.414 201.364 166.621C201.459 166.827 201.482 167.059 201.431 167.28C201.373 167.511 201.239 167.716 201.05 167.862C200.861 168.007 200.629 168.085 200.39 168.082L192.965 168.135C191.926 168.142 190.908 167.84 190.043 167.266C189.178 166.693 188.503 165.874 188.107 164.916C187.765 164.089 187.759 163.162 188.091 162.331C188.423 161.501 189.066 160.832 189.884 160.467L190.88 160.024Z" fill="#E98862"/>
        <g opacity="0.2">
            <path d="M196.793 161.818C196.793 161.844 196.803 161.868 196.821 161.886C196.839 161.904 196.863 161.914 196.888 161.914L201.506 161.955C201.532 161.956 201.556 161.946 201.574 161.928C201.592 161.91 201.602 161.886 201.603 161.861C201.603 161.836 201.593 161.811 201.575 161.793C201.557 161.775 201.533 161.765 201.508 161.765L196.889 161.723C196.864 161.723 196.84 161.733 196.822 161.751C196.804 161.769 196.794 161.793 196.794 161.818H196.793Z" fill="#0C0C0C"/>
        </g>
        <g opacity="0.2">
            <path d="M196.719 163.852C196.719 163.877 196.729 163.901 196.747 163.919C196.764 163.937 196.789 163.947 196.814 163.947L201.967 163.993C201.993 163.993 202.017 163.983 202.035 163.965C202.053 163.948 202.063 163.923 202.063 163.898C202.062 163.873 202.052 163.849 202.034 163.831C202.016 163.814 201.992 163.803 201.967 163.803L196.814 163.756C196.788 163.756 196.764 163.766 196.746 163.784C196.728 163.802 196.719 163.826 196.719 163.852Z" fill="#0C0C0C"/>
        </g>
        <g opacity="0.2">
            <path d="M196.625 166.052C196.625 166.077 196.635 166.101 196.653 166.119C196.671 166.137 196.695 166.147 196.72 166.147L200.831 166.184C200.857 166.184 200.881 166.174 200.899 166.156C200.917 166.138 200.927 166.114 200.927 166.089C200.927 166.063 200.917 166.039 200.899 166.021C200.881 166.003 200.857 165.993 200.831 165.993L196.72 165.957C196.695 165.957 196.671 165.967 196.653 165.984C196.635 166.002 196.625 166.027 196.625 166.052V166.052Z" fill="#0C0C0C"/>
        </g>
        <path d="M192.592 170.646L171.948 175.329H171.944C166.117 173.588 160.755 170.566 156.253 166.484C155.769 166.045 155.296 165.596 154.833 165.136C154.027 164.333 153.255 163.497 152.519 162.63L155.409 139.423C155.724 137.552 156.771 135.883 158.319 134.783C159.867 133.683 161.79 133.241 163.664 133.556C165.538 133.871 167.21 134.916 168.312 136.461C169.415 138.007 169.857 139.926 169.541 141.796L167.714 163.586L190.733 158.385L192.592 170.646Z" fill="#F7941D"/>
        <path d="M163.058 164.442C163.045 164.443 163.033 164.441 163.021 164.437C163.009 164.433 162.998 164.427 162.988 164.419C162.979 164.411 162.971 164.401 162.965 164.39C162.96 164.378 162.956 164.366 162.955 164.354C162.954 164.341 162.956 164.329 162.96 164.317C162.964 164.305 162.97 164.294 162.978 164.284C162.986 164.275 162.996 164.267 163.008 164.261C163.019 164.256 163.031 164.252 163.044 164.251L167.659 163.266C167.671 163.264 167.684 163.265 167.696 163.268C167.708 163.271 167.72 163.276 167.73 163.284C167.74 163.291 167.749 163.301 167.755 163.311C167.762 163.322 167.766 163.334 167.768 163.346C167.77 163.359 167.769 163.371 167.766 163.383C167.763 163.396 167.757 163.407 167.75 163.417C167.743 163.427 167.733 163.436 167.722 163.442C167.712 163.449 167.7 163.453 167.687 163.455L163.07 164.44C163.066 164.441 163.062 164.441 163.058 164.442Z" fill="#0C0C0C"/>
        <path d="M192.592 170.646C192.597 170.67 192.593 170.696 192.58 170.717C192.567 170.738 192.546 170.754 192.522 170.76L172.467 175.479C172.339 175.443 172.215 175.409 172.091 175.37L192.382 170.601L190.574 158.528L167.692 163.455C167.677 163.458 167.662 163.457 167.648 163.453C167.634 163.448 167.62 163.441 167.609 163.43C167.6 163.419 167.593 163.406 167.588 163.392C167.584 163.377 167.583 163.363 167.584 163.348L168.867 150.896C168.869 150.884 168.874 150.872 168.88 150.861C168.887 150.851 168.896 150.842 168.907 150.835C168.917 150.828 168.929 150.823 168.941 150.82C168.953 150.817 168.966 150.817 168.978 150.819C169.003 150.823 169.025 150.837 169.04 150.857C169.055 150.878 169.061 150.903 169.058 150.928L167.794 163.252L190.616 158.315C190.628 158.311 190.641 158.311 190.654 158.313C190.666 158.315 190.678 158.32 190.689 158.328C190.7 158.334 190.709 158.342 190.717 158.351C190.725 158.361 190.73 158.373 190.733 158.385L192.592 170.646Z" fill="#0C0C0C"/>
        <path d="M37.3911 223.926C58.0416 223.926 74.7821 207.215 74.7821 186.601C74.7821 165.988 58.0416 149.277 37.3911 149.277C16.7406 149.277 0 165.988 0 186.601C0 207.215 16.7406 223.926 37.3911 223.926Z" fill="white"/>
        <path opacity="0.09" d="M37.3911 223.926C58.0416 223.926 74.7821 207.215 74.7821 186.601C74.7821 165.988 58.0416 149.277 37.3911 149.277C16.7406 149.277 0 165.988 0 186.601C0 207.215 16.7406 223.926 37.3911 223.926Z" fill="#367CFF"/>
        <path d="M27.0942 165.431C27.0942 165.431 27.4994 176.672 35.0159 177.189L36.2891 162.365L27.0942 165.431Z" fill="#0A0A0A"/>
        <path d="M28.5418 179.485C31.001 179.485 32.9947 177.495 32.9947 175.04C32.9947 172.585 31.001 170.595 28.5418 170.595C26.0825 170.595 24.0889 172.585 24.0889 175.04C24.0889 177.495 26.0825 179.485 28.5418 179.485Z" fill="#0A0A0A"/>
        <path d="M45.965 182.406C45.9252 182.401 45.4853 189.69 37.0022 189.055C31.1294 188.616 29.0357 182.397 28.9014 182.397C29.5725 182.285 30.2345 182.125 30.8821 181.917C31.8067 181.421 32.951 180.905 33.2489 179.113C33.4208 178.079 33.1296 172.793 33.219 171.748L42.2337 173.757C42.1064 175.964 41.226 181.083 44.3159 181.989C44.8297 182.138 45.3835 182.276 45.965 182.406Z" fill="#E98862"/>
        <path opacity="0.5" d="M42.3594 179.896C42.2181 179.442 42.1272 178.973 42.0882 178.498C41.9893 177.417 42.009 176.328 42.1471 175.25C40.3149 175.003 38.5888 174.248 37.1649 173.071C36.9975 173.688 36.077 176.385 36.3319 176.971C36.8138 178.082 39.0778 179.896 42.3594 179.896Z" fill="#0C0C0C"/>
        <path d="M40.9472 177.932C37.3769 177.978 32.9135 176.18 32.3603 171.392L31.8612 167.071C31.3077 162.284 33.3782 158.111 37.8941 157.592C42.4097 157.072 46.2334 160.565 46.7869 165.352L47.0078 167.265C47.2201 169.103 47.3175 177.852 40.9472 177.932Z" fill="#E98862"/>
        <path d="M45.7137 167.136C46.0229 167.136 46.2736 166.886 46.2736 166.577C46.2736 166.269 46.0229 166.019 45.7137 166.019C45.4045 166.019 45.1538 166.269 45.1538 166.577C45.1538 166.886 45.4045 167.136 45.7137 167.136Z" fill="#0C0C0C"/>
        <path d="M39.991 167.79C40.3002 167.79 40.5509 167.539 40.5509 167.231C40.5509 166.922 40.3002 166.672 39.991 166.672C39.6818 166.672 39.4312 166.922 39.4312 167.231C39.4312 167.539 39.6818 167.79 39.991 167.79Z" fill="#0C0C0C"/>
        <path opacity="0.5" d="M42.8307 171.486H42.8396C43.0226 171.463 43.2042 171.431 43.3836 171.389C43.6516 171.324 44.0049 171.209 43.9772 170.97C43.9454 170.697 42.8571 167.84 42.733 167.515C42.7276 167.501 42.7195 167.488 42.7092 167.477C42.6988 167.466 42.6864 167.458 42.6727 167.451C42.659 167.445 42.6441 167.442 42.6291 167.441C42.614 167.441 42.599 167.444 42.585 167.449C42.5709 167.454 42.558 167.462 42.5471 167.473C42.5362 167.483 42.5274 167.495 42.5212 167.509C42.5151 167.523 42.5117 167.538 42.5113 167.553C42.5109 167.568 42.5134 167.583 42.5188 167.597C42.9832 168.813 43.7283 170.812 43.7493 170.996C43.4628 171.157 43.1418 171.247 42.8132 171.259C42.7829 171.261 42.7547 171.275 42.735 171.298C42.7152 171.321 42.7054 171.351 42.7077 171.382C42.71 171.412 42.7243 171.44 42.7473 171.46C42.7704 171.479 42.8004 171.489 42.8307 171.487V171.486Z" fill="#0C0C0C"/>
        <path opacity="0.5" d="M42.0239 173.478C42.7573 173.436 43.4707 173.223 44.1065 172.856C44.1315 172.84 44.1496 172.816 44.157 172.787C44.1645 172.759 44.1607 172.728 44.1464 172.703C44.1321 172.677 44.1085 172.658 44.0804 172.649C44.0523 172.64 44.0219 172.642 43.9954 172.655C42.6223 173.414 41.309 173.457 40.1981 172.782C40.1757 172.768 40.1526 172.755 40.1288 172.743C40.1012 172.732 40.0706 172.733 40.0433 172.744C40.016 172.755 39.9941 172.776 39.9821 172.803C39.9701 172.83 39.9689 172.861 39.9789 172.888C39.9888 172.916 40.0091 172.939 40.0355 172.952C40.0441 172.957 40.0587 172.966 40.0788 172.978C40.6628 173.334 41.3401 173.508 42.0239 173.478Z" fill="#0C0C0C"/>
        <path d="M28.1898 168.299L32.2363 167.857C35.3489 166.853 36.6421 161.693 36.6421 161.693C36.6421 161.693 39.4313 164.859 47.6967 163.413C47.6967 163.413 47.3765 152.776 34.8059 154.274C30.429 154.796 27.1287 159.177 27.0946 164.906C27.0711 168.921 28.1898 168.299 28.1898 168.299Z" fill="#0A0A0A"/>
        <path d="M32.8095 172.818C31.437 172.977 30.1553 171.639 29.9971 170.269C29.8389 168.899 30.8638 168.015 32.2363 167.857L33.0495 168.694L33.9894 172.682L32.8095 172.818Z" fill="#E98862"/>
        <path d="M43.7334 165.183C44.1382 164.959 44.5956 164.848 45.0581 164.861C45.2864 164.866 45.5127 164.906 45.7294 164.978C45.9446 165.049 46.15 165.146 46.3408 165.268C46.3599 165.28 46.3736 165.299 46.379 165.321C46.3844 165.343 46.3811 165.366 46.3698 165.386C46.3586 165.405 46.3401 165.42 46.3184 165.426C46.2967 165.433 46.2734 165.43 46.2533 165.42L46.2476 165.417C46.0668 165.31 45.8732 165.226 45.6714 165.167C45.4716 165.107 45.2638 165.078 45.0552 165.081C44.6402 165.083 44.2331 165.194 43.8753 165.404L43.8667 165.41C43.8519 165.419 43.8354 165.426 43.8179 165.429C43.8005 165.432 43.7827 165.432 43.7654 165.428C43.7482 165.424 43.7319 165.417 43.7175 165.407C43.7031 165.396 43.691 165.383 43.6818 165.368C43.6726 165.353 43.6665 165.336 43.664 165.319C43.6614 165.301 43.6624 165.284 43.6669 165.266C43.6714 165.249 43.6793 165.233 43.6901 165.219C43.7009 165.205 43.7144 165.194 43.7299 165.185L43.7334 165.183Z" fill="#0C0C0C"/>
        <path d="M40.1068 165.849C39.7111 165.724 39.2892 165.706 38.8842 165.797C38.6802 165.841 38.4842 165.916 38.3027 166.019C38.1193 166.121 37.9495 166.246 37.7972 166.391L37.7925 166.395C37.7751 166.408 37.7537 166.414 37.7323 166.412C37.7108 166.41 37.6908 166.401 37.6761 166.385C37.6614 166.369 37.6529 166.349 37.6524 166.327C37.6518 166.306 37.6592 166.285 37.6731 166.268C37.8318 166.107 38.0101 165.966 38.204 165.849C38.3991 165.731 38.6109 165.642 38.8323 165.586C39.2802 165.47 39.751 165.476 40.1956 165.604C40.2127 165.608 40.2289 165.616 40.243 165.627C40.257 165.638 40.2688 165.651 40.2776 165.667C40.2863 165.682 40.2918 165.699 40.2939 165.717C40.2959 165.734 40.2943 165.752 40.2892 165.769C40.2842 165.786 40.2757 165.802 40.2644 165.815C40.2531 165.829 40.2391 165.84 40.2234 165.848C40.2076 165.856 40.1904 165.861 40.1727 165.863C40.155 165.864 40.1372 165.862 40.1204 165.856H40.1169L40.1068 165.849Z" fill="#0C0C0C"/>
        <path opacity="0.52" d="M42.1002 174.561C42.2329 174.555 42.365 174.539 42.4949 174.511C42.5238 174.504 42.5488 174.486 42.5646 174.46C42.5804 174.435 42.5858 174.405 42.5796 174.376C42.5735 174.347 42.5563 174.321 42.5316 174.305C42.507 174.288 42.4768 174.281 42.4475 174.287C42.2446 174.346 42.0314 174.361 41.8222 174.331C41.613 174.302 41.4125 174.228 41.2341 174.115C41.2106 174.095 41.1803 174.086 41.1501 174.089C41.1198 174.092 41.092 174.107 41.0728 174.131C41.0535 174.154 41.0444 174.185 41.0475 174.215C41.0505 174.245 41.0654 174.273 41.089 174.292C41.3848 174.496 41.7421 174.591 42.1002 174.561Z" fill="#0C0C0C"/>
        <path opacity="0.1" d="M39.2154 171.575C39.8041 171.554 40.2691 171.188 40.254 170.757C40.2389 170.326 39.7494 169.993 39.1607 170.014C38.572 170.034 38.107 170.4 38.1221 170.831C38.1372 171.262 38.6267 171.595 39.2154 171.575Z" fill="#0C0C0C"/>
        <path opacity="0.1" d="M45.5159 170.385C45.5325 170.815 46.0217 171.147 46.6105 171.128C46.7123 171.124 46.8134 171.11 46.9123 171.085C46.982 170.58 47.0246 170.091 47.0478 169.637C46.8893 169.583 46.7221 169.559 46.5548 169.567C45.9672 169.586 45.5025 169.951 45.5159 170.385Z" fill="#0C0C0C"/>
        <path d="M58.6344 190.084C58.609 192.629 57.7337 195.663 57.4217 199.33C57.339 200.308 55.2347 203.139 54.9292 206.288C54.544 210.298 55.4006 216.55 55.5152 219.254C49.6007 222.521 42.9102 224.128 36.1544 223.904C29.3986 223.681 22.8295 221.634 17.145 217.983C16.9922 211.038 16.8108 202.462 16.5785 200.407C15.8241 193.62 16.0278 189.328 17.1164 187.32C18.8956 184.041 22.0626 183.04 25.3761 182.589C27.4004 182.315 30.4401 182.122 30.4401 182.122C30.4401 182.122 30.6979 187.323 36.8409 187.612C45.2025 188.006 44.6455 182.122 44.6869 182.122C47.7202 182.122 53.4685 182.846 55.6711 184.346C58.0074 185.931 58.6631 187.812 58.6344 190.084Z" fill="#4DA258"/>
        <path d="M29.7459 194.043L18.4019 218.755C14.0464 216.188 10.2568 212.767 7.26172 208.699L16.7245 188.084L29.7459 194.043Z" fill="#4DA258"/>
        <path d="M67.7978 208.325C65.5755 211.42 62.8933 214.158 59.8437 216.446C58.84 217.202 57.7978 217.906 56.7213 218.556L45.0781 193.004L58.1154 187.082L67.7978 208.325Z" fill="#4DA258"/>
        <path d="M115.208 77.7216C136.708 77.7216 154.138 60.323 154.138 38.8608C154.138 17.3986 136.708 0 115.208 0C93.7074 0 76.2778 17.3986 76.2778 38.8608C76.2778 60.323 93.7074 77.7216 115.208 77.7216Z" fill="white"/>
        <path opacity="0.09" d="M115.208 77.7216C136.708 77.7216 154.138 60.323 154.138 38.8608C154.138 17.3986 136.708 0 115.208 0C93.7074 0 76.2778 17.3986 76.2778 38.8608C76.2778 60.323 93.7074 77.7216 115.208 77.7216Z" fill="#367CFF"/>
        <path d="M122.735 15.5902C122.735 15.5902 125.2 12.9232 125.01 7.84335C124.862 3.91022 121.77 7.03442 121.77 7.03442C121.77 7.03442 121.636 4.20348 119.669 4.84211C117.702 5.48074 117.098 8.58937 117.098 8.58937" fill="#0C0C0C"/>
        <path d="M109.298 7.05029C109.298 7.05029 99.4799 9.93048 105.555 22.8194L106.451 22.7183L108.271 22.5137" fill="#0C0C0C"/>
        <path d="M123.211 36.1889C123.166 36.1832 122.67 44.4053 113.101 43.6873C106.477 43.1919 104.115 36.1762 103.963 36.1762C104.677 36.0246 105.56 35.7949 105.911 35.7158C106.675 35.5387 107.367 35.1334 107.896 34.5539C108.424 33.9743 108.763 33.248 108.867 32.4715C109.061 31.3061 108.732 25.3436 108.833 24.1646L119.002 26.4299C118.86 28.9206 117.865 34.694 121.351 35.7158C121.931 35.8852 122.556 36.0408 123.211 36.1889Z" fill="#E98862"/>
        <path opacity="0.52" d="M119.144 33.3567C118.985 32.8442 118.883 32.316 118.839 31.7814C118.727 30.5613 118.749 29.3326 118.905 28.1174C116.838 27.8389 114.891 26.9873 113.285 25.6594C113.096 26.3556 112.058 29.3972 112.345 30.0587C112.889 31.3092 115.443 33.3567 119.144 33.3567Z" fill="#0C0C0C"/>
        <path d="M117.485 30.7391C113.474 31.099 108.297 29.4631 107.259 24.1265L106.322 19.3114C105.284 13.9736 107.251 9.10444 112.284 8.12902C117.318 7.15328 121.922 10.7503 122.96 16.0868L123.374 18.2184C123.503 18.9528 123.583 19.6951 123.611 20.4403C123.701 22.4102 123.83 25.4041 122.881 27.6174C121.986 29.7074 120.047 30.5093 117.485 30.7391Z" fill="#E98862"/>
        <path opacity="0.5" d="M118.091 25.4632C118.825 25.4494 119.546 25.2635 120.196 24.9205C120.21 24.9141 120.223 24.9049 120.233 24.8935C120.244 24.8821 120.252 24.8687 120.257 24.8541C120.262 24.8396 120.264 24.8241 120.263 24.8086C120.262 24.7932 120.258 24.7781 120.251 24.7643C120.244 24.7505 120.234 24.7382 120.222 24.7283C120.211 24.7183 120.197 24.7108 120.182 24.7063C120.167 24.7018 120.152 24.7003 120.136 24.7019C120.121 24.7036 120.106 24.7083 120.092 24.7159C118.692 25.4215 117.378 25.4149 116.293 24.6987C116.271 24.6836 116.249 24.6696 116.225 24.6568C116.212 24.6501 116.197 24.6462 116.182 24.6453C116.167 24.6443 116.152 24.6463 116.138 24.6511C116.124 24.656 116.11 24.6636 116.099 24.6735C116.088 24.6835 116.078 24.6955 116.072 24.709C116.065 24.7225 116.061 24.7372 116.06 24.7522C116.059 24.7672 116.061 24.7823 116.066 24.7965C116.071 24.8107 116.079 24.8239 116.089 24.8352C116.099 24.8465 116.111 24.8557 116.124 24.8623C116.133 24.8671 116.147 24.8766 116.167 24.8897C116.736 25.2678 117.407 25.4675 118.091 25.4632Z" fill="#0C0C0C"/>
        <path opacity="0.52" d="M118.126 26.5487C118.259 26.5483 118.392 26.5367 118.522 26.5138C118.537 26.5113 118.551 26.5058 118.564 26.4978C118.577 26.4898 118.588 26.4794 118.597 26.4672C118.605 26.4549 118.612 26.441 118.615 26.4264C118.618 26.4117 118.619 26.3966 118.616 26.3818C118.614 26.367 118.608 26.3528 118.6 26.3401C118.592 26.3273 118.582 26.3163 118.569 26.3076C118.557 26.2989 118.543 26.2928 118.529 26.2894C118.514 26.2861 118.499 26.2857 118.484 26.2882C118.279 26.3395 118.065 26.3465 117.857 26.3089C117.649 26.2714 117.452 26.19 117.278 26.0702C117.255 26.0509 117.225 26.0413 117.196 26.0435C117.166 26.0457 117.138 26.0595 117.118 26.082C117.098 26.1044 117.088 26.1337 117.09 26.1636C117.091 26.1935 117.104 26.2216 117.126 26.2418C117.414 26.4565 117.767 26.565 118.126 26.5487Z" fill="#0C0C0C"/>
        <path d="M121.755 19.563C122.104 19.563 122.387 19.2808 122.387 18.9326C122.387 18.5845 122.104 18.3022 121.755 18.3022C121.406 18.3022 121.124 18.5845 121.124 18.9326C121.124 19.2808 121.406 19.563 121.755 19.563Z" fill="#0C0C0C"/>
        <path d="M115.614 20.2793C115.963 20.2793 116.246 19.9971 116.246 19.6489C116.246 19.3008 115.963 19.0186 115.614 19.0186C115.266 19.0186 114.983 19.3008 114.983 19.6489C114.983 19.9971 115.266 20.2793 115.614 20.2793Z" fill="#0C0C0C"/>
        <path d="M107.888 25.6915C106.358 25.9879 104.8 24.5947 104.503 23.0677C104.206 21.5407 105.283 20.4585 106.812 20.1621L107.799 21.0324L109.202 25.4367L107.888 25.6915Z" fill="#E98862"/>
        <path d="M108.967 22.9566C108.967 22.9566 108.113 15.2947 110.327 14.412C111.802 13.8239 115.908 15.321 119.229 14.045C120.682 13.4865 122.177 13.6002 122.451 14.2837C122.56 14.554 122.765 10.3477 119.853 7.70957C117.535 5.6094 111.271 6.02975 108.623 7.33434C101.29 10.9466 106.557 20.5518 106.557 20.5518L107.375 23.0987L108.967 22.9566Z" fill="#0C0C0C"/>
        <g opacity="0.52">
            <path d="M119.033 23.5657H119.042C119.536 23.4704 120.353 23.2584 120.284 22.8902C120.225 22.5849 118.756 19.4508 118.589 19.0946C118.582 19.0795 118.572 19.0659 118.56 19.0546C118.547 19.0433 118.533 19.0345 118.517 19.0288C118.501 19.0231 118.484 19.0206 118.468 19.0214C118.451 19.0221 118.434 19.0262 118.419 19.0333C118.404 19.0404 118.39 19.0505 118.379 19.0628C118.368 19.0752 118.359 19.0897 118.353 19.1054C118.348 19.1212 118.345 19.1379 118.346 19.1547C118.347 19.1714 118.351 19.1878 118.358 19.203C119.009 20.5908 119.993 22.7297 120.033 22.9379C120.001 23.0332 119.507 23.2171 118.996 23.3147C118.963 23.3197 118.932 23.3379 118.912 23.3653C118.891 23.3926 118.883 23.427 118.888 23.4607C118.893 23.4944 118.911 23.5247 118.939 23.545C118.966 23.5653 119 23.5739 119.034 23.5689L119.033 23.5657Z" fill="#0C0C0C"/>
        </g>
        <path d="M119.381 15.8863C119.875 15.6501 120.423 15.5513 120.968 15.6004C121.236 15.6229 121.498 15.6852 121.747 15.7853C121.993 15.8829 122.226 16.011 122.439 16.1666C122.479 16.194 122.506 16.2356 122.516 16.2828C122.525 16.33 122.516 16.379 122.49 16.4196C122.464 16.4602 122.423 16.4891 122.377 16.5002C122.33 16.5114 122.28 16.504 122.239 16.4795L122.224 16.4745C122.031 16.351 121.822 16.2522 121.604 16.1806C121.389 16.109 121.165 16.0703 120.938 16.0659C120.492 16.0534 120.05 16.159 119.658 16.3718L119.642 16.381C119.61 16.3992 119.575 16.411 119.538 16.4156C119.502 16.4202 119.465 16.4176 119.429 16.4079C119.394 16.3983 119.361 16.3817 119.332 16.3593C119.303 16.3368 119.278 16.3088 119.26 16.277C119.242 16.2451 119.23 16.21 119.225 16.1736C119.221 16.1372 119.223 16.1003 119.233 16.0649C119.243 16.0295 119.259 15.9964 119.282 15.9674C119.304 15.9384 119.332 15.9141 119.364 15.8959L119.381 15.8863Z" fill="#0C0C0C"/>
        <path d="M115.761 16.863C115.331 16.7429 114.877 16.7382 114.445 16.8493C114.225 16.9039 114.015 16.9914 113.822 17.1089C113.624 17.2272 113.442 17.3697 113.28 17.5331L113.27 17.5433C113.235 17.577 113.189 17.5958 113.14 17.5956C113.092 17.5954 113.045 17.5764 113.01 17.5424C112.976 17.5085 112.956 17.4624 112.955 17.4139C112.954 17.3655 112.971 17.3185 113.005 17.283C113.178 17.0834 113.376 16.9065 113.594 16.7566C113.814 16.6036 114.056 16.4844 114.312 16.4029C114.568 16.3188 114.834 16.2701 115.103 16.2581C115.378 16.2429 115.654 16.2669 115.923 16.3292C115.995 16.3461 116.058 16.3909 116.097 16.4538C116.136 16.5167 116.149 16.5926 116.132 16.6647C116.115 16.7369 116.07 16.7994 116.007 16.8385C115.944 16.8775 115.868 16.89 115.796 16.8732L115.779 16.8687L115.761 16.863Z" fill="#0C0C0C"/>
        <path d="M117.697 10.81C118.789 10.3683 119.146 8.70968 118.495 7.10536C117.843 5.50103 116.43 4.55855 115.338 5.00026C114.246 5.44197 113.889 7.10061 114.541 8.70494C115.192 10.3093 116.605 11.2517 117.697 10.81Z" fill="#0C0C0C"/>
        <path d="M136.436 44.6852C136.474 47.3192 135.443 50.2804 135.099 54.2901C135.029 55.1035 134.863 56.8955 134.644 59.2308C134.284 63.0975 133.775 68.4448 133.329 73.2647C126.957 76.6036 119.783 78.1162 112.602 77.635C105.421 77.1539 98.5135 74.6977 92.6451 70.5386C92.5051 70.4338 92.365 70.3321 92.225 70.2336C91.8526 64.7846 91.4133 59.0655 91.0123 55.453C90.2579 48.7077 89.2298 45.3493 89.8059 43.0807C89.8521 42.8875 89.9138 42.6984 89.9906 42.5152C91.6489 38.4991 96.9293 36.7071 100.507 36.2242C102.69 35.9287 105.975 35.7158 105.975 35.7158C105.975 35.7158 106.252 41.3332 112.882 41.6446C121.909 42.0703 121.307 35.7158 121.352 35.7158C122.813 35.7158 130.773 36.777 132.763 38.0733C133.096 38.2895 133.415 38.5272 133.718 38.7851C134.582 39.5047 135.274 40.4078 135.745 41.4285C136.215 42.4492 136.451 43.5618 136.436 44.6852Z" fill="#383838"/>
        <path d="M103.2 48.7585L92.6451 70.5387C92.5051 70.4338 92.365 70.3322 92.225 70.2337C88.1335 67.2389 84.6635 63.4794 82.0078 59.1641L89.806 43.0808L90.1147 42.4421L103.2 48.7585Z" fill="#383838"/>
        <path d="M102.181 51.2654L92.5813 70.491C92.5177 70.4433 92.4572 70.3989 92.3936 70.3576L101.981 51.1669C101.994 51.1402 102.018 51.1199 102.047 51.1104C102.075 51.1009 102.106 51.1029 102.133 51.116C102.159 51.1295 102.179 51.1528 102.188 51.1808C102.197 51.2088 102.195 51.2393 102.181 51.2654Z" fill="white"/>
        <path d="M150.854 54.5061C148.941 58.8347 146.254 62.7795 142.926 66.1475L134.644 59.2306L124.124 50.4423L133.717 38.785L133.746 38.75L150.854 54.5061Z" fill="#383838"/>
        <path d="M134.772 59.3157C134.799 59.3144 134.824 59.3033 134.844 59.2845C134.863 59.2658 134.875 59.2406 134.877 59.2137L135.424 52.8179C135.427 52.7883 135.417 52.759 135.398 52.7363C135.379 52.7136 135.352 52.6994 135.322 52.6968C135.293 52.6947 135.264 52.7041 135.241 52.7231C135.218 52.7421 135.204 52.7692 135.201 52.7985L134.655 59.1947C134.652 59.2241 134.662 59.2534 134.681 59.276C134.7 59.2986 134.727 59.3128 134.757 59.3154L134.772 59.3157Z" fill="white"/>
        <path d="M298.519 246C319.026 246 335.65 229.406 335.65 208.935C335.65 188.465 319.026 171.87 298.519 171.87C278.012 171.87 261.388 188.465 261.388 208.935C261.388 229.406 278.012 246 298.519 246Z" fill="white"/>
        <path opacity="0.09" d="M261.387 208.934C261.387 216.265 263.565 223.431 267.645 229.526C271.725 235.621 277.524 240.372 284.308 243.177C291.093 245.983 298.559 246.717 305.761 245.287C312.964 243.856 319.58 240.326 324.773 235.143C329.966 229.959 333.502 223.355 334.935 216.165C336.367 208.975 335.632 201.523 332.822 194.75C330.012 187.978 325.252 182.189 319.146 178.116C313.04 174.044 305.862 171.87 298.518 171.87C293.637 171.852 288.8 172.798 284.288 174.655C279.775 176.511 275.674 179.24 272.223 182.686C268.771 186.131 266.037 190.224 264.177 194.729C262.318 199.234 261.37 204.062 261.387 208.934Z" fill="#367CFF"/>
        <path d="M315.367 188.481C314.774 195.344 315.324 197.671 318.179 201.604C320.587 204.919 306.886 202.101 300.825 201.023L306.174 185.417C306.174 185.417 315.575 186.072 315.367 188.481Z" fill="#0A0A0A"/>
        <path d="M294.454 185.626C292.665 192.279 292.866 194.337 289.366 197.831C286.466 200.726 297.771 201.315 303.837 202.367L304.144 185.877C304.144 185.877 295.082 183.29 294.454 185.626Z" fill="#0A0A0A"/>
        <path d="M295.057 204.976C295.096 204.971 295.541 212.329 304.103 211.687C310.031 211.244 312.144 204.966 312.28 204.966C311.603 204.854 310.935 204.692 310.281 204.482C309.348 203.981 308.193 203.46 307.892 201.651C307.718 200.608 308.012 195.273 307.922 194.216L298.823 196.244C298.95 198.472 299.842 203.638 296.722 204.553C296.202 204.705 295.643 204.844 295.057 204.976Z" fill="#E98862"/>
        <path opacity="0.5" d="M298.695 202.442C298.838 201.984 298.93 201.511 298.969 201.033C299.069 199.941 299.049 198.841 298.91 197.754C300.759 197.505 302.502 196.743 303.939 195.555C304.108 196.178 305.037 198.899 304.78 199.491C304.293 200.61 302.008 202.442 298.695 202.442Z" fill="#0C0C0C"/>
        <path d="M299.872 200.15C303.46 200.496 308.101 199.064 309.063 194.295L309.93 189.992C310.892 185.224 309.162 180.854 304.664 179.95C300.166 179.046 296.025 182.238 295.063 187.005L294.679 188.912C294.31 190.74 293.472 199.532 299.872 200.15Z" fill="#E98862"/>
        <path d="M314.272 191.351L310.225 190.908C302.308 189.455 300.368 183.077 300.368 183.077C300.368 183.077 297.047 187.503 294.227 186.487C294.227 186.487 295.136 175.814 307.655 177.69C312.574 178.427 315.367 182.497 315.367 187.957C315.367 191.971 314.272 191.351 314.272 191.351Z" fill="#0A0A0A"/>
        <path opacity="0.1" d="M303.313 193.244C303.365 192.812 302.928 192.405 302.338 192.334C301.747 192.264 301.227 192.557 301.175 192.99C301.123 193.422 301.56 193.829 302.15 193.9C302.741 193.97 303.261 193.677 303.313 193.244Z" fill="#0C0C0C"/>
        <path opacity="0.1" d="M295.916 192.173C295.863 192.605 295.343 192.898 294.752 192.828C294.65 192.816 294.55 192.793 294.453 192.76C294.425 192.246 294.424 191.751 294.439 191.292C294.603 191.251 294.773 191.242 294.94 191.263C295.529 191.333 295.966 191.74 295.916 192.173Z" fill="#0C0C0C"/>
        <path opacity="0.5" d="M298.523 193.507H298.514C298.332 193.469 298.152 193.421 297.975 193.363C297.711 193.275 297.366 193.131 297.414 192.892C297.468 192.62 298.805 189.838 298.957 189.522C298.964 189.508 298.973 189.495 298.984 189.485C298.995 189.474 299.009 189.466 299.023 189.461C299.038 189.455 299.053 189.453 299.069 189.454C299.084 189.454 299.099 189.458 299.113 189.465C299.127 189.472 299.14 189.481 299.15 189.493C299.16 189.504 299.168 189.518 299.173 189.532C299.178 189.547 299.18 189.563 299.179 189.578C299.178 189.593 299.173 189.609 299.166 189.622C298.596 190.807 297.678 192.755 297.641 192.938C297.915 193.124 298.23 193.241 298.56 193.281C298.589 193.287 298.615 193.304 298.631 193.328C298.648 193.353 298.655 193.383 298.65 193.412C298.646 193.441 298.63 193.468 298.606 193.486C298.583 193.504 298.553 193.512 298.523 193.509V193.507Z" fill="#0C0C0C"/>
        <path d="M308.49 195.692C309.857 195.967 311.259 194.73 311.535 193.365C311.81 192.001 310.853 191.025 309.486 190.751L308.598 191.524L307.315 195.456L308.49 195.692Z" fill="#E98862"/>
        <path d="M297.988 187.302C297.82 187.183 297.636 187.087 297.441 187.016C297.244 186.943 297.038 186.896 296.829 186.879C296.619 186.859 296.408 186.871 296.202 186.913C295.994 186.956 295.792 187.024 295.601 187.116L295.595 187.119C295.575 187.126 295.552 187.126 295.532 187.118C295.511 187.109 295.495 187.094 295.486 187.074C295.476 187.054 295.474 187.031 295.481 187.01C295.487 186.989 295.501 186.971 295.52 186.96C295.722 186.854 295.937 186.773 296.159 186.72C296.384 186.665 296.615 186.645 296.845 186.659C297.311 186.685 297.762 186.835 298.15 187.094C298.178 187.114 298.197 187.145 298.203 187.179C298.209 187.213 298.201 187.248 298.182 187.277C298.162 187.305 298.133 187.325 298.099 187.332C298.065 187.339 298.029 187.332 298 187.314L297.997 187.312L297.988 187.302Z" fill="#0C0C0C"/>
        <path d="M301.672 187.811C302.13 187.72 302.603 187.753 303.044 187.908C303.262 187.982 303.468 188.09 303.654 188.225C303.839 188.359 304.007 188.516 304.153 188.692C304.168 188.709 304.177 188.732 304.176 188.755C304.175 188.779 304.164 188.801 304.147 188.816C304.129 188.832 304.107 188.84 304.083 188.839C304.06 188.838 304.038 188.828 304.022 188.811L304.017 188.806C303.876 188.647 303.716 188.507 303.539 188.389C303.366 188.271 303.175 188.179 302.973 188.117C302.574 187.992 302.148 187.975 301.739 188.067L301.729 188.07C301.695 188.078 301.659 188.073 301.629 188.054C301.598 188.036 301.577 188.007 301.568 187.973C301.56 187.938 301.565 187.902 301.584 187.872C301.602 187.842 301.631 187.82 301.666 187.812L301.672 187.811Z" fill="#0C0C0C"/>
        <path d="M281.266 241.761C279.807 241.126 278.715 240.446 276.222 238.572C274.424 237.224 272.752 235.715 271.229 234.064L284.027 209.753L284.583 208.697L296.127 214.755L286.114 233.778L286.068 233.862L286.155 234.2" fill="#EA394A"/>
        <path d="M323.83 222.205C323.494 225.81 323.422 231.417 323.445 236.402C318.619 240.771 312.726 243.796 306.358 245.17C299.989 246.545 293.371 246.222 287.167 244.233C286.408 236.716 285.279 225.669 284.643 218.867C283.998 211.821 282.102 209.494 287.278 206.12C290.129 204.67 294.651 204.543 296.682 204.543C295.993 211.222 310.093 212.044 310.443 204.543C320.989 205.527 325.871 205.772 323.83 222.205Z" fill="#EA394A"/>
        <path d="M297.321 194.447C298.486 195.039 299.816 195.226 301.1 194.979C301.144 194.97 301.19 194.975 301.233 194.992C301.275 195.008 301.311 195.037 301.338 195.073C301.364 195.11 301.38 195.153 301.382 195.199C301.385 195.244 301.375 195.289 301.353 195.328C300.971 196.002 300.062 197.153 298.504 196.684C297.498 196.381 297.118 195.349 296.976 194.709C296.967 194.665 296.97 194.618 296.985 194.576C297.001 194.533 297.028 194.496 297.064 194.468C297.101 194.441 297.144 194.424 297.189 194.42C297.235 194.417 297.28 194.426 297.321 194.447Z" fill="white"/>
        <path d="M297.248 189.273C297.559 189.273 297.811 189.021 297.811 188.711C297.811 188.4 297.559 188.148 297.248 188.148C296.937 188.148 296.685 188.4 296.685 188.711C296.685 189.021 296.937 189.273 297.248 189.273Z" fill="#0C0C0C"/>
        <path d="M302.66 190.218C302.971 190.218 303.223 189.967 303.223 189.656C303.223 189.346 302.971 189.094 302.66 189.094C302.349 189.094 302.097 189.346 302.097 189.656C302.097 189.967 302.349 190.218 302.66 190.218Z" fill="#0C0C0C"/>
        <path d="M285.89 231.001H285.901C285.924 230.998 285.944 230.985 285.958 230.967C285.972 230.949 285.978 230.925 285.975 230.903L284.979 220.89C284.978 220.879 284.974 220.868 284.969 220.858C284.963 220.848 284.955 220.839 284.946 220.832C284.937 220.825 284.926 220.82 284.915 220.817C284.904 220.815 284.893 220.814 284.881 220.816C284.87 220.818 284.859 220.821 284.849 220.827C284.839 220.833 284.831 220.84 284.824 220.85C284.817 220.859 284.812 220.869 284.809 220.88C284.806 220.891 284.805 220.903 284.807 220.914L285.802 230.927C285.805 230.948 285.816 230.967 285.832 230.98C285.848 230.994 285.869 231.001 285.89 231.001Z" fill="#0C0C0C"/>
        <path d="M284.589 223.375H274.426V235.817H284.589V223.375Z" fill="white"/>
        <path d="M280.427 229.596C280.427 228.774 280.671 227.971 281.129 227.288C281.586 226.605 282.236 226.073 282.997 225.758C283.757 225.444 284.594 225.362 285.401 225.522C286.209 225.683 286.95 226.079 287.532 226.66C288.114 227.241 288.51 227.981 288.671 228.787C288.831 229.593 288.749 230.428 288.434 231.187C288.119 231.946 287.585 232.595 286.901 233.052C286.216 233.508 285.412 233.752 284.588 233.752C283.485 233.75 282.427 233.312 281.647 232.533C280.866 231.754 280.428 230.698 280.427 229.596ZM282.131 229.596C282.131 230.081 282.275 230.555 282.545 230.959C282.815 231.362 283.199 231.677 283.648 231.862C284.097 232.048 284.591 232.096 285.068 232.002C285.544 231.907 285.982 231.673 286.326 231.33C286.67 230.987 286.904 230.55 286.998 230.075C287.093 229.599 287.045 229.106 286.859 228.657C286.673 228.209 286.358 227.826 285.954 227.557C285.55 227.287 285.074 227.143 284.588 227.143C283.937 227.144 283.312 227.403 282.852 227.862C282.391 228.322 282.132 228.946 282.131 229.596Z" fill="white"/>
        <path d="M284.508 231.136C284.542 230.926 284.649 230.734 284.811 230.594C284.972 230.455 285.178 230.377 285.392 230.373C285.386 230.365 285.382 230.355 285.379 230.345L285.077 230.28C284.866 230.238 284.675 230.125 284.539 229.959C284.402 229.794 284.326 229.586 284.325 229.372C284.327 229.237 284.359 229.105 284.418 228.984C284.478 228.863 284.563 228.757 284.669 228.673C284.774 228.589 284.897 228.53 285.029 228.499C285.16 228.468 285.296 228.467 285.428 228.496L286.142 228.65C286.142 228.647 286.142 228.644 286.142 228.642C286.144 228.636 286.146 228.63 286.149 228.625C285.962 228.538 285.812 228.39 285.72 228.206C285.629 228.022 285.603 227.813 285.646 227.612C285.724 227.085 286.358 226.912 286.822 227.012L288.671 227.342L288.047 226.929C287.85 226.793 287.712 226.587 287.662 226.354C287.611 226.12 287.651 225.876 287.773 225.671C287.84 225.567 287.927 225.478 288.03 225.409C288.133 225.34 288.248 225.292 288.37 225.269C288.491 225.246 288.616 225.248 288.737 225.275C288.858 225.302 288.972 225.353 289.072 225.426L296.526 233.941L294.871 233.191C294.357 233.945 293.63 234.529 292.782 234.868C291.933 235.206 291.003 235.284 290.11 235.092L286.068 234.212C285.857 234.171 285.667 234.058 285.529 233.892C285.392 233.727 285.317 233.519 285.316 233.304C285.319 233.111 285.383 232.923 285.501 232.769C285.618 232.614 285.782 232.501 285.968 232.446C285.962 232.433 285.96 232.418 285.962 232.403C285.964 232.389 285.97 232.376 285.978 232.365C285.987 232.354 285.998 232.345 286.011 232.34L285.265 232.179C285.03 232.133 284.821 232 284.68 231.806C284.54 231.613 284.478 231.373 284.508 231.136Z" fill="#E98862"/>
        <path opacity="0.2" d="M287.492 228.949C287.512 228.945 287.529 228.934 287.541 228.919C287.554 228.903 287.56 228.884 287.56 228.864C287.56 228.844 287.552 228.825 287.539 228.81C287.526 228.795 287.509 228.785 287.489 228.782L286.24 228.571C286.229 228.568 286.218 228.568 286.206 228.57C286.195 228.573 286.184 228.577 286.175 228.584C286.165 228.59 286.157 228.598 286.151 228.608C286.145 228.618 286.14 228.629 286.138 228.64C286.136 228.651 286.137 228.663 286.14 228.674C286.142 228.685 286.147 228.696 286.154 228.705C286.161 228.714 286.169 228.722 286.179 228.728C286.189 228.734 286.2 228.738 286.212 228.739L287.46 228.95C287.471 228.952 287.482 228.952 287.492 228.949Z" fill="#0C0C0C"/>
        <path opacity="0.2" d="M287.191 230.712C287.21 230.708 287.228 230.698 287.24 230.682C287.253 230.667 287.259 230.647 287.259 230.628C287.259 230.608 287.251 230.589 287.239 230.574C287.226 230.558 287.208 230.548 287.188 230.545L285.478 230.242C285.467 230.239 285.455 230.239 285.443 230.241C285.432 230.243 285.421 230.248 285.411 230.254C285.402 230.26 285.393 230.269 285.387 230.278C285.381 230.288 285.376 230.299 285.374 230.31C285.372 230.322 285.373 230.333 285.375 230.345C285.378 230.356 285.383 230.367 285.39 230.376C285.397 230.385 285.405 230.393 285.415 230.399C285.425 230.405 285.437 230.409 285.448 230.41L287.159 230.713C287.169 230.715 287.18 230.715 287.191 230.712Z" fill="#0C0C0C"/>
        <path opacity="0.2" d="M286.877 232.624C286.896 232.62 286.914 232.609 286.926 232.593C286.939 232.577 286.945 232.558 286.944 232.538C286.944 232.518 286.936 232.499 286.923 232.484C286.91 232.469 286.892 232.459 286.872 232.456L286.061 232.332C286.039 232.33 286.017 232.336 286 232.35C285.983 232.363 285.971 232.383 285.968 232.404C285.964 232.426 285.97 232.448 285.982 232.466C285.994 232.484 286.013 232.496 286.035 232.501L286.846 232.625C286.856 232.626 286.867 232.626 286.877 232.624Z" fill="#0C0C0C"/>
        <path d="M329.008 230.083C324.435 236.648 317.863 241.565 310.268 244.106L310.265 244.103C308.578 243.774 292.486 237.431 290.357 237.014L292.686 226.167C298.667 227.355 309.575 231.935 315.59 233.128L311.346 213.922C311.192 213.074 311.209 212.203 311.395 211.361C311.58 210.519 311.932 209.723 312.428 209.017C312.925 208.312 313.557 207.712 314.287 207.252C315.018 206.793 315.833 206.482 316.685 206.339C317.536 206.196 318.408 206.223 319.249 206.419C320.09 206.615 320.884 206.976 321.584 207.48C322.285 207.984 322.878 208.623 323.329 209.357C323.781 210.092 324.082 210.91 324.214 211.761L329.008 230.083Z" fill="#EA394A"/>
        <path d="M320.148 234.542C320.17 234.541 320.191 234.533 320.206 234.518C320.222 234.503 320.232 234.483 320.233 234.461C320.235 234.44 320.229 234.418 320.215 234.401C320.202 234.384 320.183 234.373 320.161 234.369L315.639 232.838C315.628 232.836 315.616 232.836 315.605 232.839C315.594 232.842 315.583 232.846 315.574 232.853C315.565 232.86 315.557 232.869 315.551 232.878C315.545 232.888 315.542 232.899 315.54 232.911C315.537 232.933 315.542 232.957 315.556 232.975C315.57 232.993 315.59 233.006 315.613 233.009L320.135 234.541C320.14 234.541 320.144 234.542 320.148 234.542Z" fill="#0C0C0C"/>
        <path d="M315.709 232.911C315.711 232.938 315.703 232.965 315.685 232.986C315.675 232.995 315.663 233.002 315.65 233.006C315.637 233.01 315.623 233.011 315.61 233.009L292.831 226.298L290.548 236.973L310.164 244.138C310.103 244.158 310.039 244.178 309.978 244.198C309.934 244.213 309.891 244.227 309.845 244.239L290.421 237.12C290.399 237.114 290.38 237.1 290.368 237.08C290.356 237.061 290.352 237.038 290.357 237.015L292.686 226.169C292.689 226.158 292.694 226.147 292.701 226.138C292.708 226.129 292.717 226.122 292.727 226.116C292.736 226.11 292.747 226.105 292.759 226.103C292.77 226.101 292.782 226.102 292.793 226.105L315.517 232.825L312.945 222.237C312.942 222.214 312.948 222.192 312.961 222.173C312.975 222.155 312.995 222.143 313.017 222.139C313.029 222.137 313.04 222.137 313.051 222.139C313.063 222.141 313.073 222.146 313.083 222.152C313.092 222.159 313.1 222.167 313.107 222.177C313.113 222.186 313.117 222.197 313.119 222.208L315.709 232.911Z" fill="#0C0C0C"/>
        <path d="M18.6734 219.075C18.6522 219.075 18.6312 219.07 18.6116 219.062C18.5923 219.054 18.5749 219.042 18.5602 219.028C18.5455 219.013 18.5338 218.995 18.5259 218.976C18.518 218.956 18.514 218.936 18.5142 218.915C18.5143 218.894 18.5185 218.873 18.5266 218.854L24.7633 204.057C24.7797 204.018 24.8109 203.987 24.85 203.971C24.8891 203.955 24.933 203.956 24.9719 203.972C25.0108 203.988 25.0416 204.02 25.0575 204.059C25.0734 204.098 25.0731 204.141 25.0567 204.18L18.8201 218.977C18.808 219.006 18.7876 219.031 18.7615 219.048C18.7354 219.065 18.7047 219.075 18.6734 219.075Z" fill="#0C0C0C"/>
        <path d="M55.3717 219.243H55.3647C55.3439 219.243 55.323 219.24 55.3033 219.233C55.2837 219.226 55.2656 219.215 55.2502 219.201C55.2348 219.187 55.2223 219.17 55.2134 219.151C55.2046 219.132 55.1995 219.112 55.1986 219.091L54.5034 203.956C54.5029 203.915 54.5182 203.874 54.5464 203.843C54.5745 203.813 54.6133 203.794 54.6549 203.79C54.6758 203.789 54.6967 203.792 54.7164 203.799C54.7361 203.807 54.7542 203.817 54.7697 203.832C54.7851 203.846 54.7977 203.863 54.8065 203.882C54.8154 203.9 54.8205 203.921 54.8214 203.942L55.5166 219.076C55.5186 219.117 55.5047 219.158 55.4777 219.189C55.4507 219.22 55.4127 219.239 55.3717 219.243Z" fill="#0C0C0C"/>
    </g>
    <defs>
        <clipPath id="clip0_1_3041">
            <rect width="355" height="246" fill="white"/>
        </clipPath>
    </defs>
</svg>
