<svg width="25" height="25" viewBox="0 0 25 25" fill="none" xmlns="http://www.w3.org/2000/svg">
<path d="M10.7 10.7001C8.05348 10.7001 5.90002 8.54665 5.90002 5.9001C5.90002 3.25355 8.05348 1.1001 10.7 1.1001C13.3466 1.1001 15.5 3.25355 15.5 5.9001C15.5 8.54665 13.3466 10.7001 10.7 10.7001ZM10.7 2.3001C8.71468 2.3001 7.10002 3.91475 7.10002 5.9001C7.10002 7.88545 8.71468 9.5001 10.7 9.5001C12.6854 9.5001 14.3 7.88545 14.3 5.9001C14.3 3.91475 12.6854 2.3001 10.7 2.3001Z" fill="#3F3D56"/>
<path d="M13.4943 17.9H4.70003V16.7C4.70003 13.3916 7.3916 10.7 10.7 10.7C12.1418 10.7 13.4666 11.2117 14.5027 12.0633L15.3516 11.2143C14.0959 10.1474 12.4728 9.5 10.6998 9.5C6.72947 9.5 3.49976 12.7298 3.49976 16.7V19.1H14.694L13.4943 17.9Z" fill="#3F3D56"/>
<path d="M21.5001 16.0863V14.8863H20.2083C20.1525 14.6686 20.0661 14.4622 19.9516 14.2684L20.8642 13.3558L20.0157 12.5074L19.0978 13.4253C18.9052 13.3162 18.6994 13.2357 18.4857 13.1829V11.8713H17.2857V13.1824C17.0716 13.2346 16.8663 13.3156 16.6731 13.4248L15.7552 12.5068L14.9068 13.3553L15.8194 14.2679C15.7047 14.4611 15.619 14.668 15.5626 14.8858H14.2709V16.0858H15.5626C15.6185 16.303 15.7042 16.5094 15.8188 16.7032L14.9062 17.6158L15.7547 18.4642L16.6673 17.5516C16.8605 17.6663 17.0674 17.752 17.2852 17.8084L17.2851 19.1001H18.4851V17.8084C18.7023 17.7525 18.9087 17.6668 19.1025 17.5522L20.0151 18.4648L20.8635 17.6163L19.9509 16.7037C20.0656 16.5105 20.1513 16.3036 20.2071 16.0863L21.5001 16.0863ZM16.6785 15.4863C16.6785 15.1648 16.8045 14.8617 17.0331 14.6331C17.2617 14.4044 17.5647 14.2784 17.8864 14.2784C18.2074 14.2784 18.5104 14.4044 18.739 14.6331C18.9676 14.8617 19.0936 15.1646 19.0936 15.4863C19.0936 15.8074 18.9676 16.1103 18.739 16.3389C18.2812 16.7961 17.4898 16.7961 17.0331 16.3389C16.8045 16.1103 16.6785 15.8073 16.6785 15.4863Z" fill="#3F3D56"/>
</svg>
