<svg width="24" height="25" viewBox="0 0 24 25" fill="none" xmlns="http://www.w3.org/2000/svg">
<path d="M6.44391 17.3207C6.82915 17.3207 7.20574 17.2065 7.52605 16.9924C7.84637 16.7784 8.09602 16.4742 8.24345 16.1183C8.39088 15.7624 8.42945 15.3707 8.35429 14.9929C8.27914 14.615 8.09362 14.268 7.82122 13.9956C7.54881 13.7232 7.20174 13.5376 6.82391 13.4625C6.44607 13.3873 6.05443 13.4259 5.69851 13.5733C5.34259 13.7208 5.03839 13.9704 4.82436 14.2907C4.61033 14.611 4.49609 14.9876 4.49609 15.3729C4.49609 15.8895 4.70131 16.3849 5.06659 16.7502C5.43188 17.1155 5.92731 17.3207 6.44391 17.3207ZM6.44391 14.1301C6.6901 14.1301 6.93077 14.2032 7.13545 14.34C7.34014 14.4768 7.49964 14.6712 7.59378 14.8987C7.68791 15.1262 7.71246 15.3765 7.66431 15.618C7.61615 15.8594 7.49746 16.0811 7.32326 16.2551C7.14905 16.4291 6.92715 16.5475 6.68565 16.5953C6.44414 16.6431 6.19387 16.6182 5.96651 16.5238C5.73915 16.4293 5.54491 16.2696 5.40837 16.0647C5.27184 15.8598 5.19914 15.6191 5.19947 15.3729C5.19992 15.0431 5.33123 14.727 5.56455 14.494C5.79788 14.261 6.11415 14.1301 6.44391 14.1301Z" fill="#2F2E41"/>
<path d="M12.0066 17.216H12.0674C12.5625 17.1838 13.0269 16.9646 13.3663 16.6027C13.7057 16.2408 13.8948 15.7634 13.8952 15.2672C13.8957 14.7711 13.7074 14.2933 13.3686 13.9309C13.0298 13.5684 12.5659 13.3483 12.0708 13.3153H11.9491C11.6877 13.3076 11.4274 13.3525 11.1836 13.4472C10.9399 13.5419 10.7176 13.6846 10.53 13.8668C10.3423 14.0489 10.1932 14.2669 10.0913 14.5078C9.98949 14.7487 9.93701 15.0075 9.93701 15.269C9.93701 15.5305 9.98949 15.7894 10.0913 16.0303C10.1932 16.2711 10.3423 16.4891 10.53 16.6713C10.7176 16.8535 10.9399 16.9962 11.1836 17.0909C11.4274 17.1856 11.6877 17.2305 11.9491 17.2228L12.0066 17.216Z" fill="#2F2E41"/>
<path d="M19.5104 15.3729C19.5104 14.9876 19.3961 14.611 19.1821 14.2907C18.9681 13.9704 18.6639 13.7208 18.308 13.5733C17.952 13.4259 17.5604 13.3873 17.1826 13.4625C16.8047 13.5376 16.4577 13.7232 16.1852 13.9956C15.9128 14.268 15.7273 14.615 15.6522 14.9929C15.577 15.3707 15.6156 15.7624 15.763 16.1183C15.9104 16.4742 16.1601 16.7784 16.4804 16.9924C16.8007 17.2065 17.1773 17.3207 17.5626 17.3207C17.8183 17.3207 18.0716 17.2703 18.308 17.1724C18.5443 17.0745 18.759 16.9311 18.9399 16.7502C19.1207 16.5693 19.2642 16.3546 19.3621 16.1183C19.46 15.882 19.5104 15.6287 19.5104 15.3729ZM16.3198 15.3729C16.3201 15.1272 16.3933 14.8871 16.5301 14.6829C16.6668 14.4788 16.861 14.3197 17.0882 14.2259C17.3153 14.1321 17.5651 14.1078 17.806 14.1559C18.047 14.2041 18.2683 14.3225 18.4419 14.4964C18.6155 14.6703 18.7337 14.8917 18.7815 15.1327C18.8294 15.3738 18.8047 15.6236 18.7105 15.8505C18.6164 16.0775 18.4571 16.2715 18.2528 16.408C18.0485 16.5445 17.8083 16.6173 17.5626 16.6173C17.234 16.6151 16.9196 16.483 16.6881 16.2499C16.4565 16.0167 16.3266 15.7015 16.3266 15.3729H16.3198Z" fill="#2F2E41"/>
<path d="M19.0131 17.8652H16.3585C16.0327 17.8659 15.7173 17.9794 15.4657 18.1864L14.7996 18.7258L14.4496 18.4079C14.3194 18.24 14.1525 18.1042 13.9617 18.0107C13.7709 17.9172 13.5613 17.8686 13.3488 17.8686H10.6638C10.4514 17.8686 10.2418 17.9172 10.051 18.0107C9.86019 18.1042 9.69332 18.24 9.56312 18.4079L9.21143 18.7258L8.54525 18.1898C8.29451 17.9826 7.97949 17.869 7.65419 17.8686H4.99962C4.62891 17.869 4.2735 18.0165 4.01137 18.2786C3.74923 18.5407 3.60177 18.8961 3.60132 19.2669V23.6968C3.6011 23.7432 3.61009 23.7893 3.62777 23.8323C3.64545 23.8752 3.67147 23.9143 3.70433 23.9472C3.73718 23.98 3.77623 24.006 3.8192 24.0237C3.86218 24.0414 3.90823 24.0504 3.9547 24.0502H8.69911C8.74544 24.0502 8.79131 24.041 8.83409 24.0232C8.87687 24.0054 8.91572 23.9794 8.9484 23.9466C8.98107 23.9137 9.00694 23.8747 9.02452 23.8319C9.04209 23.789 9.05102 23.7431 9.0508 23.6968V22.006L9.26554 22.1666V23.7018C9.26553 23.7953 9.30253 23.8849 9.36844 23.9511C9.43435 24.0174 9.52379 24.0548 9.61722 24.0552H14.3938C14.4875 24.0552 14.5774 24.018 14.6436 23.9517C14.7099 23.8855 14.7471 23.7956 14.7471 23.7018V22.1666L14.9619 22.006V23.6968C14.9617 23.7431 14.9706 23.789 14.9882 23.8319C15.0057 23.8747 15.0316 23.9137 15.0643 23.9466C15.097 23.9794 15.1358 24.0054 15.1786 24.0232C15.2214 24.041 15.2672 24.0502 15.3136 24.0502H20.058C20.1517 24.0502 20.2416 24.0129 20.3078 23.9467C20.3741 23.8804 20.4114 23.7905 20.4114 23.6968V19.2635C20.4109 18.8928 20.2634 18.5374 20.0013 18.2752C19.7392 18.0131 19.3838 17.8656 19.0131 17.8652ZM8.35081 23.3451H4.30639V20.0345C4.68513 20.3507 6.68367 21.9299 7.36337 22.4304C7.42427 22.4755 7.49807 22.4999 7.57388 22.4999C7.64969 22.4999 7.72349 22.4755 7.78439 22.4304L8.36433 22.0026L8.35081 23.3451ZM7.58656 20.2019L5.39865 18.5702H7.65419C7.81801 18.5709 7.97602 18.631 8.09888 18.7393L8.68897 19.2026L7.58656 20.2019ZM15.9121 18.7258C16.036 18.618 16.1943 18.558 16.3585 18.5567H18.6191L16.4295 20.1883L15.3288 19.1891L15.9121 18.7258ZM19.7063 23.3383H15.6653L15.6483 21.9941L16.2283 22.4219C16.2888 22.4672 16.3624 22.4917 16.438 22.4917C16.5135 22.4917 16.5871 22.4672 16.6476 22.4219C17.3239 21.9147 19.3275 20.3422 19.7063 20.026V23.3383Z" fill="#2F2E41"/>
<path d="M11.9963 0C8.81392 0.00224112 5.76263 1.26801 3.51313 3.5191C1.26363 5.77018 1.29168e-05 8.82236 1.37059e-05 12.0047C-0.00360432 14.4124 0.709153 16.7667 2.04758 18.768C2.08976 18.8357 2.14511 18.8942 2.21035 18.9401C2.2756 18.986 2.3494 19.0183 2.42737 19.0351C2.50535 19.0519 2.58591 19.0529 2.66426 19.0379C2.74261 19.023 2.81716 18.9924 2.88348 18.9481C2.94979 18.9038 3.00652 18.8466 3.0503 18.7799C3.09407 18.7132 3.12399 18.6384 3.13829 18.56C3.15258 18.4815 3.15095 18.4009 3.1335 18.3231C3.11605 18.2453 3.08314 18.1717 3.03671 18.1069C1.82726 16.299 1.18442 14.1714 1.19034 11.9963C1.18949 10.6009 1.45997 9.21866 1.98671 7.92651C2.55483 8.45574 3.50844 8.9038 4.70215 9.25887C4.45932 10.2003 4.30702 11.1628 4.24733 12.1333L5.09273 12.1806C5.14793 11.2706 5.29062 10.3681 5.51882 9.48544C7.52552 9.94836 9.57683 10.1905 11.6362 10.2074L11.648 12.1316H12.4934L12.4816 10.2091C14.5618 10.1872 16.6321 9.91993 18.6496 9.41274C18.8879 10.3103 19.0341 11.2297 19.0859 12.1569L19.9313 12.1147C19.8754 11.1227 19.7179 10.1392 19.4612 9.17941C20.5704 8.82772 21.4598 8.4084 22.0127 7.95188C22.5368 9.24049 22.8056 10.6187 22.804 12.0098C22.8098 14.256 22.1232 16.4493 20.8376 18.2912C20.7477 18.4207 20.7127 18.5805 20.7403 18.7358C20.7678 18.891 20.8557 19.029 20.9847 19.1197C21.0842 19.1881 21.202 19.2252 21.3228 19.2262C21.4188 19.2262 21.5134 19.203 21.5985 19.1585C21.6836 19.1141 21.7566 19.0497 21.8115 18.9709C23.0768 17.1692 23.8243 15.0552 23.9726 12.8585C24.1209 10.6618 23.6645 8.46654 22.6527 6.5111C21.641 4.55565 20.1128 2.91484 18.2341 1.76694C16.3553 0.619029 14.198 0.00791918 11.9963 0ZM16.9741 3.78741C16.4385 3.0052 15.8144 2.28748 15.1142 1.64854C16.3757 2.02916 17.5568 2.63776 18.5989 3.44418C18.0917 3.57437 17.5489 3.68935 16.9741 3.78741ZM5.4106 3.43572C6.48149 2.61001 7.698 1.99286 8.99681 1.61641C8.29202 2.26788 7.66763 3.00126 7.13692 3.80094C6.52147 3.69949 5.94152 3.57606 5.4106 3.43572ZM11.0562 1.2326C11.2253 1.21738 11.4079 1.20724 11.5838 1.20047L11.604 4.17123C10.4277 4.15941 9.25303 4.08151 8.08546 3.9379C9.02725 2.61568 10.0823 1.64854 11.0562 1.2326ZM12.4292 1.20047C12.6202 1.20047 12.8096 1.21907 12.9956 1.23598C13.9932 1.64685 15.0753 2.61399 16.0492 3.92606C14.855 4.07755 13.6531 4.15941 12.4494 4.17123L12.4292 1.20047ZM2.36207 7.10816C2.93752 5.97905 3.70537 4.95888 4.63114 4.09345C5.29354 4.29287 5.96708 4.45321 6.64828 4.57364C5.91961 5.79612 5.34058 7.10178 4.92365 8.4625C3.54733 8.04487 2.6512 7.54946 2.36207 7.10816ZM5.74369 8.67893C6.17488 7.28673 6.7835 5.95583 7.55455 4.71905C8.8961 4.90441 10.2481 5.0038 11.6024 5.01663L11.6294 9.35694C9.64847 9.34916 7.67451 9.12177 5.74369 8.67893ZM12.4748 9.35525L12.4478 5.01494C13.8311 5.00116 15.2121 4.89666 16.5818 4.70214C17.3621 5.91634 17.9794 7.2278 18.418 8.60284C16.4743 9.09161 14.4789 9.3448 12.4748 9.35694V9.35525ZM19.238 8.36613C18.8103 7.02879 18.2203 5.7489 17.4813 4.55504C18.1177 4.43888 18.7471 4.28704 19.3665 4.10021C20.3048 4.97657 21.0804 6.01211 21.6576 7.15889C21.333 7.51227 20.4943 7.96371 19.2296 8.36782L19.238 8.36613Z" fill="#2F2E41"/>
</svg>
