<svg width="20" height="20" viewBox="0 0 20 20" fill="none" xmlns="http://www.w3.org/2000/svg">
    <circle cx="10" cy="10" r="9.5" fill="white" stroke="white"/>
    <path d="M10.1693 5.03897L11.0443 5.91397C11.0986 5.96864 11.1631 6.01204 11.2342 6.04165C11.3052 6.07127 11.3815 6.08652 11.4585 6.08652C11.5355 6.08652 11.6117 6.07127 11.6828 6.04165C11.7539 6.01204 11.8184 5.96864 11.8727 5.91397C11.9612 5.82105 12.0166 5.70152 12.0303 5.57392C12.044 5.44631 12.0153 5.31774 11.9485 5.20813H14.0835C14.2382 5.20813 14.3866 5.14668 14.496 5.03728C14.6054 4.92788 14.6668 4.77951 14.6668 4.6248C14.6668 4.47009 14.6054 4.32172 14.496 4.21232C14.3866 4.10293 14.2382 4.04147 14.0835 4.04147H11.9485C12.0153 3.93186 12.044 3.80329 12.0303 3.67569C12.0166 3.54808 11.9612 3.42856 11.8727 3.33563C11.8184 3.28096 11.7539 3.23756 11.6828 3.20795C11.6117 3.17833 11.5355 3.16309 11.4585 3.16309C11.3815 3.16309 11.3052 3.17833 11.2342 3.20795C11.1631 3.23756 11.0986 3.28096 11.0443 3.33563L10.1693 4.21063C10.1162 4.26611 10.0746 4.33153 10.0468 4.40313C9.98849 4.54515 9.98849 4.70445 10.0468 4.84647C10.0746 4.91807 10.1162 4.98349 10.1693 5.03897ZM16.3702 7.3198C16.3424 7.2482 16.3008 7.18278 16.2477 7.1273L15.3727 6.2523C15.3184 6.19763 15.2539 6.15423 15.1828 6.12461C15.1117 6.095 15.0355 6.07975 14.9585 6.07975C14.8815 6.07975 14.8052 6.095 14.7342 6.12461C14.6631 6.15423 14.5986 6.19763 14.5443 6.2523C14.4558 6.34522 14.4004 6.46475 14.3867 6.59235C14.373 6.71996 14.4017 6.84853 14.4685 6.95813H12.3335C12.1788 6.95813 12.0304 7.01959 11.921 7.12899C11.8116 7.23839 11.7502 7.38676 11.7502 7.54147C11.7502 7.69618 11.8116 7.84455 11.921 7.95395C12.0304 8.06334 12.1788 8.1248 12.3335 8.1248H14.4685C14.4017 8.23441 14.373 8.36297 14.3867 8.49058C14.4004 8.61819 14.4558 8.73771 14.5443 8.83063C14.5986 8.88531 14.6631 8.92871 14.7342 8.95832C14.8052 8.98794 14.8815 9.00318 14.9585 9.00318C15.0355 9.00318 15.1117 8.98794 15.1828 8.95832C15.2539 8.92871 15.3184 8.88531 15.3727 8.83063L16.2477 7.95563C16.3008 7.90016 16.3424 7.83474 16.3702 7.76313C16.4285 7.62112 16.4285 7.46182 16.3702 7.3198ZM9.41683 7.83313C8.95534 7.83313 8.50421 7.96998 8.1205 8.22637C7.73678 8.48276 7.43772 8.84718 7.26111 9.27354C7.08451 9.6999 7.0383 10.1691 7.12833 10.6217C7.21836 11.0743 7.44059 11.4901 7.76691 11.8164C8.09324 12.1427 8.509 12.3649 8.96162 12.455C9.41424 12.545 9.8834 12.4988 10.3098 12.3222C10.7361 12.1456 11.1005 11.8465 11.3569 11.4628C11.6133 11.0791 11.7502 10.628 11.7502 10.1665C11.7502 9.54763 11.5043 8.95414 11.0667 8.51655C10.6292 8.07897 10.0357 7.83313 9.41683 7.83313ZM9.41683 11.3331C9.18608 11.3331 8.96052 11.2647 8.76866 11.1365C8.57681 11.0083 8.42727 10.8261 8.33897 10.6129C8.25067 10.3998 8.22756 10.1652 8.27258 9.93886C8.3176 9.71255 8.42871 9.50467 8.59187 9.34151C8.75503 9.17835 8.96291 9.06723 9.18922 9.02222C9.41554 8.9772 9.65011 9.00031 9.86329 9.08861C10.0765 9.17691 10.2587 9.32645 10.3869 9.5183C10.5151 9.71016 10.5835 9.93572 10.5835 10.1665C10.5835 10.4759 10.4606 10.7726 10.2418 10.9914C10.023 11.2102 9.72625 11.3331 9.41683 11.3331ZM14.6668 9.58313C14.5121 9.58313 14.3637 9.64459 14.2544 9.75399C14.145 9.86339 14.0835 10.0118 14.0835 10.1665V13.0831C14.0835 13.2378 14.022 13.3862 13.9126 13.4956C13.8032 13.605 13.6549 13.6665 13.5002 13.6665H5.3335C5.17879 13.6665 5.03041 13.605 4.92102 13.4956C4.81162 13.3862 4.75016 13.2378 4.75016 13.0831V8.41647C4.75016 8.26176 4.81162 8.11339 4.92102 8.00399C5.03041 7.89459 5.17879 7.83313 5.3335 7.83313H6.50016C6.6281 7.8394 6.75454 7.80337 6.85996 7.73063C6.96539 7.65788 7.04394 7.55246 7.0835 7.43063L7.3985 6.48563C7.43496 6.37328 7.50468 6.27464 7.59842 6.20277C7.69217 6.1309 7.80552 6.08918 7.9235 6.08313H8.8335C8.98821 6.08313 9.13658 6.02168 9.24598 5.91228C9.35537 5.80288 9.41683 5.65451 9.41683 5.4998C9.41683 5.34509 9.35537 5.19672 9.24598 5.08732C9.13658 4.97793 8.98821 4.91647 8.8335 4.91647H7.9235C7.55518 4.91634 7.19622 5.03242 6.89772 5.24817C6.59922 5.46393 6.3764 5.76837 6.261 6.11813L6.08016 6.66647H5.3335C4.86937 6.66647 4.42425 6.85084 4.09606 7.17903C3.76787 7.50722 3.5835 7.95234 3.5835 8.41647V13.0831C3.5835 13.5473 3.76787 13.9924 4.09606 14.3206C4.42425 14.6488 4.86937 14.8331 5.3335 14.8331H13.5002C13.9643 14.8331 14.4094 14.6488 14.7376 14.3206C15.0658 13.9924 15.2502 13.5473 15.2502 13.0831V10.1665C15.2502 10.0118 15.1887 9.86339 15.0793 9.75399C14.9699 9.64459 14.8215 9.58313 14.6668 9.58313Z" fill="#2F2E41"/>
</svg>
