<svg width="24" height="25" viewBox="0 0 24 25" fill="none" xmlns="http://www.w3.org/2000/svg">
    <g clip-path="url(#clip0_1_5759)">
        <path d="M12 15.5C13.6569 15.5 15 14.1569 15 12.5C15 10.8431 13.6569 9.5 12 9.5C10.3431 9.5 9 10.8431 9 12.5C9 14.1569 10.3431 15.5 12 15.5Z" fill="#3A3A3A"/>
        <path d="M20 4.5H16.83L15.59 3.15C15.22 2.74 14.68 2.5 14.12 2.5H9.88C9.32 2.5 8.78 2.74 8.4 3.15L7.17 4.5H4C2.9 4.5 2 5.4 2 6.5V18.5C2 19.6 2.9 20.5 4 20.5H20C21.1 20.5 22 19.6 22 18.5V6.5C22 5.4 21.1 4.5 20 4.5ZM12 17.5C9.24 17.5 7 15.26 7 12.5C7 9.74 9.24 7.5 12 7.5C14.76 7.5 17 9.74 17 12.5C17 15.26 14.76 17.5 12 17.5Z" fill="#3A3A3A"/>
    </g>
    <defs>
        <clipPath id="clip0_1_5759">
            <rect width="24" height="24" fill="white" transform="translate(0 0.5)"/>
        </clipPath>
    </defs>
</svg>
