<svg width="18" height="18" viewBox="0 0 18 18" fill="none" xmlns="http://www.w3.org/2000/svg">
<path d="M10.4142 9.00008L16.707 2.70708C16.8025 2.61483 16.8787 2.50449 16.9311 2.38249C16.9835 2.26048 17.0111 2.12926 17.0122 1.99648C17.0134 1.8637 16.9881 1.73202 16.9378 1.60913C16.8875 1.48623 16.8133 1.37458 16.7194 1.28069C16.6255 1.18679 16.5138 1.11254 16.3909 1.06226C16.268 1.01198 16.1364 0.986677 16.0036 0.987831C15.8708 0.988985 15.7396 1.01657 15.6176 1.06898C15.4956 1.12139 15.3852 1.19757 15.293 1.29308L8.99998 7.58583L2.70722 1.29308C2.519 1.10899 2.26578 1.00656 2.0025 1.00801C1.73923 1.00946 1.48715 1.11468 1.30097 1.30083C1.11479 1.48697 1.00953 1.73904 1.00803 2.00231C1.00653 2.26558 1.10892 2.51883 1.29298 2.70708L7.58598 9.00008L1.29298 15.2931C1.19842 15.3856 1.12315 15.4959 1.07152 15.6177C1.01989 15.7394 0.992931 15.8702 0.992203 16.0025C0.991474 16.1347 1.01699 16.2658 1.06727 16.3882C1.11756 16.5105 1.19161 16.6216 1.28514 16.7152C1.37868 16.8087 1.48983 16.8827 1.61217 16.933C1.73451 16.9832 1.86561 17.0087 1.99787 17.008C2.13013 17.0072 2.26093 16.9802 2.38269 16.9286C2.50445 16.8769 2.61476 16.8017 2.70722 16.7071L8.99998 10.4143L15.293 16.7071C15.4882 16.9023 15.7442 17.0001 16 17.0001C16.2557 17.0001 16.512 16.9023 16.707 16.7071C16.8944 16.5196 16.9998 16.2652 16.9998 16.0001C16.9998 15.7349 16.8944 15.4806 16.707 15.2931L10.4142 9.00008Z" fill="black"/>
</svg>
