<svg width="20" height="20" viewBox="0 0 20 20" fill="none" xmlns="http://www.w3.org/2000/svg">
    <g clip-path="url(#clip0_1_5086)">
        <path d="M19.4421 16.3453L12.0648 1.59009C11.6711 0.803347 10.8801 0.314453 9.99995 0.314453C9.12013 0.314453 8.32911 0.803347 7.93543 1.59009L0.557808 16.3453C0.197395 17.0662 0.235239 17.9054 0.65882 18.5908C1.08271 19.2762 1.81666 19.6858 2.62263 19.6858H17.3773C18.1835 19.6858 18.9178 19.2762 19.3414 18.5908C19.765 17.9054 19.8022 17.0656 19.4421 16.3453ZM17.7459 17.6051C17.6989 17.682 17.5878 17.8108 17.3773 17.8108H2.62263C2.41236 17.8108 2.30128 17.682 2.25398 17.6051C2.20637 17.5288 2.14106 17.3719 2.23506 17.184L9.61238 2.42871C9.72041 2.21265 9.91938 2.18945 9.99995 2.18945C10.0805 2.18945 10.2795 2.21265 10.3875 2.42871L17.7648 17.184C17.8588 17.3719 17.7935 17.5288 17.7459 17.6051Z" fill="#474655"/>
        <path d="M10 5.59692C9.48212 5.59692 9.0625 6.01685 9.0625 6.53442V12.4945C9.0625 13.0121 9.48212 13.432 10 13.432C10.5179 13.432 10.9375 13.0121 10.9375 12.4945V6.53442C10.9375 6.01684 10.5179 5.59692 10 5.59692ZM10 14.2914C9.48212 14.2914 9.0625 14.7113 9.0625 15.2289V15.9094C9.0625 16.427 9.48212 16.8469 10 16.8469C10.5179 16.8469 10.9375 16.427 10.9375 15.9094V15.2289C10.9375 14.7113 10.5179 14.2914 10 14.2914Z" fill="#474655"/>
    </g>
    <defs>
        <clipPath id="clip0_1_5086">
            <rect width="20" height="20" fill="white"/>
        </clipPath>
    </defs>
</svg>
