<svg width="20" height="20" viewBox="0 0 20 20" fill="none" xmlns="http://www.w3.org/2000/svg">
<path d="M14.225 10.2407C14.6453 9.88707 14.9466 9.41279 15.0881 8.88218C15.2297 8.35157 15.2046 7.79028 15.0163 7.27439C14.828 6.7585 14.4856 6.31296 14.0355 5.99816C13.5854 5.68335 13.0493 5.51451 12.5 5.51451C11.9507 5.51451 11.4146 5.68335 10.9645 5.99816C10.5144 6.31296 10.172 6.7585 9.98369 7.27439C9.7954 7.79028 9.77033 8.35157 9.91188 8.88218C10.0534 9.41279 10.3547 9.88707 10.775 10.2407C10.6554 10.3023 10.5391 10.3702 10.4268 10.4442C9.94778 9.42889 9.12927 8.61254 8.1125 8.13605C8.79043 7.69552 9.30777 7.04775 9.58739 6.28931C9.867 5.53088 9.89391 4.70241 9.66409 3.92744C9.43428 3.15247 8.96006 2.47252 8.31214 1.98896C7.66423 1.5054 6.87732 1.24414 6.06875 1.24414C5.26018 1.24414 4.47327 1.5054 3.82536 1.98896C3.17744 2.47252 2.70322 3.15247 2.47341 3.92744C2.24359 4.70241 2.2705 5.53088 2.55011 6.28931C2.82973 7.04775 3.34707 7.69552 4.025 8.13605C3.19624 8.52442 2.49518 9.14059 2.00377 9.91255C1.51237 10.6845 1.25092 11.5803 1.25 12.4954V15.7086C1.25 15.8506 1.30644 15.9869 1.40691 16.0873C1.50737 16.1877 1.64363 16.2441 1.78571 16.2441H15.7143C15.8564 16.2441 15.9926 16.1877 16.0931 16.0873C16.1936 15.9869 16.25 15.8506 16.25 15.7086V13.5664C16.2495 12.8799 16.0603 12.2066 15.7032 11.6202C15.3462 11.0337 14.8348 10.5565 14.225 10.2407ZM10.8929 8.21102C10.8929 7.89326 10.9871 7.58264 11.1637 7.31843C11.3403 7.05422 11.5913 6.8483 11.885 6.7267C12.1786 6.6051 12.5018 6.57328 12.8135 6.63527C13.1253 6.69726 13.4117 6.85028 13.6364 7.07497C13.8612 7.29966 14.0142 7.58593 14.0763 7.89759C14.1383 8.20924 14.1064 8.53228 13.9848 8.82585C13.8632 9.11942 13.6572 9.37035 13.3929 9.54688C13.1286 9.72342 12.8179 9.81765 12.5 9.81765C12.0738 9.81765 11.665 9.64838 11.3636 9.34708C11.0622 9.04578 10.8929 8.63713 10.8929 8.21102ZM3.39286 4.99778C3.39286 4.46818 3.54995 3.95047 3.84428 3.51012C4.1386 3.06978 4.55694 2.72657 5.04638 2.5239C5.53583 2.32123 6.0744 2.2682 6.59399 2.37152C7.11358 2.47484 7.59086 2.72987 7.96546 3.10435C8.34007 3.47884 8.59518 3.95596 8.69853 4.47538C8.80189 4.99481 8.74884 5.5332 8.54611 6.02249C8.34337 6.51178 8.00005 6.92998 7.55956 7.22421C7.11907 7.51844 6.6012 7.67548 6.07143 7.67548C5.36103 7.67548 4.67972 7.39337 4.17739 6.8912C3.67506 6.38903 3.39286 5.70795 3.39286 4.99778ZM9.28571 15.1731H2.32143V12.4954C2.32143 11.5011 2.71652 10.5476 3.41978 9.84456C4.12304 9.14153 5.07687 8.74656 6.07143 8.74656C7.06599 8.74656 8.01982 9.14153 8.72308 9.84456C9.42634 10.5476 9.82143 11.5011 9.82143 12.4954V15.1731H9.28571ZM15.1786 15.1731H10.8929V12.4954C10.8939 12.168 10.8616 11.8414 10.7964 11.5207C11.2707 11.1136 11.8749 10.8894 12.5 10.8887C13.2104 10.8887 13.8917 11.1708 14.394 11.673C14.8964 12.1752 15.1786 12.8563 15.1786 13.5664V15.1731Z" fill="#848484"/>
</svg>
