<svg width="22" height="20" viewBox="0 0 22 20" fill="none" xmlns="http://www.w3.org/2000/svg">
<path d="M4.25 19.375C4.19973 19.3749 4.15 19.3647 4.10375 19.345C4.03597 19.3163 3.97814 19.2683 3.93746 19.2069C3.89678 19.1456 3.87506 19.0736 3.875 19V15.625H2.375C1.87772 15.625 1.40081 15.4275 1.04917 15.0758C0.697544 14.7242 0.5 14.2473 0.5 13.75V4.75C0.5 4.25272 0.697544 3.77581 1.04917 3.42417C1.40081 3.07254 1.87772 2.875 2.375 2.875H17.375C17.8723 2.875 18.3492 3.07254 18.7008 3.42417C19.0525 3.77581 19.25 4.25272 19.25 4.75V13.75C19.25 14.2473 19.0525 14.7242 18.7008 15.0758C18.3492 15.4275 17.8723 15.625 17.375 15.625H8.315L4.50875 19.27C4.43923 19.337 4.34655 19.3746 4.25 19.375ZM2.375 3.625C2.07663 3.625 1.79048 3.74353 1.5795 3.9545C1.36853 4.16548 1.25 4.45163 1.25 4.75V13.75C1.25 14.0484 1.36853 14.3345 1.5795 14.5455C1.79048 14.7565 2.07663 14.875 2.375 14.875H4.25C4.34946 14.875 4.44484 14.9145 4.51516 14.9848C4.58549 15.0552 4.625 15.1505 4.625 15.25V18.1225L7.90625 14.98C7.97577 14.913 8.06845 14.8754 8.165 14.875H17.375C17.6734 14.875 17.9595 14.7565 18.1705 14.5455C18.3815 14.3345 18.5 14.0484 18.5 13.75V4.75C18.5 4.45163 18.3815 4.16548 18.1705 3.9545C17.9595 3.74353 17.6734 3.625 17.375 3.625H2.375ZM21.5 11.5V2.5C21.5 2.00272 21.3025 1.52581 20.9508 1.17417C20.5992 0.822544 20.1223 0.625 19.625 0.625H4.625C4.12772 0.625 3.65081 0.822544 3.29917 1.17417C2.94754 1.52581 2.75 2.00272 2.75 2.5H3.5C3.5 2.20163 3.61853 1.91548 3.8295 1.7045C4.04048 1.49353 4.32663 1.375 4.625 1.375H19.625C19.9234 1.375 20.2095 1.49353 20.4205 1.7045C20.6315 1.91548 20.75 2.20163 20.75 2.5V11.5C20.75 11.7984 20.6315 12.0845 20.4205 12.2955C20.2095 12.5065 19.9234 12.625 19.625 12.625V13.375C19.8712 13.375 20.115 13.3265 20.3425 13.2323C20.57 13.138 20.7767 12.9999 20.9508 12.8258C21.1249 12.6517 21.263 12.445 21.3573 12.2175C21.4515 11.99 21.5 11.7462 21.5 11.5ZM10.25 9.97C10.6729 9.89851 11.0666 9.70764 11.3846 9.41986C11.7027 9.13208 11.9318 8.75939 12.0451 8.34571C12.1584 7.93202 12.1511 7.49458 12.024 7.08492C11.8969 6.67526 11.6554 6.31045 11.3279 6.03348C11.0004 5.75651 10.6006 5.57892 10.1755 5.52163C9.75045 5.46434 9.31786 5.52975 8.92872 5.71013C8.53959 5.89052 8.21011 6.17838 7.97913 6.53978C7.74815 6.90119 7.62528 7.32109 7.625 7.75H8.375C8.375 7.45333 8.46297 7.16332 8.6278 6.91665C8.79262 6.66997 9.02689 6.47771 9.30097 6.36418C9.57506 6.25065 9.87666 6.22094 10.1676 6.27882C10.4586 6.3367 10.7259 6.47956 10.9357 6.68934C11.1454 6.89912 11.2883 7.16639 11.3462 7.45736C11.4041 7.74834 11.3744 8.04994 11.2608 8.32403C11.1473 8.59811 10.955 8.83238 10.7084 8.9972C10.4617 9.16203 10.1717 9.25 9.875 9.25C9.77554 9.25 9.68016 9.28951 9.60983 9.35983C9.53951 9.43016 9.5 9.52554 9.5 9.625V11.5H10.25V9.97ZM10.25 12.25H9.5V13H10.25V12.25Z" fill="black"/>
</svg>
