<svg width="19" height="20" viewBox="0 0 19 20" fill="none" xmlns="http://www.w3.org/2000/svg">
<path d="M13.5677 13.1511C13.3706 13.0507 13.1527 12.9979 12.9315 12.9967H11.1556C10.9162 12.9969 10.6808 13.0573 10.4708 13.1722C10.2609 13.2872 10.0832 13.453 9.9541 13.6545C10.0542 13.8998 10.1066 14.1618 10.1085 14.4267V14.5162L9.9541 15.7517C10.0838 15.9523 10.2617 16.1173 10.4716 16.2314C10.6815 16.3455 10.9166 16.4052 11.1556 16.4049H12.9315C13.3095 16.4045 13.672 16.2542 13.9395 15.9871C14.2069 15.7199 14.3576 15.3576 14.3584 14.9795V14.4282C14.3582 14.1629 14.2841 13.9029 14.1445 13.6773C14.0048 13.4518 13.8051 13.2696 13.5677 13.1511Z" fill="#848484"/>
<path d="M14.8108 6.54621H14.3027V4.97722C14.3027 2.56042 12.777 1.3358 9.76563 1.3358C5.31655 1.3358 4.65097 3.61825 4.65097 4.97722V6.54621H4.11974C3.49032 6.54784 2.88715 6.7986 2.44208 7.24366C1.99702 7.68873 1.74626 8.2919 1.74463 8.92131V15.9555C1.74707 16.7882 2.07895 17.5862 2.66778 18.175C3.25661 18.7638 4.05452 19.0957 4.88724 19.0981H14.0418C14.8734 19.0941 15.6697 18.7615 16.2572 18.1728C16.8447 17.5842 17.1758 16.7872 17.1782 15.9555V8.92131C17.1766 8.29323 16.9269 7.69122 16.4835 7.24637C16.0401 6.80153 15.4389 6.54987 14.8108 6.54621ZM14.1251 10.0378C14.1251 10.5416 13.925 11.0247 13.5688 11.381C13.2126 11.7372 12.7294 11.9373 12.2257 11.9373C12.1824 11.9373 12.1392 11.9373 12.0975 11.9373C11.6068 11.903 11.1485 11.6796 10.8192 11.3142C10.4898 10.9489 10.315 10.47 10.3316 9.97833C10.3482 9.48669 10.5549 9.02067 10.9082 8.67836C11.2615 8.33604 11.7338 8.14412 12.2257 8.143C12.287 8.14296 12.3484 8.14606 12.4094 8.15226C12.8785 8.1975 13.3139 8.41559 13.631 8.76411C13.9481 9.11262 14.1243 9.56664 14.1251 10.0378ZM6.5458 4.97722C6.5458 4.54482 6.5458 3.22909 9.76718 3.22909C12.2102 3.22909 12.4094 4.02131 12.4094 4.97722V6.54621H6.54117L6.5458 4.97722ZM6.5458 8.30206C6.80456 8.18893 7.08528 8.13492 7.36754 8.14397C7.6498 8.15302 7.92649 8.22488 8.17747 8.35435C8.42845 8.48381 8.6474 8.6676 8.8184 8.89235C8.98939 9.11711 9.10811 9.37716 9.16593 9.65358C9.22375 9.93 9.2192 10.2158 9.15262 10.4903C9.08604 10.7647 8.95911 11.0209 8.78106 11.2401C8.603 11.4593 8.37831 11.636 8.12334 11.7574C7.86837 11.8788 7.58954 11.9419 7.30713 11.9419C7.16047 11.9422 7.01428 11.9251 6.87165 11.891C6.4837 11.7995 6.13434 11.5884 5.87304 11.2874C5.61174 10.9864 5.45175 10.6109 5.41571 10.2139C5.37967 9.81696 5.46941 9.41873 5.67223 9.07561C5.87505 8.73249 6.18066 8.46187 6.5458 8.30206ZM15.0239 14.9795C15.0239 15.5345 14.8035 16.0667 14.411 16.4592C14.0186 16.8516 13.4864 17.072 12.9314 17.072H11.1555C10.8573 17.0723 10.5625 17.0086 10.2911 16.8853C10.0196 16.762 9.77777 16.5818 9.58186 16.357C9.38578 16.582 9.14368 16.7623 8.87194 16.8856C8.60019 17.009 8.30513 17.0725 8.00669 17.072H6.24312C5.68828 17.0716 5.15628 16.851 4.76395 16.4587C4.37162 16.0664 4.15103 15.5344 4.15062 14.9795V14.4282C4.15062 13.8731 4.37103 13.3407 4.76341 12.9481C5.15578 12.5554 5.68801 12.3346 6.24312 12.3342H8.01287C8.31121 12.3343 8.60608 12.3981 8.87774 12.5214C9.14939 12.6447 9.39157 12.8247 9.58804 13.0492C9.78333 12.8253 10.0242 12.6456 10.2945 12.5223C10.5648 12.399 10.8584 12.3349 11.1555 12.3342H12.9314C13.2063 12.3342 13.4786 12.3884 13.7325 12.4936C13.9865 12.5989 14.2173 12.7531 14.4116 12.9476C14.6059 13.1421 14.76 13.3729 14.8651 13.627C14.9701 13.881 15.0241 14.1533 15.0239 14.4282V14.9795Z" fill="#848484"/>
<path d="M12.2257 8.80241C11.898 8.80241 11.5838 8.93257 11.3521 9.16426C11.1204 9.39595 10.9902 9.71018 10.9902 10.0378C10.9902 10.3655 11.1204 10.6797 11.3521 10.9114C11.5838 11.1431 11.898 11.2733 12.2257 11.2733C12.2872 11.2734 12.3486 11.2687 12.4094 11.2594C12.6987 11.212 12.9616 11.0634 13.1514 10.8401C13.3412 10.6168 13.4454 10.3332 13.4454 10.0402C13.4454 9.74708 13.3412 9.46356 13.1514 9.24022C12.9616 9.01688 12.6987 8.86827 12.4094 8.82095C12.3487 8.81004 12.2873 8.80385 12.2257 8.80241Z" fill="#848484"/>
</svg>
