<svg width="24" height="25" viewBox="0 0 24 25" fill="none" xmlns="http://www.w3.org/2000/svg">
    <g clip-path="url(#clip0_1_5766)">
        <path d="M22.41 19.91L17 14.5L14.5 17" stroke="#3A3A3A" stroke-width="2" stroke-linecap="round" stroke-linejoin="round"/>
        <path d="M18.0001 20.5L9.50009 12L1.59009 19.91" stroke="#3A3A3A" stroke-width="2" stroke-linecap="round" stroke-linejoin="round"/>
        <path d="M21 4.5H3C1.89543 4.5 1 5.39543 1 6.5V18.5C1 19.6046 1.89543 20.5 3 20.5H21C22.1046 20.5 23 19.6046 23 18.5V6.5C23 5.39543 22.1046 4.5 21 4.5Z" stroke="#3A3A3A" stroke-width="2" stroke-linecap="round" stroke-linejoin="round"/>
        <path d="M17 10.5C17.5523 10.5 18 10.0523 18 9.5C18 8.94772 17.5523 8.5 17 8.5C16.4477 8.5 16 8.94772 16 9.5C16 10.0523 16.4477 10.5 17 10.5Z" stroke="#3A3A3A" stroke-width="2" stroke-linecap="round" stroke-linejoin="round"/>
    </g>
    <defs>
        <clipPath id="clip0_1_5766">
            <rect width="24" height="24" fill="white" transform="translate(0 0.5)"/>
        </clipPath>
    </defs>
</svg>
