<svg width="25" height="24" viewBox="0 0 25 24" fill="none" xmlns="http://www.w3.org/2000/svg">
<path d="M8.5 10.25C10.8472 10.25 12.75 8.34721 12.75 6C12.75 3.65279 10.8472 1.75 8.5 1.75C6.15279 1.75 4.25 3.65279 4.25 6C4.25 8.34721 6.15279 10.25 8.5 10.25Z" fill="#2F2E41"/>
<path d="M10.5 11.25H6.5C5.24071 11.2516 4.03345 11.7525 3.143 12.643C2.25254 13.5335 1.75159 14.7407 1.75 16V20C1.75 20.1989 1.82902 20.3897 1.96967 20.5303C2.11032 20.671 2.30109 20.75 2.5 20.75H14.5C14.6989 20.75 14.8897 20.671 15.0303 20.5303C15.171 20.3897 15.25 20.1989 15.25 20V16C15.2484 14.7407 14.7475 13.5335 13.857 12.643C12.9665 11.7525 11.7593 11.2516 10.5 11.25Z" fill="#2F2E41"/>
<path d="M17.299 11.494C19.3684 11.494 21.046 9.81641 21.046 7.747C21.046 5.67759 19.3684 4 17.299 4C15.2296 4 13.552 5.67759 13.552 7.747C13.552 9.81641 15.2296 11.494 17.299 11.494Z" fill="#2F2E41"/>
<path d="M23.25 16.5601V20.0901C23.2484 20.2646 23.1784 20.4316 23.0549 20.555C22.9315 20.6785 22.7645 20.7485 22.59 20.7501H16.25V16.0001C16.2484 14.6966 15.8002 13.4331 14.98 12.4201C15.1652 12.3915 15.3525 12.3781 15.54 12.3801H19.06C20.1697 12.3793 21.2344 12.8191 22.0201 13.6029C22.8058 14.3867 23.2481 15.4503 23.25 16.5601Z" fill="#2F2E41"/>
</svg>
