<svg width="22" height="22" viewBox="0 0 22 22" fill="none" xmlns="http://www.w3.org/2000/svg">
<path d="M6.77231 0.924525C6.16891 0.950728 5.59807 1.20545 5.17556 1.63702C5.11856 1.64302 5.06006 1.64227 5.00306 1.65277C4.46851 1.75412 3.98443 2.03451 3.63056 2.44777C3.58788 2.47949 3.55244 2.51992 3.52658 2.56638C3.50072 2.61283 3.48504 2.66426 3.48057 2.71724C3.4761 2.77022 3.48295 2.82355 3.50066 2.87368C3.51837 2.92382 3.54655 2.96961 3.58331 3.00802C4.13531 3.58552 4.49456 4.35802 4.62356 5.16427C4.62356 5.17927 4.62056 5.18902 4.62056 5.20327H4.33781C4.25805 5.20254 4.18013 5.22726 4.11538 5.27383C4.05063 5.32041 4.00242 5.38642 3.97775 5.46227C3.95308 5.53812 3.95323 5.61986 3.9782 5.69562C4.00316 5.77138 4.05163 5.8372 4.11656 5.88352C4.05063 5.92951 4.00123 5.99547 3.97563 6.07166C3.95003 6.14786 3.9496 6.23026 3.97438 6.30673C3.99917 6.38319 4.04787 6.44966 4.1133 6.49635C4.17874 6.54304 4.25744 6.56746 4.33781 6.56602H4.42781C4.26281 7.09027 4.00481 7.49677 3.67556 7.89877C3.09806 8.60527 2.28056 9.29602 1.52831 10.4728C-0.0166935 12.8893 0.132556 16.6265 2.29706 18.7708C4.33181 20.8933 7.77056 21.2428 10.1886 19.6115C12.6951 18.0185 13.7683 14.588 12.6703 11.798C12.0051 9.92677 10.4376 8.75452 9.53081 7.55902C9.29368 7.2558 9.09983 6.9211 8.95481 6.56452C9.03266 6.56093 9.10745 6.53316 9.1688 6.48509C9.23014 6.43702 9.27498 6.37103 9.29709 6.2963C9.3192 6.22156 9.31747 6.1418 9.29215 6.06809C9.26683 5.99438 9.21917 5.9304 9.15581 5.88502C9.2214 5.83892 9.27048 5.77301 9.29587 5.69696C9.32125 5.62091 9.32159 5.53873 9.29685 5.46248C9.2721 5.38622 9.22356 5.3199 9.15836 5.27325C9.09316 5.2266 9.01472 5.20208 8.93456 5.20327H8.81156C8.90606 4.62427 9.19106 3.94777 9.78881 3.11827L9.96431 2.87452C10.0049 2.84247 10.0384 2.80236 10.0627 2.75673C10.0871 2.7111 10.1017 2.66093 10.1057 2.60937C10.1097 2.55781 10.103 2.50598 10.0861 2.45713C10.0691 2.40828 10.0422 2.36348 10.0071 2.32552C9.60304 1.84803 9.02785 1.54804 8.40506 1.49002C7.95143 1.10214 7.36866 0.900126 6.77231 0.924525ZM6.80231 1.66627C6.98831 1.65877 7.17731 1.68652 7.35881 1.74502C7.32672 1.8097 7.31398 1.88227 7.32213 1.95401C7.33028 2.02575 7.35896 2.09361 7.40474 2.14945C7.45051 2.20528 7.51144 2.24671 7.58019 2.26877C7.64894 2.29082 7.72259 2.29256 7.79231 2.27377C8.02134 2.21617 8.26029 2.20997 8.49201 2.25561C8.72373 2.30125 8.94247 2.39761 9.13256 2.53777C9.09656 2.55427 9.07256 2.56927 9.02831 2.58577C8.83481 2.65777 8.56931 2.72827 8.28281 2.78977C7.71056 2.91202 7.04606 2.99602 6.65981 3.00052C6.02981 3.00052 5.42231 2.88127 4.97981 2.74552C4.81481 2.69452 4.70231 2.64502 4.59131 2.59552C4.84144 2.4418 5.1291 2.35999 5.42269 2.35906C5.71629 2.35813 6.00446 2.43813 6.25556 2.59027C6.34109 2.6412 6.44335 2.65605 6.53983 2.63158C6.58761 2.61946 6.63253 2.59805 6.67203 2.56858C6.71153 2.5391 6.74484 2.50213 6.77006 2.45977C6.79527 2.41742 6.81189 2.37052 6.81898 2.32174C6.82607 2.27297 6.82348 2.22327 6.81136 2.1755C6.79924 2.12772 6.77783 2.0828 6.74836 2.0433C6.71888 2.0038 6.68191 1.97049 6.63956 1.94527C6.52706 1.87852 6.41006 1.82527 6.29231 1.77877C6.45731 1.71427 6.62831 1.67377 6.80231 1.66627ZM4.51331 2.96677C4.62581 3.01327 4.72331 3.05977 4.86881 3.10477C5.4493 3.28124 6.05234 3.37244 6.65906 3.37552C6.66006 3.37553 6.66106 3.37553 6.66206 3.37552C7.09556 3.36802 7.76456 3.28327 8.36081 3.15577C8.59481 3.10552 8.79506 3.04477 8.98631 2.98327C8.44631 3.80077 8.14781 4.53277 8.06081 5.20327H5.37581C5.37581 5.17702 5.37881 5.15302 5.37881 5.12602C5.37868 5.10744 5.37718 5.08889 5.37431 5.07052C5.2572 4.31119 4.96217 3.59033 4.51331 2.96677ZM5.20331 6.56602H8.16956C8.32856 7.09327 8.59931 7.57402 8.93231 8.01352C9.93881 9.34102 11.3961 10.4435 11.9646 12.0515C11.966 12.0555 11.9675 12.0595 11.9691 12.0635C12.9328 14.501 11.9571 17.6 9.78056 18.9808C9.77752 18.9832 9.77452 18.9857 9.77156 18.9883C7.67156 20.4073 4.60181 20.096 2.83406 18.248C2.83159 18.2455 2.82909 18.243 2.82656 18.2405C0.965056 16.4008 0.821057 12.9703 2.16056 10.8755C2.85056 9.79552 3.61481 9.15577 4.25531 8.37352C4.66406 7.87402 5.00756 7.30552 5.20331 6.56602ZM6.69131 9.50152C6.631 9.50221 6.57142 9.51479 6.51599 9.53855C6.46055 9.56231 6.41035 9.59678 6.36827 9.63998C6.32618 9.68318 6.29304 9.73426 6.27074 9.7903C6.24843 9.84633 6.23741 9.90622 6.23831 9.96652V10.4623C5.35481 10.655 4.63631 11.297 4.63631 12.1985C4.63631 13.2635 5.59031 14.081 6.69731 14.081C7.36631 14.081 7.84106 14.5348 7.84106 15.047C7.84106 15.557 7.37081 16.0078 6.70706 16.013C6.70181 16.0129 6.69656 16.0129 6.69131 16.013H6.68231C6.02156 16.0055 5.55281 15.5555 5.55281 15.047C5.55281 14.4358 4.63631 14.4358 4.63631 15.047C4.63631 15.962 5.34056 16.688 6.23831 16.877V17.2858C6.23831 17.897 7.15556 17.897 7.15556 17.2858V16.877C8.05406 16.688 8.75831 15.962 8.75831 15.047C8.75831 14.1043 7.97081 13.445 7.03106 13.2868C6.94106 13.2028 6.83981 13.262 6.69731 13.1795C6.02756 13.1795 5.55281 12.7108 5.55281 12.1985C5.55281 11.6855 6.02756 11.231 6.69731 11.231C7.36631 11.231 7.84106 11.6855 7.84106 12.1985C7.84106 12.8098 8.75831 12.8098 8.75831 12.1985C8.75831 11.2963 8.03981 10.6535 7.15556 10.4608V9.96577C7.15636 9.90452 7.14488 9.84373 7.12179 9.78699C7.0987 9.73025 7.06447 9.67871 7.02112 9.63543C6.97776 9.59215 6.92617 9.558 6.8694 9.535C6.81262 9.512 6.75181 9.50062 6.69056 9.50152H6.69131ZM15.1288 13.322C14.2686 13.322 13.5538 14.0105 13.5538 14.864C13.5538 15.3343 13.7751 15.749 14.1133 16.0318C13.9396 16.1734 13.7994 16.3516 13.7027 16.5538C13.606 16.7559 13.5551 16.9769 13.5538 17.201V17.576H13.7136C13.7571 17.7245 13.8223 17.8625 13.8981 17.993H13.6701C12.8091 17.993 12.0951 18.6823 12.0951 19.5358C12.0951 20.3893 12.8091 21.0778 13.6701 21.0778H18.4671C19.3273 21.0778 20.0406 20.3893 20.0406 19.5358C20.0406 19.2448 19.9521 18.9748 19.8088 18.743H19.9243C20.6368 18.743 21.1506 18.2233 21.3396 17.576H21.5001V17.201C21.5001 16.73 21.2788 16.3145 20.9406 16.0318C21.2788 15.749 21.5001 15.3343 21.5001 14.864C21.5001 14.0105 20.7853 13.322 19.9251 13.322H15.1296H15.1288ZM15.1288 14.072H19.9251C20.3938 14.072 20.7501 14.4245 20.7501 14.864C20.7501 15.3043 20.3938 15.6568 19.9251 15.6568H15.1296C14.6608 15.6568 14.3046 15.3043 14.3046 14.864C14.3046 14.4238 14.6608 14.072 15.1296 14.072H15.1288ZM15.1288 16.4083H19.9251C20.3938 16.4083 20.7501 16.7608 20.7501 17.201C20.7501 17.6405 20.3938 17.993 19.9251 17.993H15.1296C14.6608 17.993 14.3046 17.6405 14.3046 17.201C14.3046 16.7608 14.6608 16.4083 15.1296 16.4083H15.1288ZM13.6701 18.743H18.4671C18.9358 18.743 19.2906 19.0955 19.2906 19.5358C19.2906 19.976 18.9358 20.3278 18.4671 20.3278H13.6701C13.2013 20.3278 12.8451 19.9753 12.8451 19.5358C12.8451 19.0955 13.2013 18.743 13.6701 18.743Z" fill="#3F3D56"/>
</svg>
