<svg width="20" height="21" viewBox="0 0 20 21" fill="none" xmlns="http://www.w3.org/2000/svg">
    <path d="M17.8571 9.25H16.7857V6.4375C16.7857 3.16406 13.7411 0.5 10 0.5C6.25893 0.5 3.21429 3.16406 3.21429 6.4375V9.25H2.14286C0.959821 9.25 0 10.0898 0 11.125V18.625C0 19.6602 0.959821 20.5 2.14286 20.5H17.8571C19.0402 20.5 20 19.6602 20 18.625V11.125C20 10.0898 19.0402 9.25 17.8571 9.25ZM13.2143 9.25H6.78571V6.4375C6.78571 4.88672 8.22768 3.625 10 3.625C11.7723 3.625 13.2143 4.88672 13.2143 6.4375V9.25Z" fill="#2F2E41"/>
</svg>
