<svg width="24" height="25" viewBox="0 0 24 25" fill="none" xmlns="http://www.w3.org/2000/svg">
    <path d="M12 10.5C11.6044 10.5 11.2178 10.6173 10.8889 10.8371C10.56 11.0568 10.3036 11.3692 10.1522 11.7346C10.0009 12.1001 9.96126 12.5022 10.0384 12.8902C10.1156 13.2781 10.3061 13.6345 10.5858 13.9142C10.8655 14.1939 11.2219 14.3844 11.6098 14.4616C11.9978 14.5387 12.3999 14.4991 12.7654 14.3478C13.1308 14.1964 13.4432 13.94 13.6629 13.6111C13.8827 13.2822 14 12.8956 14 12.5C14 11.9696 13.7893 11.4609 13.4142 11.0858C13.0391 10.7107 12.5304 10.5 12 10.5ZM5 10.5C4.60444 10.5 4.21776 10.6173 3.88886 10.8371C3.55996 11.0568 3.30362 11.3692 3.15224 11.7346C3.00087 12.1001 2.96126 12.5022 3.03843 12.8902C3.1156 13.2781 3.30608 13.6345 3.58579 13.9142C3.86549 14.1939 4.22186 14.3844 4.60982 14.4616C4.99778 14.5387 5.39992 14.4991 5.76537 14.3478C6.13082 14.1964 6.44318 13.94 6.66294 13.6111C6.8827 13.2822 7 12.8956 7 12.5C7 11.9696 6.78929 11.4609 6.41421 11.0858C6.03914 10.7107 5.53043 10.5 5 10.5ZM19 10.5C18.6044 10.5 18.2178 10.6173 17.8889 10.8371C17.56 11.0568 17.3036 11.3692 17.1522 11.7346C17.0009 12.1001 16.9613 12.5022 17.0384 12.8902C17.1156 13.2781 17.3061 13.6345 17.5858 13.9142C17.8655 14.1939 18.2219 14.3844 18.6098 14.4616C18.9978 14.5387 19.3999 14.4991 19.7654 14.3478C20.1308 14.1964 20.4432 13.94 20.6629 13.6111C20.8827 13.2822 21 12.8956 21 12.5C21 11.9696 20.7893 11.4609 20.4142 11.0858C20.0391 10.7107 19.5304 10.5 19 10.5Z" fill="#3A3A3A"/>
</svg>
