<svg width="20" height="19" viewBox="0 0 20 19" fill="none" xmlns="http://www.w3.org/2000/svg">
<path d="M19.5123 9.35008H18.8539C18.6833 7.97508 17.8525 6.80008 16.6839 6.12508L18.3907 4.37508C18.4369 4.32992 18.4737 4.27562 18.4988 4.21546C18.5239 4.1553 18.5369 4.09053 18.5369 4.02508C18.5369 3.95963 18.5239 3.89486 18.4988 3.8347C18.4737 3.77453 18.4369 3.72023 18.3907 3.67508L14.9509 0.148291C14.7559 -0.051709 14.4389 -0.051709 14.2682 0.148291L0.956952 13.8001C0.88588 13.8674 0.835109 13.9541 0.810655 14.0501L0.00602172 18.4001C-0.00560873 18.4816 0.00156812 18.5648 0.0269759 18.6429C0.0523837 18.7211 0.0953141 18.792 0.152319 18.8501C0.196701 18.897 0.249729 18.9344 0.308328 18.9602C0.366926 18.9859 0.429928 18.9995 0.493678 19.0001H0.591209L4.83382 18.1751C4.93135 18.1501 5.02888 18.1001 5.07808 18.0251L8.78383 14.2251V18.0001C8.78418 18.1326 8.83567 18.2595 8.92705 18.3532C9.01842 18.4469 9.14226 18.4997 9.27149 18.5001H19.5123C19.6415 18.4997 19.7653 18.4469 19.8567 18.3532C19.9481 18.2595 19.9996 18.1326 19.9999 18.0001V9.85008C19.9996 9.71758 19.9481 9.5906 19.8567 9.49691C19.7653 9.40322 19.6415 9.35043 19.5123 9.35008ZM17.8786 9.35008H10.9051C11.1733 7.75008 12.6363 6.50008 14.3919 6.50008C14.8161 6.49686 15.2374 6.57248 15.6354 6.72329C15.6799 6.75096 15.7299 6.76804 15.7817 6.77329C16.8789 7.22329 17.6836 8.19829 17.8786 9.34829V9.35008ZM4.49246 17.2233L1.10325 17.8751L1.7372 14.4001L14.6113 1.20008L17.3666 4.02508L15.7329 5.70008C15.2973 5.56896 14.8459 5.50163 14.3919 5.50008C12.0999 5.50008 10.198 7.20008 9.92983 9.35008H9.27149C9.14226 9.35043 9.01842 9.40322 8.92705 9.49691C8.83567 9.5906 8.78418 9.71758 8.78383 9.85008V12.8251L4.49246 17.2233ZM19.0246 17.5001H9.75915V10.3483H19.0246V17.5001Z" fill="#3F3D56"/>
</svg>
