<svg width="25" height="24" viewBox="0 0 25 24" fill="none" xmlns="http://www.w3.org/2000/svg">
<path d="M17.16 2C20.56 2 22.5 3.92 22.5 7.33V16.67C22.5 20.06 20.57 22 17.17 22H7.83C4.42 22 2.5 20.06 2.5 16.67V7.33C2.5 3.92 4.42 2 7.83 2H17.16ZM12.49 7.51C12.03 7.51 11.66 7.88 11.66 8.34V11.16H8.83C8.61 11.16 8.4 11.25 8.24 11.4C8.09 11.56 8 11.769 8 11.99C8 12.45 8.37 12.82 8.83 12.83H11.66V15.66C11.66 16.12 12.03 16.49 12.49 16.49C12.95 16.49 13.32 16.12 13.32 15.66V12.83H16.16C16.62 12.82 16.99 12.45 16.99 11.99C16.99 11.53 16.62 11.16 16.16 11.16H13.32V8.34C13.32 7.88 12.95 7.51 12.49 7.51Z" fill="#2F2E41"/>
</svg>
