<svg width="21" height="20" viewBox="0 0 21 20" fill="none" xmlns="http://www.w3.org/2000/svg">
<path d="M15.9292 6.06666H15.3702V4.47704C15.3702 2.02734 13.8235 0.79097 10.7733 0.79097C6.26403 0.79097 5.59132 3.10244 5.59132 4.47704V6.06666H5.00616C4.38124 6.0699 3.78293 6.32 3.34162 6.76247C2.9003 7.20493 2.65176 7.80389 2.65015 8.42881V15.6812C2.65258 16.504 2.98055 17.2925 3.56242 17.8744C4.14429 18.4563 4.93277 18.7842 5.75566 18.7867H15.1859C16.0087 18.7842 16.7972 18.4563 17.3791 17.8744C17.961 17.2925 18.2889 16.504 18.2914 15.6812V8.42881C18.2897 7.80283 18.0404 7.20295 17.5977 6.76031C17.1551 6.31767 16.5552 6.06828 15.9292 6.06666ZM7.50961 4.47704C7.50961 4.03778 7.50961 2.70465 10.7733 2.70465C13.2507 2.70465 13.4519 3.50637 13.4519 4.47704V6.06666H7.50961V4.47704ZM12.5856 9.82952C12.5853 10.2101 12.4722 10.582 12.2606 10.8983C12.0489 11.2145 11.7483 11.4609 11.3966 11.6064C11.0449 11.7518 10.658 11.7897 10.2848 11.7153C9.91162 11.6408 9.56886 11.4574 9.29988 11.1882C9.0309 10.919 8.84777 10.5761 8.77363 10.2029C8.6995 9.8296 8.7377 9.44273 8.88341 9.09118C9.02911 8.73962 9.27577 8.43916 9.59221 8.22777C9.90864 8.01638 10.2807 7.90355 10.6612 7.90355C10.9141 7.90355 11.1644 7.95338 11.398 8.05018C11.6316 8.14699 11.8438 8.28888 12.0225 8.46774C12.2012 8.64661 12.343 8.85894 12.4396 9.0926C12.5362 9.32626 12.5858 9.57667 12.5856 9.82952ZM13.4979 14.8702C13.4979 15.4226 13.2785 15.9523 12.888 16.3429C12.4974 16.7334 11.9677 16.9528 11.4153 16.9528H9.5431C8.99102 16.9524 8.46168 16.7328 8.07145 16.3423C7.68121 15.9518 7.462 15.4223 7.462 14.8702V14.2344C7.46141 13.9973 7.50194 13.7619 7.5818 13.5386C7.71715 13.1554 7.9618 12.8203 8.28553 12.5747C8.60925 12.329 8.99786 12.1836 9.40333 12.1564C9.44989 12.154 9.49654 12.154 9.5431 12.1564H11.4153C11.5181 12.156 11.6209 12.1637 11.7225 12.1794C12.1072 12.2359 12.4684 12.3991 12.7651 12.6505C13.0619 12.9019 13.2822 13.2314 13.4012 13.6016C13.4669 13.8061 13.5001 14.0196 13.4995 14.2344L13.4979 14.8702Z" fill="#848484"/>
</svg>
