<svg width="25" height="24" viewBox="0 0 25 24" fill="none" xmlns="http://www.w3.org/2000/svg">
<path d="M12.5 2.06885C13.0977 2.06885 13.6896 2.18658 14.2418 2.41533C14.7941 2.64407 15.2959 2.97935 15.7185 3.40202C16.1412 3.82468 16.4765 4.32646 16.7052 4.8787C16.934 5.43094 17.0517 6.02283 17.0517 6.62057V10.3447H7.94824V6.62057C7.94824 5.41338 8.4278 4.25563 9.28141 3.40202C10.135 2.5484 11.2928 2.06885 12.5 2.06885Z" stroke="#848484" stroke-width="2" stroke-miterlimit="10"/>
<path d="M5.46547 9.51709H19.5344C19.9734 9.51709 20.3944 9.69147 20.7048 10.0019C21.0152 10.3123 21.1896 10.7333 21.1896 11.1723V20.2757C21.1896 20.7147 21.0152 21.1357 20.7048 21.4461C20.3944 21.7565 19.9734 21.9309 19.5344 21.9309H5.46547C5.0265 21.9309 4.6055 21.7565 4.29509 21.4461C3.98469 21.1357 3.8103 20.7147 3.8103 20.2757V11.1723C3.8103 10.7333 3.98469 10.3123 4.29509 10.0019C4.6055 9.69147 5.0265 9.51709 5.46547 9.51709Z" fill="#848484"/>
</svg>
