<svg data-name="Layer 1" xmlns="http://www.w3.org/2000/svg" viewBox="0 0 192.37 192.29">
    <defs>
        <linearGradient id="a" x1="3.82" y1="100.72" x2="196.18" y2="100.72" gradientTransform="matrix(1 0 0 -1 0 200.72)" gradientUnits="userSpaceOnUse">
            <stop offset="0" stop-color="#e8a240"/>
            <stop offset="1" stop-color="#ef5f23"/>
        </linearGradient>
    </defs>
    <path d="M99.93 3.86a96.19 96.19 0 0 0-96.11 96.38A94.69 94.69 0 0 0 8.28 129l.4 1.08c16.77 50.42 71.11 77.86 121.53 61.1A96.1 96.1 0 0 0 99.93 3.86ZM49 165a22.77 22.77 0 0 1-8.52 1.62A88.38 88.38 0 0 1 15 128a25.73 25.73 0 0 1 4.86-7.17A27.15 27.15 0 1 1 49 165Zm10.27-63.41c-6.49 0-11.76-5.81-11.76-13a13.83 13.83 0 0 1 2-7.3l20.55 12.3a12 12 0 0 1-10.82 8Zm71.11 25a2.3 2.3 0 0 1-1.62 1 1.53 1.53 0 0 1-1.08-.41c-24.47-16.49-46.64-.27-46.91 0a2 2 0 1 1-2.44-3.24c.27-.14 24.74-18.12 51.51 0a2.06 2.06 0 0 1 .51 2.66ZM152 81.32a13.83 13.83 0 0 1 2 7.3c0 7.16-5.28 13-11.76 13a11.94 11.94 0 0 1-10.82-8Zm7.57 85.3a25.94 25.94 0 0 1-8.38-1.76 27.21 27.21 0 1 1 29.06-44.61 25.47 25.47 0 0 1 5 7 91.09 91.09 0 0 1-25.7 39.37Z" transform="translate(-3.82 -3.86)" style="fill:url(#a)"/>
</svg>
