<svg width="20" height="20" viewBox="0 0 20 20" fill="none" xmlns="http://www.w3.org/2000/svg">
<path d="M10 0C4.47581 0 0 4.47581 0 10C0 15.5242 4.47581 20 10 20C15.5242 20 20 15.5242 20 10C20 4.47581 15.5242 0 10 0ZM10 18.0645C5.55242 18.0645 1.93548 14.4476 1.93548 10C1.93548 5.55242 5.55242 1.93548 10 1.93548C14.4476 1.93548 18.0645 5.55242 18.0645 10C18.0645 14.4476 14.4476 18.0645 10 18.0645ZM14.2581 11.9597C13.2137 12.2944 11.6613 12.4879 10 12.4879C8.33871 12.4879 6.79032 12.2944 5.74194 11.9597C5.34274 11.8347 4.95968 12.1774 5.02823 12.5766C5.34677 14.4758 7.90323 15.8024 10 15.8024C12.0968 15.8024 14.6492 14.4758 14.9718 12.5766C15.0363 12.1815 14.6613 11.8347 14.2581 11.9597ZM6.77419 9.35484C7.4879 9.35484 8.06452 8.77823 8.06452 8.06452C8.06452 7.35081 7.4879 6.77419 6.77419 6.77419C6.06048 6.77419 5.48387 7.35081 5.48387 8.06452C5.48387 8.77823 6.06048 9.35484 6.77419 9.35484ZM13.2258 9.35484C13.9395 9.35484 14.5161 8.77823 14.5161 8.06452C14.5161 7.35081 13.9395 6.77419 13.2258 6.77419C12.5121 6.77419 11.9355 7.35081 11.9355 8.06452C11.9355 8.77823 12.5121 9.35484 13.2258 9.35484Z" fill="#848484"/>
</svg>
