<svg width="23" height="23" viewBox="0 0 23 23" fill="none" xmlns="http://www.w3.org/2000/svg">
<path d="M8.59664 11.0608C8.69904 10.936 8.69904 10.7552 8.59664 10.6304L8.55824 10.5856C7.92624 9.8176 7.10864 9.3968 6.25424 9.4048C5.39504 9.4128 4.57584 9.8496 3.95504 10.6288L3.89584 10.7008C3.79184 10.824 3.79024 11.0016 3.88944 11.128C3.95664 11.2112 4.05424 11.256 4.15504 11.256C4.20624 11.256 4.25904 11.2432 4.30864 11.2192C6.32144 10.1936 8.10224 11.1056 8.17584 11.1456C8.31824 11.2208 8.49424 11.1856 8.59664 11.0608Z" fill="#848484"/>
<path d="M14.0911 14.2144L14.0031 14.2928C12.5727 15.6032 10.4015 15.6224 8.95191 14.3344L8.89911 14.288C8.73591 14.1424 8.48631 14.1584 8.34071 14.3216C8.19511 14.4848 8.21111 14.7344 8.37431 14.88L8.42551 14.9264C9.29431 15.6976 10.3759 16.0816 11.4559 16.0816C12.5583 16.0816 13.6607 15.68 14.5311 14.8816L14.6111 14.8112C14.7759 14.6672 14.7935 14.4176 14.6495 14.2528C14.5055 14.088 14.2559 14.072 14.0911 14.2144Z" fill="#848484"/>
<path d="M14.5327 10.5856L14.4943 10.632C14.3919 10.7568 14.3919 10.9344 14.4943 11.0608C14.5967 11.1856 14.7711 11.2208 14.9151 11.1456C14.9887 11.1056 16.7695 10.1936 18.7823 11.2192C18.8319 11.2432 18.8847 11.256 18.9359 11.256C19.0367 11.256 19.1343 11.2112 19.2015 11.128C19.3007 11.0016 19.2991 10.824 19.1967 10.7008L19.1423 10.6352C18.5151 9.8496 17.6975 9.4128 16.8367 9.4048C15.9807 9.4032 15.1647 9.8176 14.5327 10.5856Z" fill="#848484"/>
<path d="M11.4527 0.0367966C5.17591 0.0367966 0.0703125 5.1424 0.0703125 11.4176C0.0703125 12.5952 0.247912 13.7536 0.599912 14.8624L0.639912 14.9888C1.26391 16.8768 2.38231 18.5776 3.87031 19.9056C5.95671 21.7712 8.64951 22.8 11.4527 22.8C14.2575 22.8 16.9503 21.7712 19.0351 19.904C20.5471 18.5536 21.6719 16.8256 22.2895 14.9072C22.6511 13.784 22.8351 12.6096 22.8351 11.4176C22.8351 5.1424 17.7295 0.0367966 11.4527 0.0367966ZM20.9343 13.8352C20.3519 13.248 19.5455 12.8848 18.6543 12.8848C16.8799 12.8848 15.4399 14.3232 15.4399 16.0992C15.4399 17.4688 16.2991 18.6384 17.5071 19.0992C15.7871 20.4592 13.6607 21.2 11.4527 21.2C9.25271 21.2 7.13271 20.464 5.41591 19.1136C6.64631 18.6656 7.52471 17.4848 7.52471 16.0992C7.52471 14.3232 6.08631 12.8848 4.31031 12.8848C3.39511 12.8848 2.56791 13.2688 1.98231 13.8848C1.77591 13.0848 1.67031 12.2576 1.67031 11.4176C1.67031 6.024 6.05911 1.6368 11.4527 1.6368C16.8463 1.6368 21.2351 6.024 21.2351 11.4176C21.2351 12.2384 21.1343 13.0496 20.9343 13.8352Z" fill="#848484"/>
</svg>
