<svg data-name="Layer 1" xmlns="http://www.w3.org/2000/svg" viewBox="0 0 192.37 192.29">
    <defs>
        <linearGradient id="a" x1="100" y1="35.58" x2="100" y2="210.78" gradientTransform="matrix(1 0 0 -1 0 200.72)" gradientUnits="userSpaceOnUse">
            <stop offset="0" stop-color="#fdb927"/>
            <stop offset="1" stop-color="#ffce00"/>
        </linearGradient>
    </defs>
    <path d="M99.93 3.86a96.08 96.08 0 0 0-96.11 96.25A94.91 94.91 0 0 0 8.28 129l.4 1.08c16.77 50.42 71.11 77.86 121.53 61.1a96 96 0 0 0 66-91.25C196.18 47 153.06 4 99.93 3.86ZM50.18 93.08s-1.08 20.14-8.11 15.41 8.11-15.41 8.11-15.41ZM49 165a22.77 22.77 0 0 1-8.52 1.62A88.38 88.38 0 0 1 15 128a25.73 25.73 0 0 1 4.86-7.17 27 27 0 0 1 46.78 18.66A26.59 26.59 0 0 1 49 165Zm12.81-68.27A11.65 11.65 0 0 1 51.54 90L70.6 75.23a13.1 13.1 0 0 1 3 8.52c-.03 7.16-5.3 12.98-11.79 12.98Zm68.67 28.66a2.27 2.27 0 0 1-1.62.94 1.54 1.54 0 0 1-1.08-.4c-24.47-16.36-46-.68-46.91 0a2 2 0 1 1-2.43-3.25c.27-.13 24.74-18.11 51.5 0a1.93 1.93 0 0 1 .54 2.71Zm6.22-50.16L155.76 90a11.65 11.65 0 0 1-10.27 6.76c-6.49 0-11.76-5.82-11.76-13a13.91 13.91 0 0 1 2.97-8.53Zm22.85 91.52a25.66 25.66 0 0 1-8.38-1.75 27.21 27.21 0 1 1 29.06-44.62 25.61 25.61 0 0 1 5 7 89.79 89.79 0 0 1-25.68 39.37Z" transform="translate(-3.82 -3.86)" style="fill:url(#a)"/>
</svg>
