<svg width="20" height="20" viewBox="0 0 20 20" fill="none" xmlns="http://www.w3.org/2000/svg">
    <circle cx="9.9805" cy="9.77445" r="9.5098" fill="#E7C789"/>
    <path d="M10.7279 9.77457L14.0525 6.44984C14.1029 6.40111 14.1432 6.34281 14.1709 6.27835C14.1986 6.21389 14.2131 6.14457 14.2137 6.07442C14.2144 6.00427 14.201 5.9347 14.1744 5.86977C14.1479 5.80484 14.1086 5.74585 14.059 5.69625C14.0094 5.64664 13.9504 5.60741 13.8855 5.58085C13.8206 5.55428 13.751 5.54091 13.6809 5.54152C13.6107 5.54213 13.5414 5.55671 13.4769 5.5844C13.4125 5.61209 13.3542 5.65233 13.3054 5.70279L9.98069 9.02739L6.65609 5.70279C6.55665 5.60554 6.42287 5.55142 6.28377 5.55219C6.14468 5.55295 6.0115 5.60854 5.91314 5.70689C5.81477 5.80523 5.75916 5.9384 5.75837 6.0775C5.75758 6.21659 5.81167 6.35038 5.90891 6.44984L9.23364 9.77457L5.90891 13.0993C5.85896 13.1482 5.81919 13.2064 5.79191 13.2708C5.76464 13.3351 5.75039 13.4042 5.75001 13.4741C5.74962 13.544 5.7631 13.6132 5.78967 13.6779C5.81624 13.7425 5.85536 13.8012 5.90477 13.8506C5.95419 13.9 6.01292 13.9391 6.07755 13.9657C6.14219 13.9923 6.21145 14.0057 6.28133 14.0053C6.3512 14.0049 6.42031 13.9907 6.48463 13.9634C6.54896 13.9361 6.60724 13.8963 6.65609 13.8464L9.98069 10.5218L13.3054 13.8464C13.4086 13.9495 13.5438 14.0012 13.6789 14.0012C13.8141 14.0012 13.9494 13.9495 14.0525 13.8464C14.1515 13.7473 14.2072 13.6129 14.2072 13.4728C14.2072 13.3327 14.1515 13.1984 14.0525 13.0993L10.7279 9.77457Z" fill="black"/>
</svg>
