<svg id="Layer_1" data-name="Layer 1" xmlns="http://www.w3.org/2000/svg" xmlns:xlink="http://www.w3.org/1999/xlink" viewBox="0 0 192.37 192.29"><defs><style>.cls-1{fill:url(#linear-gradient);}.cls-2{fill:url(#linear-gradient-2);}.cls-3{fill:url(#linear-gradient-3);}.cls-4{fill:url(#linear-gradient-4);}.cls-5{fill:url(#linear-gradient-5);}.cls-6{fill:url(#linear-gradient-6);}.cls-7{fill:url(#linear-gradient-7);}.cls-8{fill:url(#linear-gradient-8);}.cls-9{fill:url(#linear-gradient-9);}.cls-10{fill:url(#linear-gradient-10);}.cls-11{fill:url(#linear-gradient-11);}</style><linearGradient id="linear-gradient" x1="19.3" y1="104.8" x2="19.68" y2="135.59" gradientUnits="userSpaceOnUse"><stop offset="0" stop-color="#e04136"/><stop offset="1" stop-color="#ef5f23"/></linearGradient><linearGradient id="linear-gradient-2" x1="25.95" y1="125.76" x2="26.69" y2="185.17" xlink:href="#linear-gradient"/><linearGradient id="linear-gradient-3" x1="47.74" y1="103.07" x2="48.13" y2="135.12" xlink:href="#linear-gradient"/><linearGradient id="linear-gradient-4" x1="35" y1="108.41" x2="35" y2="108.52" xlink:href="#linear-gradient"/><linearGradient id="linear-gradient-5" x1="60.85" y1="123.06" x2="60.91" y2="128" xlink:href="#linear-gradient"/><linearGradient id="linear-gradient-6" x1="53.5" y1="113.95" x2="54.44" y2="189.6" xlink:href="#linear-gradient"/><linearGradient id="linear-gradient-7" x1="142.98" y1="90.39" x2="144.36" y2="202.47" xlink:href="#linear-gradient"/><linearGradient id="linear-gradient-8" x1="157.61" y1="108.4" x2="157.61" y2="108.49" xlink:href="#linear-gradient"/><linearGradient id="linear-gradient-9" x1="175.41" y1="113.92" x2="175.46" y2="117.91" xlink:href="#linear-gradient"/><linearGradient id="linear-gradient-10" x1="168.31" y1="110.11" x2="169.35" y2="194.25" xlink:href="#linear-gradient"/><linearGradient id="linear-gradient-11" y1="-1458.46" x2="192.37" y2="-1458.46" gradientTransform="matrix(1, 0, 0, -1, 0, -1362.32)" gradientUnits="userSpaceOnUse"><stop offset="0" stop-color="#fdb927"/><stop offset="1" stop-color="#ffce00"/></linearGradient></defs><path class="cls-1" d="M16.09,116.94a25.7,25.7,0,0,0-4.86,7.12,25,25,0,0,1,16.43-14.37A27.51,27.51,0,0,0,16.09,116.94Z" transform="translate(0)"/><path class="cls-2" d="M36.6,162.6c-.8-.55-11.74-8.31-20.72-27.08A87,87,0,0,0,36.6,162.6Z" transform="translate(0)"/><path class="cls-3" d="M35.89,108.42a25.79,25.79,0,0,1,21.29,10.27,22.33,22.33,0,0,1,2.72,4.18A27.18,27.18,0,0,0,35.89,108.42Z" transform="translate(0)"/><path class="cls-4" d="M35.89,108.42c-.59,0-1.16,0-1.77.07a16.22,16.22,0,0,1,1.7-.07Z" transform="translate(0)"/><path class="cls-5" d="M60.4,123.87a24,24,0,0,1,1,2.26C61.06,125.36,60.74,124.6,60.4,123.87Z" transform="translate(0)"/><path class="cls-6" d="M61.24,145.32a25.15,25.15,0,0,1-16.47,15.82,4.29,4.29,0,0,0,.5-.19A27.16,27.16,0,0,0,63,135.46a26.88,26.88,0,0,0-1.65-9.33A26.74,26.74,0,0,1,61.24,145.32Z" transform="translate(0)"/><path class="cls-7" d="M145.3,160.11a24.94,24.94,0,0,1-13.76-14.79,27.23,27.23,0,0,1,4.05-26.63A25.8,25.8,0,0,1,157,108.42a27.18,27.18,0,0,0-11.73,51.69Z" transform="translate(0)"/><path class="cls-8" d="M158.19,108.45c-.4,0-.77,0-1.16,0h.06C157.45,108.42,157.83,108.43,158.19,108.45Z" transform="translate(0)"/><path class="cls-9" d="M176.42,116.39c-.64-.63-1.3-1.23-2-1.81A23.42,23.42,0,0,1,176.42,116.39Z" transform="translate(0)"/><path class="cls-10" d="M181.55,124.1c-9.59,28-25.41,38.53-25.41,38.53l-.24,0a91.91,91.91,0,0,0,25.45-39A3.6,3.6,0,0,1,181.55,124.1Z" transform="translate(0)"/><g id="icons"><path class="cls-11" d="M96.12,0A96.2,96.2,0,0,0,0,96.39a95,95,0,0,0,4.46,28.79l.41,1.08A96.17,96.17,0,1,0,96.12,0ZM44.68,161.18a22.58,22.58,0,0,1-8,1.45l0,0a87,87,0,0,1-20.72-27.08c-.28-.56-.55-1.15-.81-1.73-.37-.74-.71-1.5-1-2.27a79.25,79.25,0,0,1-2.84-7.42v0a25.7,25.7,0,0,1,4.86-7.12,27.51,27.51,0,0,1,11.57-7.25l.55-.16.14,0a24.84,24.84,0,0,1,5-.94,4.91,4.91,0,0,1,.65-.06h.07c.61-.06,1.18-.06,1.77-.07a27.18,27.18,0,0,1,24,14.45c.14.27.29.55.42.84l.08.16c.34.73.66,1.49,1,2.26A26.88,26.88,0,0,1,63,135.46,27.16,27.16,0,0,1,45.27,161a4.29,4.29,0,0,1-.5.19ZM35.82,94.49a2.42,2.42,0,0,1-1.35.27,2.9,2.9,0,0,1-2.3-1.08A2.85,2.85,0,0,1,32.31,90l.54-.54C38.12,82.87,45,79.22,52.32,79.08s14.19,3.52,19.46,10l.27.4a3,3,0,0,1,0,3.65,2.71,2.71,0,0,1-3.51.68A37.11,37.11,0,0,0,35.82,94.49Zm87.33,30-.13.13-.68.54a38.33,38.33,0,0,1-51.5.41l-.41-.41a3.35,3.35,0,0,1,4.46-5l.14.54a31.75,31.75,0,0,0,42.72-.4l.81-.68a3.35,3.35,0,1,1,4.59,4.87Zm1.9-30.69a2.71,2.71,0,0,1-3.25-.68,3,3,0,0,1,0-3.65l.27-.4c5.41-6.49,12.3-10,19.47-10S155.73,82.87,161,89.49l.4.54a2.69,2.69,0,0,1,0,3.65,2.87,2.87,0,0,1-2.3,1.08,4.69,4.69,0,0,1-1.35-.27A38,38,0,0,0,125.05,93.82Zm30.68,68.94a30,30,0,0,1-8.38-1.75c-.67-.26-1.34-.54-2-.86l-.07,0A27.18,27.18,0,0,1,157,108.42c.39,0,.76,0,1.16,0h.1a27,27,0,0,1,12.49,3.62l.8.47.67.43c.38.26.75.52,1.1.78s.72.54,1.07.82c0,0,0,0,0,0,.68.58,1.34,1.18,2,1.81.25.26.5.52.74.79s.49.53.72.81a25.84,25.84,0,0,1,3.54,5.43.56.56,0,0,1-.07.18,91.91,91.91,0,0,1-25.45,39A1.25,1.25,0,0,1,155.73,162.76Z" transform="translate(0)"/></g></svg>