<svg data-name="Layer 1" xmlns="http://www.w3.org/2000/svg" viewBox="0 0 193.32 193.24">
    <defs>
        <linearGradient id="a" x1="3.34" y1="100.72" x2="196.66" y2="100.72" gradientTransform="matrix(1 0 0 -1 0 200.72)" gradientUnits="userSpaceOnUse">
            <stop offset="0" stop-color="#fdb927"/>
            <stop offset="1" stop-color="#ffce00"/>
        </linearGradient>
        <linearGradient id="b" x1="61.08" y1="522.18" x2="138.79" y2="522.18" gradientTransform="translate(0 -393.28)" gradientUnits="userSpaceOnUse">
            <stop offset="0" stop-color="#e04136"/>
            <stop offset="1" stop-color="#ef5f23"/>
        </linearGradient>
        <linearGradient id="c" x1="100.96" y1="561.13" x2="100.28" y2="518.23" gradientTransform="translate(0 -393.28)" gradientUnits="userSpaceOnUse">
            <stop offset="0" stop-color="#e8a240"/>
            <stop offset="1" stop-color="#ef5f23"/>
        </linearGradient>
    </defs>
    <path d="M99.93 3.38a96.68 96.68 0 0 0-96.59 96.86 95.3 95.3 0 0 0 4.48 28.94l.41 1.09c16.85 50.67 71.46 78.25 122.13 61.4A96.58 96.58 0 0 0 99.93 3.38ZM48.58 165.32A23 23 0 0 1 40 167a88.84 88.84 0 0 1-25.54-38.86 26.05 26.05 0 0 1 4.89-7.2 27.12 27.12 0 0 1 38.45-1.22 27.48 27.48 0 0 1-9.24 45.65ZM79.42 86 46.54 98.07a3.83 3.83 0 0 1-1.22.27 3.23 3.23 0 0 1-3.13-2.17 3.39 3.39 0 0 1 2-4.35l25.68-9.37L43.82 69A3.44 3.44 0 0 1 47 62.88l32.88 17a3.29 3.29 0 0 1 1.76 3.26A3.25 3.25 0 0 1 79.42 86Zm38.85 0a3.23 3.23 0 0 1-2.17-3 3.41 3.41 0 0 1 1.9-3.26l33-17a3.57 3.57 0 0 1 4.62 1.49 3.45 3.45 0 0 1-1.49 4.62l-26.08 13.46 25.68 9.37a3.36 3.36 0 0 1-1.09 6.53 2 2 0 0 1-1.22-.28Zm41.44 81a22.78 22.78 0 0 1-8.43-1.77 27.35 27.35 0 1 1 29.21-44.83 25.71 25.71 0 0 1 5 7.06A89.67 89.67 0 0 1 159.71 167Z" transform="translate(-3.34 -3.38)" style="fill:url(#a)"/>
    <path d="M61.08 107.17s38-14.67 77.71 0c0 0-34.51 112.49-77.71 0Z" transform="translate(-3.34 -3.38)" style="fill:url(#b)"/>
    <path d="M80.1 137.2s18.75-15.49 40.75.13c0 0-18.47 35.05-40.75-.13Z" transform="translate(-3.34 -3.38)" style="fill:url(#c)"/>
</svg>
