<svg id="Layer_1" data-name="Layer 1" xmlns="http://www.w3.org/2000/svg" viewBox="0 0 193.32 193.24">
    <defs>
        <linearGradient id="linear-gradient" x1="100.13" y1="222.38" x2="96.01" y2="76.17" gradientTransform="matrix(1 0 0 -1 0 196)" gradientUnits="userSpaceOnUse">
            <stop offset="0" stop-color="#fdb927"/>
            <stop offset="1" stop-color="#ffce00"/>
        </linearGradient>
        <linearGradient id="linear-gradient-2" x1="97.48" y1="1892.43" x2="99.03" y2="2017.01" gradientTransform="translate(0 -1798)" gradientUnits="userSpaceOnUse">
            <stop offset="0" stop-color="#e04136"/>
            <stop offset="1" stop-color="#ef5f23"/>
        </linearGradient>
        <style>
            .cls-3{fill:#ffc200}
        </style>
    </defs>
    <path d="M96.59 0A96.68 96.68 0 0 0 0 96.86a95.3 95.3 0 0 0 4.48 28.94l.41 1.09c16.85 50.67 71.46 78.25 122.13 61.4a96.51 96.51 0 0 0 66.3-91.7A97.09 97.09 0 0 0 96.59 0ZM45.38 161.94a23 23 0 0 1-8.56 1.63 88.84 88.84 0 0 1-25.54-38.86 26.05 26.05 0 0 1 4.89-7.2 27.11 27.11 0 0 1 38.44-1.22 27.49 27.49 0 0 1-9.23 45.65Zm16.43-63.58c-8.15 0-14.67-8.7-14.67-19.29s6.52-19.29 14.67-19.29 14.68 8.69 14.68 19.29S70 98.36 61.81 98.36Zm52.71-19.29c0-10.74 6.53-19.29 14.68-19.29s14.67 8.69 14.67 19.29-6.52 19.29-14.67 19.29-14.68-8.56-14.68-19.29Zm42 84.5a22.77 22.77 0 0 1-8.42-1.77 27.35 27.35 0 1 1 29.19-44.8 25.92 25.92 0 0 1 5 7.06 92.91 92.91 0 0 1-25.79 39.51Z" style="fill:url(#linear-gradient)"/>
    <ellipse cx="98.09" cy="143.33" rx="22.42" ry="28.67" style="fill:url(#linear-gradient-2)"/>
    <ellipse class="cls-3" cx="62.22" cy="82.19" rx="8.15" ry="11.96"/>
    <ellipse class="cls-3" cx="129.74" cy="82.19" rx="8.15" ry="11.96"/>
</svg>
