<svg width="21" height="21" viewBox="0 0 21 21" fill="none" 
xmlns="http://www.w3.org/2000/svg">
<path d="M16.8011 9.4725H19.2914L11.3108 1.49365V3.99071C11.3131 5.44513 
11.8926 6.8392 12.9219 7.86694C13.9512 8.89468 15.3464 9.47211 16.8011 
9.4725Z" fill="#848484"/>
<path d="M19.9319 10.5166H16.5807C14.937 10.5146 13.3611 9.86096 12.1988 
8.69892C11.0365 7.53688 10.3827 5.96137 10.3807 4.318V0.725166L6.02166 
0.700195C4.42876 0.70562 2.90269 1.34087 1.7766 2.46725C0.650517 3.59364 
0.0158777 5.11968 0.0112305 6.71224V14.6882C0.0158777 16.2807 0.650517 
17.8067 1.7766 18.9331C2.90269 20.0595 4.42876 20.6948 6.02166 
20.7002H13.9979C15.5913 20.6955 17.1181 20.0606 18.2448 18.9342C19.3715 
17.8077 20.0066 16.2812 20.0112 14.6882V10.5048C19.9856 10.5128 19.9588 
10.5168 19.9319 10.5166ZM5.58091 17.7302C5.07576 17.7304 4.58187 17.5809 
4.16174 17.3005C3.7416 17.0201 3.41409 16.6214 3.22065 16.1549C3.0272 
15.6884 2.97651 15.1749 3.07499 14.6796C3.17347 14.1843 3.41669 13.7292 
3.77388 13.3721C4.13108 13.015 4.58619 12.7718 5.08165 12.6734C5.5771 
12.5749 6.09064 12.6256 6.55728 12.819C7.02392 13.0124 7.42269 13.3398 
7.70316 13.7599C7.98362 14.1799 8.13317 14.6737 8.13288 15.1787C8.13249 
15.8553 7.8635 16.504 7.38499 16.9824C6.90649 17.4608 6.25761 17.7298 
5.58091 17.7302ZM8.24748 5.87352L7.60691 6.49779C7.47571 6.62569 7.37759 
6.78359 7.32103 6.95785C7.26446 7.13212 7.25114 7.31752 7.28222 
7.49808L7.42914 8.3794C7.44012 8.44291 7.4331 8.50824 7.40886 
8.56797C7.38462 8.6277 7.34414 8.67945 7.292 8.71737C7.23986 8.75528 
7.17814 8.77784 7.11383 8.78249C7.04953 8.78714 6.9852 8.77369 6.92815 
8.74367L6.13626 8.32652C5.97388 8.24182 5.79344 8.1976 5.61029 
8.1976C5.42714 8.1976 5.2467 8.24182 5.08432 8.32652L4.29096 8.74367C4.234 
8.77389 4.16969 8.78748 4.10538 8.78289C4.04106 8.77831 3.97933 8.75573 
3.92724 8.71774C3.87515 8.67975 3.83479 8.62788 3.81077 8.56805C3.78676 
8.50822 3.78006 8.44285 3.79144 8.3794L3.93836 7.49808C3.96906 7.31753 
3.95556 7.13223 3.89901 6.95803C3.84247 6.78383 3.74456 6.62591 3.61367 
6.49779L2.98045 5.87352C2.93468 5.82854 2.90236 5.77169 2.88712 
5.70937C2.87187 5.64704 2.8743 5.5817 2.89414 5.52067C2.91398 5.45965 
2.95043 5.40536 2.99942 5.36391C3.0484 5.32245 3.10797 5.29546 3.17144 
5.28598L4.05296 5.15672C4.23425 5.13084 4.40649 5.06113 4.55473 
4.95362C4.70297 4.84611 4.82273 4.70406 4.90361 4.5398L5.30029 
3.73633C5.32887 3.67875 5.37297 3.6303 5.42761 3.59643C5.48225 3.56255 
5.54526 3.5446 5.60956 3.5446C5.67385 3.5446 5.73686 3.56255 5.7915 
3.59643C5.84614 3.6303 5.89024 3.67875 5.91882 3.73633L6.3155 
4.53833C6.39659 4.70244 6.5164 4.84436 6.6646 4.95184C6.81281 5.05932 
6.98494 5.12913 7.16616 5.15525L8.04767 5.28451C8.11217 5.29241 8.17313 
5.31835 8.22354 5.35935C8.27395 5.40035 8.31177 5.45473 8.33264 
5.51626C8.35351 5.57779 8.35659 5.64396 8.34153 5.70716C8.32646 5.77035 
8.29386 5.82802 8.24748 5.87352ZM15.2761 16.3024C14.9425 16.6182 14.612 
16.89 14.5988 16.9017L13.7172 17.6362L12.8357 16.9017C12.8225 16.8914 
12.4919 16.6182 12.1584 16.3024C11.5164 15.6929 11.1183 15.1846 11.1183 
14.5295C11.1195 14.2279 11.2187 13.9347 11.4009 13.6943C11.5831 13.4539 
11.8385 13.2791 12.1286 13.1962C12.4187 13.1134 12.7279 13.127 13.0097 
13.235C13.2914 13.343 13.5304 13.5396 13.6908 13.7951C13.6939 13.8003 
13.6984 13.8045 13.7036 13.8075C13.7089 13.8104 13.7149 13.812 13.7209 
13.812C13.727 13.812 13.7329 13.8104 13.7382 13.8075C13.7435 13.8045 
13.7479 13.8003 13.751 13.7951C13.9114 13.5396 14.1504 13.343 14.4322 
13.235C14.7139 13.127 15.0231 13.1134 15.3132 13.1962C15.6034 13.2791 
15.8587 13.4539 16.041 13.6943C16.2232 13.9347 16.3223 14.2279 16.3236 
14.5295C16.3162 15.1876 15.9181 15.6958 15.2775 16.3054L15.2761 16.3024Z" 
fill="#848484"/>
</svg>

