<svg width="21" height="20" viewBox="0 0 21 20" fill="none" 
xmlns="http://www.w3.org/2000/svg">
<path d="M16.5369 5.14892C15.732 5.14894 14.9432 5.37446 14.2599 
5.79992L11.0499 3.88742C11.007 3.86268 10.9618 3.84209 10.9149 
3.82592C11.0118 3.54287 11.0624 3.24607 11.0649 2.94692C11.0653 2.29435 
10.8396 1.66181 10.4263 1.15679C10.013 0.651774 9.43762 0.305441 8.79788 
0.176651C8.15815 0.0478621 7.49356 0.144563 6.91705 0.450319C6.34054 
0.756076 5.88769 1.25202 5.63546 1.85387C5.38323 2.45573 5.34718 3.12635 
5.53344 3.75177C5.7197 4.3772 6.11677 4.91883 6.65718 5.28463C7.19759 
5.65042 7.84798 5.81781 8.49784 5.75835C9.14769 5.69888 9.75691 5.41622 
10.2219 4.95842C10.2613 5.00036 10.3062 5.0367 10.3554 5.06642L13.1859 
6.75092C12.7233 7.31863 12.4127 7.9947 12.2833 8.71554C12.1539 9.43637 
12.2101 10.1783 12.4464 10.8714L9.37595 12.7074C8.78029 11.6725 7.81498 
10.9014 6.67402 10.549C5.53306 10.1967 4.30103 10.2893 3.22555 
10.8082C2.15008 11.3271 1.31087 12.2339 0.87661 13.3462C0.442347 14.4586 
0.445215 15.6941 0.884637 16.8044C1.32406 17.9147 2.16746 18.8176 3.24534 
19.3315C4.32321 19.8454 5.55566 19.9323 6.69497 19.5747C7.83428 19.2171 
8.796 18.4415 9.38685 17.4038C9.97769 16.3661 10.1539 15.1432 9.87995 
13.9809C9.93243 13.9651 9.98279 13.9429 10.0299 13.9149L13.0854 
12.0849C13.5297 12.6738 14.117 13.1394 14.7917 13.4376C15.4664 13.7357 
16.2062 13.8565 16.9407 13.7885C17.6752 13.7204 18.3801 13.4659 18.9886 
13.0489C19.5971 12.6319 20.0889 12.0663 20.4174 11.4059C20.7459 10.7454 
20.9002 10.0119 20.8657 9.2751C20.8311 8.53826 20.6088 7.82247 20.22 
7.19566C19.8311 6.56885 19.2885 6.05181 18.6436 5.6936C17.9988 5.33539 
17.2731 5.1479 16.5354 5.14892H16.5369ZM16.5369 12.4599C16.0078 12.4594 
15.4884 12.3179 15.032 12.0501C14.5757 11.7822 14.1989 11.3977 13.9404 
10.9359C13.9241 10.8913 13.9041 10.8481 13.8804 10.8069C13.8804 10.7979 
13.8669 10.7904 13.8609 10.7829C13.5689 10.1872 13.485 9.51074 13.6226 
8.86169C13.7602 8.21265 14.1113 7.62844 14.6199 7.20242C14.6745 7.17134 
14.7249 7.13355 14.7699 7.08992C15.1485 6.8095 15.5881 6.62289 16.0528 
6.54544C16.5175 6.46799 16.9939 6.5019 17.4429 6.64438C17.892 6.78687 
18.3008 7.03386 18.6358 7.36507C18.9708 7.69628 19.2224 8.10225 19.37 
8.54963C19.5176 8.997 19.5569 9.47301 19.4847 9.93853C19.4126 10.4041 
19.231 10.8458 18.9549 11.2275C18.6788 11.6092 18.316 11.9199 17.8965 
12.1342C17.4769 12.3484 17.0125 12.4601 16.5414 12.4599H16.5369Z" 
fill="#848484"/>
</svg>

