<svg width="24" height="25" viewBox="0 0 24 25" fill="none" xmlns="http://www.w3.org/2000/svg">
<path d="M2.84024 23.8144H4.64392H10.3422H21.1597C21.3492 23.8144 21.5025 23.661 21.5025 23.4715V12.0443C22.0623 11.9476 22.5563 11.6197 22.8716 11.124C23.2309 10.5598 23.3139 9.84729 23.0943 9.21782L20.3701 1.41548C20.3219 1.27787 20.192 1.18579 20.0464 1.18579H3.95252C3.80687 1.18579 3.67696 1.27787 3.62874 1.41581L0.905641 9.21816C0.685999 9.84762 0.769034 10.5601 1.12796 11.124C1.44372 11.6199 1.93806 11.9479 2.49738 12.0445V23.4715C2.49738 23.661 2.65073 23.8144 2.84024 23.8144ZM4.98678 23.1286V16.2286C4.98678 16.161 5.04203 16.1058 5.10966 16.1058H9.87685C9.94448 16.1058 9.99939 16.161 9.99939 16.2286V23.1286H4.98678ZM10.6851 23.1286V16.2286C10.6851 15.7827 10.3225 15.4201 9.87685 15.4201H5.10966C4.66368 15.4201 4.30107 15.7827 4.30107 16.2286V23.1286H3.1831V12.0503C3.81363 11.9547 4.3552 11.5885 4.68548 11.0725C5.07174 11.6757 5.74632 12.0775 6.51424 12.0775C7.28213 12.0775 7.95654 11.6758 8.34269 11.0726C8.72885 11.6758 9.40326 12.0775 10.1712 12.0775C10.9387 12.0775 11.613 11.6762 11.9993 11.0734C12.3853 11.6765 13.0595 12.0782 13.8271 12.0782C14.5959 12.0782 15.271 11.6766 15.6576 11.0736C16.0439 11.6762 16.7182 12.0775 17.4857 12.0775C18.2536 12.0775 18.928 11.6758 19.3141 11.0726C19.6445 11.5886 20.1862 11.9548 20.8168 12.0504V23.1286H10.6851ZM2.8343 5.77318H21.1651L21.6738 7.23032H2.32579L2.8343 5.77318ZM4.19593 1.87151H19.803L20.9257 5.08746H3.07361L4.19593 1.87151ZM1.70653 10.756C1.45944 10.3676 1.40185 9.87708 1.55319 9.44416L2.08647 7.91604H21.9132L22.4467 9.44416C22.5981 9.87675 22.5405 10.3673 22.2934 10.756C22.062 11.1193 21.7074 11.3423 21.2946 11.3841C21.2444 11.3895 21.1938 11.3918 21.1426 11.3918C20.3233 11.3918 19.657 10.7255 19.657 9.90621C19.657 9.71671 19.5036 9.56336 19.3141 9.56336C19.1246 9.56336 18.9713 9.71671 18.9713 9.90621C18.9713 10.7255 18.305 11.3918 17.4857 11.3918C16.6688 11.3918 16.0045 10.7293 16.0005 9.91341C16.0005 9.91153 16.0007 9.90973 16.0007 9.90789C16.0007 9.85993 15.9906 9.81439 15.9729 9.77296C15.9209 9.64974 15.7991 9.56336 15.6569 9.56336C15.4674 9.56336 15.314 9.71671 15.314 9.90621C15.314 9.90881 15.3144 9.91132 15.3144 9.91392C15.311 10.7297 14.6453 11.3925 13.8271 11.3925C13.009 11.3925 12.3436 10.7274 12.3426 9.90956C12.3426 9.90839 12.3428 9.90734 12.3428 9.90621C12.3428 9.71671 12.1895 9.56336 11.9999 9.56336C11.8104 9.56336 11.6571 9.71671 11.6571 9.90621L11.6568 9.90789L11.6568 9.90898C11.6553 10.727 10.9895 11.3918 10.1712 11.3918C9.35185 11.3918 8.68555 10.7255 8.68555 9.90621C8.68555 9.71671 8.5322 9.56336 8.34269 9.56336C8.15319 9.56336 7.99984 9.71671 7.99984 9.90621C7.99984 10.7255 7.33354 11.3918 6.51424 11.3918C5.69493 11.3918 5.0283 10.7255 5.0283 9.90621C5.0283 9.71671 4.87495 9.56336 4.68544 9.56336C4.49593 9.56336 4.34258 9.71671 4.34258 9.90621C4.34258 10.7255 3.67629 11.3918 2.85698 11.3918C2.80609 11.3918 2.75519 11.3895 2.70464 11.3841C2.29247 11.3423 1.9379 11.1193 1.70653 10.756Z" fill="#3F3D56"/>
<path d="M9.1989 18.9178C9.38841 18.9178 9.54176 18.7645 9.54176 18.575C9.54176 18.3855 9.38841 18.2321 9.1989 18.2321H8.76498C8.57547 18.2321 8.42212 18.3855 8.42212 18.575V20.4178C8.42212 20.6073 8.57547 20.7607 8.76498 20.7607H9.1989C9.38841 20.7607 9.54176 20.6073 9.54176 20.4178C9.54176 20.2283 9.38841 20.075 9.1989 20.075H9.10783V18.9178H9.1989ZM19.3142 14.6428H12.4778C12.2883 14.6428 12.135 14.7962 12.135 14.9857V19.6491C12.135 19.8386 12.2883 19.9919 12.4778 19.9919H19.3142C19.5037 19.9919 19.6571 19.8386 19.6571 19.6491V14.9857C19.6571 14.7962 19.5037 14.6428 19.3142 14.6428ZM18.9713 19.3062H12.8207V15.3285H18.9713V19.3062Z" fill="#3F3D56"/>
<path d="M13.585 18.6325C13.652 18.6995 13.7397 18.733 13.8274 18.733C13.9151 18.733 14.0029 18.6995 14.0698 18.6325L15.9117 16.7907C16.0456 16.6567 16.0456 16.4398 15.9117 16.3058C15.7778 16.1719 15.5608 16.1719 15.4269 16.3058L13.585 18.1477C13.4511 18.2816 13.4511 18.4986 13.585 18.6325ZM13.5234 17.6468C13.6111 17.6468 13.6988 17.6133 13.7658 17.5463L14.8255 16.4866C14.9594 16.3527 14.9594 16.1357 14.8255 16.0018C14.6916 15.8679 14.4746 15.8679 14.3407 16.0018L13.281 17.0615C13.1471 17.1955 13.1471 17.4124 13.281 17.5463C13.348 17.6133 13.4357 17.6468 13.5234 17.6468Z" fill="#3F3D56"/>
</svg>
