<svg width="13" height="17" viewBox="0 0 13 17" fill="none" xmlns="http://www.w3.org/2000/svg">
<g clip-path="url(#clip0_1_5131)">
<path d="M9.59524 0H1.54762C1.13731 0.000476126 0.743937 0.166468 0.453804 0.461561C0.163671 0.756654 0.000468124 1.15675 0 1.57407V15.4259C0.000468124 15.8432 0.163671 16.2433 0.453804 16.5384C0.743937 16.8335 1.13731 16.9995 1.54762 17H9.59524C10.0055 16.9995 10.3989 16.8335 10.6891 16.5384C10.9792 16.2433 11.1424 15.8432 11.1429 15.4259V12.1519L12.5087 13.1621C12.5548 13.1962 12.6094 13.2167 12.6663 13.2212C12.7232 13.2258 12.7802 13.2142 12.831 13.1878C12.8819 13.1615 12.9246 13.1213 12.9544 13.0719C12.9842 13.0224 13 12.9655 13 12.9074V4.09259C12.9999 3.84214 12.902 3.60197 12.7279 3.42487C12.5538 3.24778 12.3177 3.14824 12.0714 3.14815H11.1429V1.57407C11.1424 1.15675 10.9792 0.756654 10.6891 0.461561C10.3989 0.166468 10.0055 0.000476126 9.59524 0ZM8.47529 0.62963L8.14242 1.30747C8.08683 1.46135 7.99094 1.59684 7.86513 1.69932C7.73931 1.80179 7.58836 1.86734 7.42857 1.88889H3.71429C3.5545 1.86734 3.40355 1.80179 3.27773 1.69932C3.15192 1.59684 3.05603 1.46135 3.00044 1.30747L2.66756 0.62963H8.47529ZM1.54762 0.62963H1.97565L2.44718 1.58883C2.5518 1.84879 2.72598 2.07371 2.94996 2.23805C3.17394 2.40239 3.43874 2.49955 3.71429 2.51852H7.42857C7.70452 2.50007 7.96983 2.40313 8.19424 2.23875C8.41864 2.07438 8.59313 1.84918 8.6978 1.58883L9.16756 0.62963H9.59524C9.71719 0.629582 9.83796 0.653979 9.95064 0.701425C10.0633 0.748871 10.1657 0.818436 10.2519 0.906146C10.3382 0.993855 10.4066 1.09799 10.4532 1.21259C10.4999 1.3272 10.5239 1.45003 10.5238 1.57407V3.14815H6.5C6.25376 3.14824 6.01762 3.24778 5.8435 3.42487C5.66938 3.60197 5.57152 3.84214 5.57143 4.09259V12.9074C5.57139 12.9655 5.58716 13.0225 5.61699 13.072C5.64683 13.1216 5.68957 13.1618 5.74047 13.1881C5.79137 13.2145 5.84846 13.226 5.90541 13.2215C5.96236 13.2169 6.01694 13.1963 6.06313 13.1621L7.58422 12.0374L9.10531 13.1621C9.1582 13.2012 9.22191 13.2223 9.28731 13.2223C9.3527 13.2223 9.41641 13.2012 9.46931 13.1621L10.5252 12.3807V13.8519H0.620462V1.57407C0.620556 1.32362 0.718418 1.08345 0.892538 0.906356C1.06666 0.729259 1.30279 0.629725 1.54903 0.62963H1.54762ZM9.59524 16.3704H1.54762C1.30138 16.3703 1.06524 16.2707 0.891123 16.0936C0.717003 15.9165 0.619141 15.6764 0.619048 15.4259V14.4815H10.5238V15.4259C10.5239 15.5499 10.4999 15.6727 10.4533 15.7873C10.4066 15.9019 10.3383 16.006 10.2521 16.0937C10.1659 16.1814 10.0635 16.251 9.95089 16.2985C9.83825 16.3459 9.71752 16.3704 9.59559 16.3704H9.59524ZM12.381 4.09259V12.2893L11.1701 11.3938C11.1173 11.3545 11.0535 11.3333 10.9881 11.3333C10.9227 11.3333 10.8589 11.3545 10.8061 11.3938L9.28501 12.5185L7.76392 11.3934C7.7111 11.3543 7.64744 11.3332 7.5821 11.3332C7.51675 11.3332 7.45309 11.3543 7.40027 11.3934L6.19048 12.2893V4.09259C6.19048 4.0091 6.22309 3.92902 6.28113 3.86998C6.33918 3.81095 6.41791 3.77778 6.5 3.77778H12.0714C12.1535 3.77787 12.2322 3.81107 12.2902 3.87009C12.3482 3.92911 12.3809 4.00913 12.381 4.09259Z" fill="#3F3D56"/>
<path d="M6.19044 15.1111H4.95235C4.87026 15.1111 4.79153 15.1443 4.73348 15.2033C4.67543 15.2623 4.64282 15.3424 4.64282 15.4259C4.64282 15.5094 4.67543 15.5895 4.73348 15.6485C4.79153 15.7075 4.87026 15.7407 4.95235 15.7407H6.19044C6.27253 15.7407 6.35126 15.7075 6.40931 15.6485C6.46736 15.5895 6.49997 15.5094 6.49997 15.4259C6.49997 15.3424 6.46736 15.2623 6.40931 15.2033C6.35126 15.1443 6.27253 15.1111 6.19044 15.1111Z" fill="#3F3D56"/>
<path d="M1.85713 5.03704H4.95237C5.03446 5.03704 5.11319 5.00387 5.17124 4.94483C5.22928 4.88579 5.26189 4.80572 5.26189 4.72222C5.26189 4.63873 5.22928 4.55866 5.17124 4.49962C5.11319 4.44058 5.03446 4.40741 4.95237 4.40741H1.85713C1.77504 4.40741 1.69631 4.44058 1.63827 4.49962C1.58022 4.55866 1.54761 4.63873 1.54761 4.72222C1.54761 4.80572 1.58022 4.88579 1.63827 4.94483C1.69631 5.00387 1.77504 5.03704 1.85713 5.03704Z" fill="#3F3D56"/>
<path d="M4.95239 5.98151H2.78572C2.70363 5.98151 2.6249 6.01467 2.56685 6.07371C2.50881 6.13275 2.4762 6.21283 2.4762 6.29632C2.4762 6.37982 2.50881 6.45989 2.56685 6.51893C2.6249 6.57797 2.70363 6.61114 2.78572 6.61114H4.95239C5.03448 6.61114 5.11321 6.57797 5.17125 6.51893C5.2293 6.45989 5.26191 6.37982 5.26191 6.29632C5.26191 6.21283 5.2293 6.13275 5.17125 6.07371C5.11321 6.01467 5.03448 5.98151 4.95239 5.98151Z" fill="#3F3D56"/>
<path d="M4.95242 7.55554H2.1667C2.08461 7.55554 2.00588 7.58871 1.94784 7.64775C1.88979 7.70679 1.85718 7.78686 1.85718 7.87036C1.85718 7.95385 1.88979 8.03393 1.94784 8.09296C2.00588 8.152 2.08461 8.18517 2.1667 8.18517H4.95242C5.03451 8.18517 5.11324 8.152 5.17128 8.09296C5.22933 8.03393 5.26194 7.95385 5.26194 7.87036C5.26194 7.78686 5.22933 7.70679 5.17128 7.64775C5.11324 7.58871 5.03451 7.55554 4.95242 7.55554Z" fill="#3F3D56"/>
<path d="M4.95243 9.12964H3.09529C3.0132 9.12964 2.93447 9.16281 2.87642 9.22185C2.81838 9.28088 2.78577 9.36096 2.78577 9.44445C2.78577 9.52795 2.81838 9.60802 2.87642 9.66706C2.93447 9.7261 3.0132 9.75927 3.09529 9.75927H4.95243C5.03452 9.75927 5.11325 9.7261 5.1713 9.66706C5.22935 9.60802 5.26196 9.52795 5.26196 9.44445C5.26196 9.36096 5.22935 9.28088 5.1713 9.22185C5.11325 9.16281 5.03452 9.12964 4.95243 9.12964Z" fill="#3F3D56"/>
<path d="M4.95233 10.7037H4.02376C3.94167 10.7037 3.86294 10.7368 3.80489 10.7959C3.74684 10.8549 3.71423 10.935 3.71423 11.0185C3.71423 11.102 3.74684 11.1821 3.80489 11.2411C3.86294 11.3001 3.94167 11.3333 4.02376 11.3333H4.95233C5.03442 11.3333 5.11315 11.3001 5.1712 11.2411C5.22924 11.1821 5.26185 11.102 5.26185 11.0185C5.26185 10.935 5.22924 10.8549 5.1712 10.7959C5.11315 10.7368 5.03442 10.7037 4.95233 10.7037Z" fill="#3F3D56"/>
<path d="M8.04759 7.24074C7.9655 7.24074 7.88677 7.20757 7.82872 7.14854C7.77068 7.0895 7.73807 7.00942 7.73807 6.92593C7.73807 6.84243 7.70546 6.76236 7.64741 6.70332C7.58936 6.64428 7.51063 6.61111 7.42854 6.61111C7.34645 6.61111 7.26772 6.64428 7.20968 6.70332C7.15163 6.76236 7.11902 6.84243 7.11902 6.92593C7.11986 7.12055 7.17978 7.31016 7.29059 7.46884C7.40139 7.62752 7.55767 7.74752 7.73807 7.81245V7.87037C7.73807 7.95387 7.77068 8.03394 7.82872 8.09298C7.88677 8.15202 7.9655 8.18519 8.04759 8.18519C8.12968 8.18519 8.20841 8.15202 8.26646 8.09298C8.3245 8.03394 8.35711 7.95387 8.35711 7.87037V7.81245C8.56341 7.73847 8.73733 7.59264 8.84806 7.40077C8.95879 7.2089 8.9992 6.98336 8.96214 6.7641C8.92507 6.54483 8.81292 6.34597 8.64553 6.20274C8.47815 6.0595 8.26634 5.98112 8.04759 5.98148C7.98637 5.98148 7.92653 5.96302 7.87563 5.92843C7.82473 5.89384 7.78505 5.84467 7.76163 5.78714C7.7382 5.72962 7.73207 5.66632 7.74401 5.60525C7.75596 5.54418 7.78544 5.48809 7.82872 5.44406C7.87201 5.40003 7.92716 5.37005 7.98721 5.3579C8.04725 5.34576 8.10948 5.35199 8.16604 5.37582C8.2226 5.39965 8.27094 5.44 8.30495 5.49177C8.33896 5.54354 8.35711 5.6044 8.35711 5.66667C8.35711 5.75016 8.38972 5.83024 8.44777 5.88928C8.50582 5.94832 8.58455 5.98148 8.66664 5.98148C8.74873 5.98148 8.82746 5.94832 8.8855 5.88928C8.94355 5.83024 8.97616 5.75016 8.97616 5.66667C8.97532 5.47204 8.9154 5.28243 8.80459 5.12375C8.69379 4.96508 8.53751 4.84507 8.35711 4.78015V4.72222C8.35711 4.63873 8.3245 4.55866 8.26646 4.49962C8.20841 4.44058 8.12968 4.40741 8.04759 4.40741C7.9655 4.40741 7.88677 4.44058 7.82872 4.49962C7.77068 4.55866 7.73807 4.63873 7.73807 4.72222V4.78015C7.53177 4.85412 7.35785 4.99995 7.24712 5.19183C7.13639 5.3837 7.09598 5.60923 7.13304 5.8285C7.17011 6.04777 7.28226 6.24662 7.44965 6.38986C7.61703 6.5331 7.82884 6.61147 8.04759 6.61111C8.12968 6.61111 8.20841 6.64428 8.26646 6.70332C8.3245 6.76236 8.35711 6.84243 8.35711 6.92593C8.35711 7.00942 8.3245 7.0895 8.26646 7.14854C8.20841 7.20757 8.12968 7.24074 8.04759 7.24074Z" fill="#3F3D56"/>
<path d="M11.1428 8.5H7.42854C7.34645 8.5 7.26772 8.53317 7.20968 8.59221C7.15163 8.65125 7.11902 8.73132 7.11902 8.81481C7.11902 8.89831 7.15163 8.97838 7.20968 9.03742C7.26772 9.09646 7.34645 9.12963 7.42854 9.12963H11.1428C11.2249 9.12963 11.3036 9.09646 11.3617 9.03742C11.4197 8.97838 11.4524 8.89831 11.4524 8.81481C11.4524 8.73132 11.4197 8.65125 11.3617 8.59221C11.3036 8.53317 11.2249 8.5 11.1428 8.5Z" fill="#3F3D56"/>
<path d="M11.1428 9.75928H7.42854C7.34645 9.75928 7.26772 9.79244 7.20968 9.85148C7.15163 9.91052 7.11902 9.9906 7.11902 10.0741C7.11902 10.1576 7.15163 10.2377 7.20968 10.2967C7.26772 10.3557 7.34645 10.3889 7.42854 10.3889H11.1428C11.2249 10.3889 11.3036 10.3557 11.3617 10.2967C11.4197 10.2377 11.4524 10.1576 11.4524 10.0741C11.4524 9.9906 11.4197 9.91052 11.3617 9.85148C11.3036 9.79244 11.2249 9.75928 11.1428 9.75928Z" fill="#3F3D56"/>
<path d="M11.1429 5.98151H9.59529C9.5132 5.98151 9.43447 6.01467 9.37642 6.07371C9.31838 6.13275 9.28577 6.21283 9.28577 6.29632C9.28577 6.37982 9.31838 6.45989 9.37642 6.51893C9.43447 6.57797 9.5132 6.61114 9.59529 6.61114H11.1429C11.225 6.61114 11.3037 6.57797 11.3618 6.51893C11.4198 6.45989 11.4524 6.37982 11.4524 6.29632C11.4524 6.21283 11.4198 6.13275 11.3618 6.07371C11.3037 6.01467 11.225 5.98151 11.1429 5.98151Z" fill="#3F3D56"/>
<path d="M9.28577 5.03704C9.28572 5.0784 9.29369 5.11936 9.30923 5.15757C9.32477 5.19579 9.34757 5.23051 9.37632 5.25976C9.40507 5.289 9.43921 5.31219 9.47679 5.32799C9.51436 5.3438 9.55463 5.35191 9.59529 5.35186H11.1429C11.225 5.35186 11.3037 5.31869 11.3618 5.25965C11.4198 5.20061 11.4524 5.12054 11.4524 5.03704C11.4524 4.95355 11.4198 4.87348 11.3618 4.81444C11.3037 4.7554 11.225 4.72223 11.1429 4.72223H9.59529C9.5132 4.72223 9.43447 4.7554 9.37642 4.81444C9.31838 4.87348 9.28577 4.95355 9.28577 5.03704Z" fill="#3F3D56"/>
<path d="M11.1429 7.24072H9.59529C9.5132 7.24072 9.43447 7.27389 9.37642 7.33293C9.31838 7.39197 9.28577 7.47204 9.28577 7.55554C9.28577 7.63903 9.31838 7.71911 9.37642 7.77815C9.43447 7.83718 9.5132 7.87035 9.59529 7.87035H11.1429C11.225 7.87035 11.3037 7.83718 11.3618 7.77815C11.4198 7.71911 11.4524 7.63903 11.4524 7.55554C11.4524 7.47204 11.4198 7.39197 11.3618 7.33293C11.3037 7.27389 11.225 7.24072 11.1429 7.24072Z" fill="#3F3D56"/>
</g>
<defs>
<clipPath id="clip0_1_5131">
<rect width="13" height="17" fill="white"/>
</clipPath>
</defs>
</svg>
