<svg width="24" height="25" viewBox="0 0 24 25" fill="none" xmlns="http://www.w3.org/2000/svg">
<g clip-path="url(#clip0_274_427)">
<path d="M22 13.5C22 13.1022 21.842 12.7206 21.5607 12.4393C21.2794 12.158 20.8978 12 20.5 12V9C20.5 6.74566 19.6045 4.58365 18.0104 2.98959C16.4163 1.39553 14.2543 0.5 12 0.5C9.74566 0.5 7.58365 1.39553 5.98959 2.98959C4.39553 4.58365 3.5 6.74566 3.5 9V12C3.10218 12 2.72064 12.158 2.43934 12.4393C2.15804 12.7206 2 13.1022 2 13.5C1.46957 13.5 0.960859 13.7107 0.585786 14.0858C0.210714 14.4609 0 14.9696 0 15.5C0 16.0304 0.210714 16.5391 0.585786 16.9142C0.960859 17.2893 1.46957 17.5 2 17.5C2 17.8978 2.15804 18.2794 2.43934 18.5607C2.72064 18.842 3.10218 19 3.5 19H5.5C5.63261 19 5.75979 18.9473 5.85355 18.8536C5.94732 18.7598 6 18.6326 6 18.5V12.5C6 12.3674 5.94732 12.2402 5.85355 12.1464C5.75979 12.0527 5.63261 12 5.5 12H4.5V9C4.5 7.01088 5.29018 5.10322 6.6967 3.6967C8.10322 2.29018 10.0109 1.5 12 1.5C13.9891 1.5 15.8968 2.29018 17.3033 3.6967C18.7098 5.10322 19.5 7.01088 19.5 9V12H18.5C18.3674 12 18.2402 12.0527 18.1464 12.1464C18.0527 12.2402 18 12.3674 18 12.5V18.5C18 18.6326 18.0527 18.7598 18.1464 18.8536C18.2402 18.9473 18.3674 19 18.5 19H19.5V20C19.5 20.663 19.2366 21.2989 18.7678 21.7678C18.2989 22.2366 17.663 22.5 17 22.5H14.41C14.3068 22.2082 14.116 21.9555 13.8635 21.7765C13.6111 21.5974 13.3095 21.5009 13 21.5H11C10.6022 21.5 10.2206 21.658 9.93934 21.9393C9.65804 22.2206 9.5 22.6022 9.5 23C9.5 23.3978 9.65804 23.7794 9.93934 24.0607C10.2206 24.342 10.6022 24.5 11 24.5H13C13.3095 24.4991 13.6111 24.4026 13.8635 24.2235C14.116 24.0445 14.3068 23.7918 14.41 23.5H17C17.9283 23.5 18.8185 23.1313 19.4749 22.4749C20.1313 21.8185 20.5 20.9283 20.5 20V19C20.8978 19 21.2794 18.842 21.5607 18.5607C21.842 18.2794 22 17.8978 22 17.5C22.5304 17.5 23.0391 17.2893 23.4142 16.9142C23.7893 16.5391 24 16.0304 24 15.5C24 14.9696 23.7893 14.4609 23.4142 14.0858C23.0391 13.7107 22.5304 13.5 22 13.5ZM1 15.5C1 15.2348 1.10536 14.9804 1.29289 14.7929C1.48043 14.6054 1.73478 14.5 2 14.5V16.5C1.73478 16.5 1.48043 16.3946 1.29289 16.2071C1.10536 16.0196 1 15.7652 1 15.5ZM5 18H3.5C3.36739 18 3.24021 17.9473 3.14645 17.8536C3.05268 17.7598 3 17.6326 3 17.5V13.5C3 13.3674 3.05268 13.2402 3.14645 13.1464C3.24021 13.0527 3.36739 13 3.5 13H5V18ZM13 23.5H11C10.8674 23.5 10.7402 23.4473 10.6464 23.3536C10.5527 23.2598 10.5 23.1326 10.5 23C10.5 22.8674 10.5527 22.7402 10.6464 22.6464C10.7402 22.5527 10.8674 22.5 11 22.5H13C13.1326 22.5 13.2598 22.5527 13.3536 22.6464C13.4473 22.7402 13.5 22.8674 13.5 23C13.5 23.1326 13.4473 23.2598 13.3536 23.3536C13.2598 23.4473 13.1326 23.5 13 23.5ZM21 17.5C21 17.6326 20.9473 17.7598 20.8536 17.8536C20.7598 17.9473 20.6326 18 20.5 18H19V13H20.5C20.6326 13 20.7598 13.0527 20.8536 13.1464C20.9473 13.2402 21 13.3674 21 13.5V17.5ZM22 16.5V14.5C22.2652 14.5 22.5196 14.6054 22.7071 14.7929C22.8946 14.9804 23 15.2348 23 15.5C23 15.7652 22.8946 16.0196 22.7071 16.2071C22.5196 16.3946 22.2652 16.5 22 16.5Z" fill="black"/>
</g>
<defs>
<clipPath id="clip0_274_427">
<rect width="24" height="24" fill="white" transform="translate(0 0.5)"/>
</clipPath>
</defs>
</svg>
