<svg width="20" height="23" viewBox="0 0 20 23" fill="none" xmlns="http://www.w3.org/2000/svg">
<g clip-path="url(#clip0_274_168)">
<path d="M16.5858 5.62385C16.5858 5.61336 16.5755 5.59238 16.5755 5.58014C16.5539 5.53408 16.5258 5.49139 16.4923 5.45339L12.0095 0.907759C11.973 0.87249 11.9307 0.843944 11.8845 0.823403C11.8721 0.814251 11.8566 0.810336 11.8414 0.812476C11.8039 0.800135 11.7649 0.793076 11.7255 0.791496C11.7151 0.791496 11.7044 0.781006 11.6944 0.781006H1.31255C0.964901 0.781353 0.631589 0.921546 0.385765 1.17082C0.13994 1.42009 0.00168512 1.75808 0.00134277 2.1106L0.00134277 21.6708C0.00168528 22.0233 0.139954 22.3612 0.385791 22.6104C0.631628 22.8596 0.964941 22.9997 1.31255 22.9999H15.2957C15.6433 22.9996 15.9765 22.8595 16.2222 22.6103C16.468 22.3611 16.6062 22.0232 16.6065 21.6708V5.76109C16.6068 5.75551 16.6059 5.74993 16.6039 5.74472C16.6019 5.73952 16.5988 5.73482 16.5949 5.73093C16.6014 5.69554 16.5978 5.65898 16.5845 5.6256L16.5858 5.62385ZM15.1203 5.31789H12.5699C12.4541 5.31732 12.3433 5.27044 12.2614 5.18745C12.1796 5.10445 12.1334 4.99206 12.1328 4.87469V2.29024L15.1203 5.31789ZM15.297 22.114H1.31255C1.19681 22.1134 1.08597 22.0665 1.00412 21.9835C0.922277 21.9005 0.876047 21.7882 0.875481 21.6708V2.1106C0.87582 1.99304 0.921936 1.88038 1.00379 1.79713C1.08565 1.71388 1.19662 1.66678 1.31255 1.66609H11.2513V4.87338C11.2517 5.22579 11.3899 5.56366 11.6356 5.81286C11.8814 6.06205 12.2146 6.20219 12.5621 6.20254H15.725V21.6603C15.7321 21.7732 15.6947 21.8843 15.621 21.9693C15.5473 22.0542 15.4433 22.1059 15.3319 22.1131C15.3207 22.1131 15.31 22.1131 15.2988 22.1131L15.297 22.114Z" fill="#3F3D56"/>
<path d="M14.2344 18.4107C14.2431 18.3584 14.2465 18.3054 14.2448 18.2525C14.2453 18.1252 14.221 17.9992 14.1733 17.8815C14.1255 17.7638 14.0554 17.6568 13.9668 17.5667C13.8582 17.4592 13.7266 17.3785 13.5822 17.3309C13.4379 17.2833 13.2847 17.27 13.1344 17.2922C13.1052 17.2488 13.0701 17.2096 13.0301 17.176C12.9423 17.0845 12.8371 17.0122 12.7208 16.9632C12.6046 16.9143 12.4797 16.8899 12.3538 16.8914C12.2007 16.891 12.0498 16.9282 11.9139 16.9998C11.778 17.0715 11.6613 17.1754 11.5737 17.3027C11.4233 17.2775 11.2692 17.2892 11.1242 17.3367C10.9792 17.3842 10.8475 17.4663 10.7401 17.5759C10.6332 17.6854 10.5531 17.8188 10.5061 17.9654C10.4591 18.1119 10.4465 18.2676 10.4694 18.4199C10.3478 18.5096 10.2488 18.6269 10.1801 18.7625C10.1115 18.8981 10.0752 19.0481 10.0741 19.2005C10.0735 19.3559 10.1101 19.5091 10.1808 19.6469C10.2515 19.7847 10.3543 19.903 10.4801 19.9916C10.4546 20.144 10.4659 20.3003 10.5129 20.4473C10.56 20.5943 10.6415 20.7275 10.7504 20.8356C10.8577 20.9448 10.9889 21.0266 11.1333 21.0745C11.2777 21.1225 11.4313 21.1351 11.5814 21.1114C11.6706 21.2372 11.7877 21.3399 11.9232 21.4113C12.0587 21.4828 12.2089 21.5209 12.3616 21.5227C12.5148 21.5232 12.6658 21.486 12.8018 21.4144C12.9377 21.3428 13.0545 21.2388 13.1422 21.1114C13.2925 21.1362 13.4464 21.1242 13.5912 21.0764C13.7359 21.0287 13.8674 20.9466 13.9745 20.8369C14.0813 20.7273 14.1614 20.594 14.2083 20.4474C14.2552 20.3009 14.2677 20.1452 14.2448 19.9929C14.2878 19.9636 14.3265 19.9282 14.3594 19.8876C14.4496 19.7986 14.521 19.6918 14.5692 19.574C14.6175 19.4561 14.6416 19.3295 14.6401 19.2018C14.636 19.0474 14.5974 18.8959 14.5271 18.7589C14.4569 18.6218 14.3568 18.5028 14.2344 18.4107ZM13.7349 19.2547C13.7177 19.27 13.6952 19.2777 13.6724 19.2761H13.6103C13.5235 19.2762 13.4387 19.3022 13.3665 19.351C13.2942 19.3997 13.2378 19.469 13.2043 19.5502C13.1697 19.6312 13.1601 19.721 13.1768 19.8077C13.1935 19.8944 13.2357 19.9739 13.2978 20.0358L13.35 20.0882C13.3649 20.1038 13.3732 20.1247 13.3732 20.1464C13.3732 20.1681 13.3649 20.1889 13.35 20.2045C13.3189 20.2482 13.2875 20.2574 13.2146 20.1831L13.1629 20.1394C13.1003 20.0822 13.0225 20.045 12.9393 20.0322C12.856 20.0193 12.7709 20.0315 12.6944 20.0672C12.6171 20.1037 12.5517 20.1618 12.5059 20.2346C12.4601 20.3075 12.4357 20.3921 12.4357 20.4785V20.5432C12.4357 20.6381 12.2694 20.6381 12.2694 20.5432V20.4694C12.2691 20.3814 12.2433 20.2955 12.1952 20.2223C12.147 20.1492 12.0787 20.092 11.9987 20.0581C11.9457 20.037 11.8892 20.0262 11.8323 20.0262C11.7746 20.0255 11.7174 20.0363 11.6638 20.0581C11.6103 20.0798 11.5615 20.112 11.5202 20.1529L11.4668 20.2045C11.4357 20.236 11.4043 20.2574 11.3521 20.2045C11.3372 20.1889 11.3289 20.1681 11.3289 20.1464C11.3289 20.1247 11.3372 20.1038 11.3521 20.0882L11.4043 20.0358C11.4664 19.9739 11.5086 19.8944 11.5253 19.8077C11.542 19.721 11.5324 19.6312 11.4978 19.5502C11.4643 19.4691 11.4079 19.3999 11.3357 19.3512C11.2636 19.3024 11.1789 19.2763 11.0922 19.2761H11.0297C11.0076 19.2761 10.9865 19.2672 10.9709 19.2514C10.9553 19.2356 10.9465 19.2141 10.9465 19.1918C10.9465 19.1694 10.9553 19.1479 10.9709 19.1321C10.9865 19.1163 11.0076 19.1074 11.0297 19.1074H11.0922C11.1774 19.1073 11.2608 19.0826 11.3326 19.0361C11.4045 18.9897 11.4618 18.9234 11.4978 18.8452C11.5338 18.767 11.5451 18.6794 11.5303 18.5945C11.5154 18.5095 11.475 18.4313 11.4146 18.3705L11.3521 18.3071C11.3453 18.301 11.3397 18.2936 11.3356 18.2853C11.3316 18.277 11.3293 18.268 11.3287 18.2588C11.3281 18.2496 11.3294 18.2403 11.3324 18.2316C11.3354 18.2229 11.34 18.2148 11.3461 18.2079L11.3521 18.2018C11.3646 18.1851 11.383 18.174 11.4034 18.171C11.4238 18.168 11.4446 18.1732 11.4612 18.1856C11.4672 18.1902 11.4726 18.1957 11.4771 18.2018L11.5293 18.2542C11.5903 18.3172 11.6686 18.3599 11.754 18.3768C11.8394 18.3938 11.9279 18.3841 12.0077 18.3491C12.0877 18.3151 12.1561 18.258 12.2042 18.1848C12.2524 18.1117 12.2782 18.0257 12.2784 17.9378V17.8639C12.2784 17.8006 12.3409 17.7267 12.4241 17.811C12.4371 17.8256 12.4444 17.8443 12.4448 17.8639V17.9378C12.445 18.0257 12.4708 18.1117 12.519 18.1848C12.5671 18.258 12.6355 18.3151 12.7155 18.3491C12.7954 18.3841 12.8838 18.3938 12.9692 18.3768C13.0546 18.3599 13.1329 18.3172 13.1939 18.2542L13.2461 18.2018C13.2892 18.1581 13.3189 18.1581 13.3603 18.2018C13.3814 18.2228 13.3814 18.2333 13.3814 18.2647C13.3814 18.2757 13.3814 18.2966 13.3383 18.339L13.2866 18.3915C13.2299 18.4547 13.1928 18.5335 13.1797 18.6179C13.1667 18.7023 13.1784 18.7888 13.2133 18.8666C13.2494 18.9449 13.3068 19.0112 13.3787 19.0577C13.4506 19.1041 13.5341 19.1288 13.6194 19.1288H13.6819C13.6926 19.1287 13.7033 19.1306 13.7133 19.1347C13.7233 19.1387 13.7324 19.1446 13.7402 19.1522C13.7479 19.1598 13.7541 19.1689 13.7583 19.1789C13.7626 19.1889 13.7649 19.1997 13.7651 19.2106V19.2132C13.7547 19.2132 13.7547 19.2342 13.734 19.2569L13.7349 19.2547Z" fill="#3F3D56"/>
<path d="M20.0013 19.1811L19.969 3.06029C19.9676 2.90755 19.9323 2.75709 19.8657 2.62011C19.7991 2.48313 19.7028 2.36317 19.584 2.26918V1.15069C19.584 0.845701 19.4646 0.553205 19.2519 0.337547C19.0392 0.121888 18.7508 0.000732422 18.45 0.000732422C18.1492 0.000732422 17.8608 0.121888 17.6481 0.337547C17.4354 0.553205 17.3159 0.845701 17.3159 1.15069V2.26918C17.1981 2.36396 17.1024 2.48408 17.0358 2.62088C16.9693 2.75769 16.9335 2.90776 16.931 3.06029L16.9621 19.1811C16.9641 19.2137 16.9716 19.2458 16.984 19.2759V19.3197L18.0659 22.6852C18.0947 22.7741 18.1504 22.8516 18.2251 22.9065C18.2999 22.9614 18.3898 22.991 18.4821 22.991C18.5744 22.991 18.6643 22.9614 18.7391 22.9065C18.8138 22.8516 18.8695 22.7741 18.8983 22.6852L19.9802 19.3197V19.2759C19.9922 19.2457 19.9993 19.2136 20.0013 19.1811ZM17.8371 18.7488L17.8164 5.24307H19.1047L19.1254 18.7488H17.8371ZM18.9668 2.94446C18.9835 2.94406 19.0001 2.94701 19.0157 2.95316C19.0312 2.9593 19.0454 2.96851 19.0575 2.98026C19.0695 2.99201 19.0791 3.00606 19.0857 3.02159C19.0924 3.03713 19.0959 3.05385 19.0961 3.07078V4.34749H17.803V3.07078C17.8024 3.05476 17.805 3.03879 17.8105 3.02377C17.816 3.00875 17.8244 2.99498 17.8352 2.98325C17.8459 2.97152 17.8589 2.96205 17.8733 2.9554C17.8876 2.94874 17.9032 2.94503 17.919 2.94446H18.9668ZM18.4375 0.88713C18.5061 0.88713 18.5719 0.914759 18.6204 0.96394C18.6689 1.01312 18.6961 1.07983 18.6961 1.14938V2.05981H18.1789V1.15069C18.1892 1.01345 18.3039 0.888441 18.4375 0.888441V0.88713ZM18.4806 21.1239L18.0022 19.6378H18.959L18.4806 21.1239Z" fill="#3F3D56"/>
<path d="M2.6961 14.001H13.9121C14.0279 14.0047 14.1405 13.9615 14.225 13.8811C14.3095 13.8006 14.359 13.6894 14.3627 13.572C14.3664 13.4545 14.3238 13.3403 14.2445 13.2546C14.1652 13.1689 14.0555 13.1187 13.9396 13.115H2.6961C2.58018 13.115 2.46901 13.1617 2.38705 13.2448C2.30508 13.3279 2.25903 13.4406 2.25903 13.5582C2.25903 13.6757 2.30508 13.7885 2.38705 13.8716C2.46901 13.9547 2.58018 14.0014 2.6961 14.0014V14.001Z" fill="#3F3D56"/>
<path d="M14.3491 15.4674C14.3486 15.35 14.3023 15.2376 14.2205 15.1546C14.1386 15.0716 14.0278 15.0247 13.9121 15.0242H2.6961C2.58018 15.0242 2.46901 15.0709 2.38705 15.154C2.30508 15.2371 2.25903 15.3498 2.25903 15.4674C2.25903 15.5849 2.30508 15.6976 2.38705 15.7808C2.46901 15.8639 2.58018 15.9106 2.6961 15.9106H13.9121C14.0278 15.91 14.1386 15.8631 14.2205 15.7801C14.3023 15.6971 14.3486 15.5847 14.3491 15.4674Z" fill="#3F3D56"/>
<path d="M2.6961 10.1924H13.9121C14.0279 10.1961 14.1405 10.153 14.225 10.0725C14.3095 9.99205 14.359 9.88085 14.3627 9.76336C14.3664 9.64588 14.3238 9.53173 14.2445 9.44603C14.1652 9.36033 14.0555 9.31011 13.9396 9.3064H2.6961C2.58018 9.3064 2.46901 9.35309 2.38705 9.43621C2.30508 9.51932 2.25903 9.63205 2.25903 9.7496C2.25903 9.86714 2.30508 9.97987 2.38705 10.063C2.46901 10.1461 2.58018 10.1928 2.6961 10.1928V10.1924Z" fill="#3F3D56"/>
<path d="M2.6961 12.1018H13.9121C14.0279 12.1055 14.1405 12.0624 14.225 11.9819C14.3095 11.9014 14.359 11.7902 14.3627 11.6728C14.3664 11.5553 14.3238 11.4411 14.2445 11.3554C14.1652 11.2697 14.0555 11.2195 13.9396 11.2158C13.9302 11.2158 13.9211 11.2158 13.9121 11.2158H2.6961C2.58024 11.2121 2.46767 11.2552 2.38316 11.3357C2.29865 11.4161 2.24912 11.5273 2.24546 11.6448C2.2418 11.7623 2.28432 11.8764 2.36366 11.9621C2.44299 12.0478 2.55266 12.098 2.66852 12.1018H2.6961Z" fill="#3F3D56"/>
<path d="M3.7992 8.28269H12.8199C12.9357 8.2864 13.0483 8.24328 13.1328 8.16283C13.2173 8.08238 13.2669 7.97118 13.2705 7.8537C13.2742 7.73621 13.2317 7.62206 13.1523 7.53636C13.073 7.45067 12.9633 7.40044 12.8475 7.39673H3.7992C3.68379 7.39776 3.5734 7.44476 3.49188 7.5276C3.41035 7.61044 3.36421 7.72246 3.36342 7.83949C3.36291 7.89732 3.37367 7.95469 3.39507 8.00829C3.41648 8.0619 3.44811 8.11069 3.48816 8.15187C3.52821 8.19305 3.57588 8.2258 3.62844 8.24825C3.68101 8.2707 3.73742 8.2824 3.79446 8.28269H3.7992Z" fill="#3F3D56"/>
</g>
<defs>
<clipPath id="clip0_274_168">
<rect width="20" height="23" fill="white"/>
</clipPath>
</defs>
</svg>
