<svg width="29" height="29" viewBox="0 0 29 29" fill="none" xmlns="http://www.w3.org/2000/svg">
    <path d="M17 21.5H4C3.46957 21.5 2.96086 21.2893 2.58579 20.9142C2.21071 20.5391 2 20.0304 2 19.5V9.5C2 8.96957 2.21071 8.46086 2.58579 8.08579C2.96086 7.71071 3.46957 7.5 4 7.5H17C17.5304 7.5 18.0391 7.71071 18.4142 8.08579C18.7893 8.46086 19 8.96957 19 9.5V19.5C19 20.0304 18.7893 20.5391 18.4142 20.9142C18.0391 21.2893 17.5304 21.5 17 21.5Z" fill="#3A3A3A"/>
    <path d="M21 11.4998V17.4998L25.445 20.4638C25.5957 20.5643 25.7708 20.622 25.9517 20.6308C26.1326 20.6395 26.3125 20.599 26.4722 20.5134C26.6319 20.4279 26.7653 20.3006 26.8583 20.1452C26.9512 19.9897 27.0002 19.8119 27 19.6308V9.3688C27 9.18776 26.9509 9.01011 26.8579 8.85479C26.7648 8.69948 26.6314 8.57234 26.4718 8.48693C26.3121 8.40152 26.1323 8.36105 25.9515 8.36983C25.7707 8.37861 25.5956 8.43632 25.445 8.5368L21 11.4998Z" fill="#3A3A3A"/>
</svg>
