<svg width="20" height="20" viewBox="0 0 20 20" fill="none" xmlns="http://www.w3.org/2000/svg">
<path d="M11.4517 7.69588H5.11037V5.09719C5.11037 4.73984 5.11037 3.64983 7.70779 3.64983C9.6788 3.64983 9.83905 4.30623 9.83905 5.09719H11.3628C11.3628 3.0966 10.1319 2.08284 7.70342 2.08284C4.11394 2.08284 3.57785 3.9713 3.57785 5.09719V7.69588H3.47296C2.87997 7.69864 2.3121 7.94195 1.8932 8.37275C1.4743 8.80355 1.23835 9.38688 1.23682 9.99552V14.3959C1.23835 15.375 1.61765 16.3135 2.29172 17.0062C2.96579 17.6989 3.87973 18.0893 4.83358 18.0921H10.0954C11.0495 18.0897 11.9639 17.6995 12.6382 17.0067C13.3126 16.314 13.6921 15.3752 13.6937 14.3959V9.99552C13.6921 9.38584 13.4554 8.80161 13.0352 8.37065C12.6151 7.93968 12.0457 7.69706 11.4517 7.69588Z" fill="#848484"/>
<path d="M15.4312 1.57141L13.0842 4.31732L14.2319 5.35071L16.5789 2.6048L15.4312 1.57141Z" fill="#848484"/>
<path d="M16.7917 4.65273L14.5881 5.82259L15.2895 7.21441L17.4931 6.04455L16.7917 4.65273Z" fill="#848484"/>
<path d="M19.0414 7.65989L15.4944 7.95856L15.6192 9.5203L19.1662 9.22163L19.0414 7.65989Z" fill="#848484"/>
</svg>
