<svg width="10" height="10" viewBox="0 0 10 10" fill="none" xmlns="http://www.w3.org/2000/svg">
<g clip-path="url(#clip0_1_5412)">
<path d="M5 0.9375C2.75633 0.9375 0.9375 2.75635 0.9375 5C0.9375 7.24365 2.75633 9.0625 5 9.0625C7.24365 9.0625 9.0625 7.24365 9.0625 5C9.0625 2.75635 7.24365 0.9375 5 0.9375ZM4.57912 8.45701C3.80834 8.36471 3.09518 8.01967 2.53773 7.46225C1.88004 6.80455 1.51785 5.93012 1.51785 5C1.51785 4.1627 1.81152 3.37063 2.3499 2.74104C2.36377 2.90738 2.39801 3.08572 2.38924 3.2132C2.35721 3.67795 2.31135 3.96881 2.58338 4.3609C2.68936 4.51361 2.71539 4.73254 2.76697 4.9093C2.81742 5.08223 3.01897 5.17293 3.15797 5.27947C3.43842 5.49449 3.70672 5.74441 4.0041 5.93365C4.20037 6.05855 4.32297 6.12068 4.26549 6.3602C4.21926 6.55281 4.20635 6.67146 4.1067 6.84307C4.07629 6.89543 4.22148 7.23209 4.2698 7.28041C4.41625 7.42684 4.56156 7.56117 4.72119 7.69301C4.96867 7.89748 4.69715 8.16316 4.57912 8.45701ZM7.46225 7.46225C6.9616 7.96289 6.33531 8.29205 5.65451 8.42086C5.751 8.18227 5.92279 7.97027 6.08215 7.84738C6.22076 7.74043 6.39437 7.53471 6.46678 7.37176C6.53912 7.20902 6.63496 7.06795 6.73195 6.9183C6.86994 6.70543 6.39174 6.38439 6.23678 6.31711C5.88807 6.16572 5.62557 5.96145 5.31566 5.74338C5.09486 5.58803 4.64658 5.82451 4.3973 5.7157C4.05588 5.56662 3.77459 5.30758 3.47781 5.08408C3.17156 4.85344 3.18637 4.58455 3.18637 4.2443C3.42625 4.25314 3.7675 4.17791 3.92676 4.37082C3.97701 4.4317 4.1498 4.70367 4.26547 4.60703C4.35996 4.52807 4.19545 4.21154 4.16367 4.13713C4.06592 3.90832 4.38641 3.81908 4.55045 3.66393C4.76451 3.4615 5.22369 3.14404 5.1874 2.99895C5.15111 2.85385 4.72795 2.44275 4.47941 2.50689C4.44217 2.5165 4.11424 2.86035 4.05088 2.9143C4.05256 2.80207 4.05424 2.68986 4.05596 2.57764C4.05703 2.50678 3.92377 2.43404 3.92996 2.38834C3.94559 2.27283 4.26711 2.0632 4.34709 1.97121C4.29105 1.93619 4.09984 1.77195 4.04197 1.79605C3.90186 1.85445 3.74361 1.89469 3.6035 1.95307C3.6035 1.90447 3.5976 1.85883 3.59057 1.81375C3.87274 1.68893 4.17038 1.60253 4.47553 1.55687L4.75061 1.66742L4.94482 1.89791L5.13865 2.09777L5.30809 2.15236L5.57721 1.89855L5.50781 1.71736V1.55449C6.04004 1.6318 6.54266 1.83035 6.98285 2.13652C6.9041 2.14357 6.81756 2.15516 6.71992 2.16758C6.67959 2.14375 6.62785 2.13293 6.58389 2.11635C6.71145 2.39061 6.84449 2.66107 6.97967 2.9317C7.12406 3.22078 7.44438 3.53086 7.50063 3.83602C7.56691 4.1957 7.52092 4.52242 7.55719 4.94561C7.59211 5.35313 8.01664 5.81615 8.01664 5.81615C8.01664 5.81615 8.21268 5.88293 8.3757 5.85967C8.22373 6.4609 7.91217 7.01228 7.46225 7.46225Z" fill="black"/>
</g>
<defs>
<clipPath id="clip0_1_5412">
<rect width="10" height="10" fill="white"/>
</clipPath>
</defs>
</svg>
