<svg width="176" height="40" viewBox="0 0 176 40" fill="none" xmlns="http://www.w3.org/2000/svg">
    <g clip-path="url(#clip0_1_2259)">
        <path d="M61.4568 32.7561C60.6767 32.0387 60.0599 31.1774 59.6443 30.2253C59.2288 29.2732 59.0233 28.2505 59.0406 27.2203V19.5345H64.0825V14.5858H59.0406V4.42993H53.8142V27.2203C53.7898 29.4801 54.4183 31.7032 55.6314 33.6485C56.812 35.5613 58.4896 37.1555 60.5043 38.2792C62.559 39.4323 64.9083 40.0282 67.2958 40.0021V35.0384C66.2098 35.0557 65.1316 34.8621 64.1274 34.4696C63.1233 34.0771 62.2145 33.494 61.4568 32.7561Z" fill="#F7941D"/>
        <path d="M120.371 32.7561C119.591 32.0384 118.976 31.1769 118.561 30.2248C118.147 29.2727 117.943 28.2501 117.961 27.2203V19.5345H123.005V14.5858H117.961V4.42993H112.737V27.2203C112.713 29.4798 113.341 31.7025 114.552 33.6485C115.733 35.5608 117.411 37.1549 119.425 38.2792C121.48 39.4323 123.83 40.0283 126.219 40.0021V35.0384C125.131 35.0573 124.051 34.8646 123.045 34.472C122.039 34.0795 121.129 33.4955 120.371 32.7561Z" fill="black"/>
        <path d="M85.601 26.7122H70.4823C70.6129 28.3532 71.1766 29.6605 72.1734 30.634C73.1702 31.6076 74.4462 32.0865 76.0015 32.0709C77.2145 32.0709 78.218 31.7976 79.0122 31.251C79.8063 30.7045 80.6943 29.6911 81.6761 28.2109L85.7902 30.3885C85.2181 31.3323 84.5433 32.2167 83.777 33.0273C83.1107 33.7262 82.3453 34.334 81.5027 34.8334C80.6912 35.3065 79.8069 35.6565 78.8816 35.871C77.8812 36.0954 76.8561 36.2051 75.8281 36.1977C72.6756 36.1977 70.149 35.2398 68.2485 33.3241C66.3479 31.4083 65.3947 28.8464 65.3887 25.6383C65.3887 22.4758 66.3127 19.9139 68.1607 17.9526C70.0252 16.0226 72.4947 15.0576 75.5691 15.0576C78.6722 15.0576 81.1266 15.9948 82.9326 17.8693C84.7386 19.7438 85.6333 22.3242 85.6168 25.6106L85.601 26.7122ZM80.5975 22.9334C79.9174 20.4711 78.2788 19.2399 75.6817 19.2399C75.1143 19.2361 74.5503 19.3227 74.0131 19.4961C73.4994 19.665 73.0196 19.9155 72.5945 20.2369C72.1645 20.5626 71.7953 20.9545 71.5024 21.3962C71.1875 21.8717 70.9534 22.3911 70.8088 22.9355L80.5975 22.9334Z" fill="#F7941D"/>
        <path d="M153.831 0.952148V35.6319H148.958V0.952148H153.831Z" fill="black"/>
        <path d="M161.924 0.952148V22.1007L168.79 15.634H175.32L166.159 24.0307L175.991 35.6319H169.677L162.696 27.1925L161.917 27.9334V35.6319H157.051V0.952148H161.924Z" fill="black"/>
        <path d="M103.69 15.6341V17.959C101.738 16.0447 99.5361 15.0868 97.0831 15.0854C95.7404 15.0586 94.408 15.3125 93.1805 15.8291C91.953 16.3457 90.8605 17.1122 89.9808 18.0743C88.0893 20.0669 87.1436 22.5655 87.1436 25.57C87.1436 28.6201 88.0893 31.1657 89.9808 33.2067C91.1915 34.5123 92.7842 35.4471 94.5565 35.8924L95.133 30.807C94.4239 30.5467 93.7672 30.1726 93.1919 29.7011C92.5833 29.2126 92.0967 28.6019 91.7673 27.9134C91.4378 27.2248 91.2737 26.4755 91.2869 25.7195C91.2869 24.0357 91.9144 22.6665 93.1694 21.6119C94.4545 20.5572 96.0863 20.0306 98.0649 20.032C100.043 20.0335 101.675 20.5601 102.96 21.6119C104.202 22.6665 104.823 24.0493 104.823 25.7601C104.838 26.5187 104.672 27.2708 104.338 27.9605C104.005 28.6502 103.511 29.2597 102.895 29.7438C101.811 30.6177 100.456 31.1159 98.8305 31.2383L94.6556 35.9202C95.4928 36.1143 96.3519 36.2103 97.2137 36.2063C99.5241 36.2063 101.683 35.3167 103.69 33.5376V35.632H108.583V15.6341H103.69Z" fill="#F7941D"/>
        <path d="M140.797 15.6341V17.959C138.846 16.0447 136.643 15.0868 134.191 15.0854C132.848 15.0586 131.515 15.3125 130.288 15.8291C129.06 16.3457 127.968 17.1122 127.088 18.0743C125.197 20.0669 124.251 22.5655 124.251 25.57C124.251 28.6201 125.197 31.1657 127.088 33.2067C128.993 35.1993 131.404 36.1956 134.321 36.1956C135.657 36.1947 136.973 35.8909 138.16 35.3096L134.544 31.2724C132.629 31.234 131.057 30.723 129.831 29.7396C129.215 29.2554 128.721 28.6459 128.388 27.9562C128.054 27.2665 127.888 26.5144 127.903 25.7558C127.903 24.0478 128.525 22.6651 129.768 21.6076C131.051 20.553 132.683 20.0264 134.661 20.0278C136.64 20.0292 138.272 20.5558 139.557 21.6076C140.813 22.6623 141.441 24.0315 141.441 25.7152C141.455 26.4721 141.291 27.2223 140.961 27.9116C140.631 28.601 140.144 29.2122 139.534 29.7011C138.98 30.153 138.351 30.5138 137.672 30.7686L138.185 35.2946C139.139 34.8232 140.018 34.2275 140.797 33.5248V35.6192H145.691V15.6341H140.797Z" fill="black"/>
        <path d="M19.9849 38.2023C31.0223 38.2023 39.9698 29.7193 39.9698 19.2549C39.9698 8.79045 31.0223 0.307373 19.9849 0.307373C8.94755 0.307373 0 8.79045 0 19.2549C0 29.7193 8.94755 38.2023 19.9849 38.2023Z" fill="#F7941D"/>
        <path d="M23.9462 27.9611C23.1763 27.2527 22.5675 26.4023 22.1574 25.4624C21.7473 24.5224 21.5445 23.5128 21.5616 22.4957V14.9167H26.5381V10.0256H21.5616V-0.00854492H16.4049V22.4957C16.3821 24.7291 17.0052 26.9258 18.2064 28.8471C19.3731 30.7346 21.0287 32.3086 23.0162 33.4202C25.0449 34.5598 27.3642 35.1505 29.7222 35.1281V30.222C28.6475 30.2398 27.5804 30.0483 26.5869 29.6594C25.5934 29.2706 24.6947 28.6925 23.9462 27.9611Z" fill="white"/>
    </g>
    <defs>
        <clipPath id="clip0_1_2259">
            <rect width="176" height="40" fill="white"/>
        </clipPath>
    </defs>
</svg>
