<svg width="211" height="101" viewBox="0 0 211 101" fill="none" 
xmlns="http://www.w3.org/2000/svg">
<g clip-path="url(#clip0_0_1)">
<path d="M73.678 40.1264C72.7427 39.2475 72.0032 38.1924 71.505 
37.0261C71.0068 35.8598 70.7605 34.607 70.7813 
33.3449V23.9299H76.8258V17.8677H70.7813V5.42676H64.5155V33.3449C64.4863 
36.1132 65.2397 38.8365 66.6941 41.2196C68.1094 43.5627 70.1206 45.5156 
72.536 46.8921C74.9994 48.3046 77.8158 49.0347 80.6781 
49.0027V42.9221C79.3762 42.9433 78.0835 42.7062 76.8797 42.2254C75.6758 
41.7446 74.5863 41.0303 73.678 40.1264Z" fill="#F7941D"/>
<path d="M144.309 40.1264C143.375 39.2472 142.636 38.1918 142.14 
37.0255C141.643 35.8591 141.398 34.6065 141.42 
33.3449V23.9299H147.467V17.8677H141.42V5.42676H135.157V33.3449C135.129 
36.1128 135.881 38.8356 137.333 41.2196C138.749 43.5621 140.76 45.5148 
143.175 46.8921C145.639 48.3047 148.457 49.0347 151.32 
49.0027V42.9221C150.016 42.9453 148.721 42.7092 147.515 42.2283C146.309 
41.7474 145.218 41.0321 144.309 40.1264Z" fill="black"/>
<path d="M102.623 32.7224H84.4982C84.6547 34.7327 85.3305 36.3341 86.5256 
37.5267C87.7206 38.7193 89.2504 39.306 91.1149 39.2868C92.5691 39.2868 
93.7723 38.952 94.7243 38.2825C95.6764 37.613 96.7409 36.3716 97.918 
34.5583L102.85 37.2259C102.164 38.382 101.355 39.4654 100.437 
40.4584C99.6379 41.3145 98.7202 42.0591 97.7101 42.6709C96.7373 43.2504 
95.6771 43.6792 94.5678 43.942C93.3685 44.2169 92.1394 44.3512 90.9071 
44.3421C87.1276 44.3421 84.0986 43.1687 81.8201 40.8219C79.5416 38.4752 
78.3988 35.3368 78.3916 31.4069C78.3916 27.5328 79.4993 24.3945 81.7148 
21.9919C83.9501 19.6277 86.9107 18.4456 90.5966 18.4456C94.3167 18.4456 
97.2593 19.5937 99.4244 21.8899C101.589 24.1861 102.662 27.3471 102.642 
31.3729L102.623 32.7224ZM96.6249 28.0933C95.8096 25.0771 93.8452 23.5689 
90.7316 23.5689C90.0513 23.5642 89.3751 23.6703 88.7312 23.8827C88.1152 
24.0896 87.5401 24.3965 87.0304 24.7902C86.5148 25.1891 86.0722 25.6692 
85.7211 26.2103C85.3436 26.7928 85.063 27.4291 84.8896 28.096L96.6249 
28.0933Z" fill="#F7941D"/>
<path d="M184.422 1.1665V43.6492H178.58V1.1665H184.422Z" fill="black"/>
<path d="M194.124 1.1665V27.0735L202.355 19.1518H210.184L199.202 
29.4377L210.989 43.6492H203.419L195.05 33.311L194.116 
34.2185V43.6492H188.282V1.1665H194.124Z" fill="black"/>
<path d="M124.309 19.1518V21.9998C121.97 19.6548 119.33 18.4814 116.389 
18.4797C114.779 18.4468 113.182 18.7578 111.71 19.3906C110.238 20.0235 
108.929 20.9625 107.874 22.1411C105.606 24.582 104.473 27.6427 104.473 
31.3233C104.473 35.0597 105.606 38.178 107.874 40.6782C109.326 42.2775 
111.235 43.4227 113.36 43.9682L114.051 37.7386C113.201 37.4197 112.414 
36.9615 111.724 36.3839C110.994 35.7854 110.411 35.0374 110.016 
34.1939C109.621 33.3504 109.424 32.4325 109.44 31.5064C109.44 29.4438 
110.192 27.7665 111.697 26.4746C113.237 25.1826 115.194 24.5375 117.566 
24.5393C119.938 24.541 121.894 25.1861 123.435 26.4746C124.923 27.7665 
125.667 29.4604 125.667 31.5561C125.685 32.4854 125.487 33.4067 125.087 
34.2516C124.687 35.0965 124.095 35.8431 123.357 36.4362C122.057 37.5067 
120.433 38.117 118.484 38.2669L113.479 44.0022C114.482 44.24 115.512 
44.3577 116.545 44.3527C119.315 44.3527 121.903 43.263 124.309 
41.0836V43.6492H130.176V19.1518H124.309Z" fill="#F7941D"/>
<path d="M168.797 19.1518V21.9998C166.457 19.6548 163.817 18.4814 160.876 
18.4797C159.266 18.4468 157.669 18.7578 156.197 19.3906C154.726 20.0235 
153.416 20.9625 152.361 22.1411C150.094 24.582 148.96 27.6427 148.96 
31.3233C148.96 35.0597 150.094 38.178 152.361 40.6782C154.645 43.1191 
157.536 44.3396 161.033 44.3396C162.634 44.3385 164.213 43.9663 165.636 
43.2543L161.3 38.3087C159.003 38.2617 157.12 37.6357 155.65 36.431C154.911 
35.8379 154.319 35.0912 153.919 34.2464C153.519 33.4015 153.321 32.4802 
153.339 31.5508C153.339 29.4586 154.084 27.7648 155.574 26.4693C157.113 
25.1774 159.068 24.5323 161.44 24.534C163.812 24.5358 165.769 25.1809 
167.309 26.4693C168.816 27.7613 169.569 29.4386 169.569 31.5012C169.585 
32.4283 169.388 33.3473 168.993 34.1918C168.597 35.0362 168.013 35.785 
167.282 36.3839C166.619 36.9374 165.864 37.3794 165.05 37.6915L165.665 
43.2359C166.808 42.6584 167.863 41.9286 168.797 
41.0679V43.6335H174.663V19.1518H168.797Z" fill="black"/>
<path d="M23.9592 46.798C37.1915 46.798 47.9183 36.4063 47.9183 
23.5874C47.9183 10.7685 37.1915 0.376709 23.9592 0.376709C10.7269 0.376709 
0 10.7685 0 23.5874C0 36.4063 10.7269 46.798 23.9592 46.798Z" 
fill="#F7941D"/>
<path d="M28.7078 34.2524C27.7847 33.3846 27.0549 32.3428 26.5632 
31.1914C26.0715 30.0399 25.8284 28.8032 25.8489 
27.5572V18.273H31.8151V12.2813H25.8489V-0.010498H19.6667V27.5572C19.6394 
30.2932 20.3864 32.9841 21.8264 35.3377C23.2253 37.6499 25.21 39.5781 
27.5928 40.9397C30.0249 42.3358 32.8055 43.0594 35.6323 
43.0319V37.022C34.3439 37.0437 33.0647 36.8092 31.8736 36.3328C30.6825 
35.8564 29.6051 35.1483 28.7078 34.2524Z" fill="white"/>
</g>
<path d="M28.0652 97V92.14H31.0252L33.9852 97H36.8252L33.4852 
91.92C35.4252 91.42 36.4252 90.08 36.4252 87.94C36.4252 85.16 34.7652 
83.72 31.5452 83.72H25.6652V97H28.0652ZM28.0652 90V85.86H31.4652C33.1852 
85.86 34.0052 86.54 34.0052 87.94C34.0052 89.32 33.1852 90 31.4652 
90H28.0652ZM40.1465 83.34C39.3465 83.34 38.8065 83.9 38.8065 84.7C38.8065 
85.5 39.3465 86.04 40.1465 86.04C40.9665 86.04 41.5065 85.5 41.5065 
84.7C41.5065 83.9 40.9665 83.34 40.1465 83.34ZM39.0865 
87.62V97H41.2065V87.62H39.0865ZM53.4354 87.62H51.6754L51.6154 
88.96H51.5754C50.8954 88 49.7154 87.42 48.1954 87.42C45.5154 87.42 43.5554 
89.42 43.5554 92.26C43.5554 95.1 45.5154 97.08 48.1954 97.08C49.5354 97.08 
50.5754 96.64 51.2754 95.9H51.3154V96.12C51.3154 98.02 50.1554 99.1 
48.0554 99.1C46.5754 99.1 45.2954 98.56 44.5554 
97.66H44.4554V99.86C45.3154 100.58 46.6954 101 48.3154 101C51.5154 101 
53.4354 99.2 53.4354 96.24V87.62ZM48.5354 95.18C46.8554 95.18 45.6954 
94.02 45.6954 92.26C45.6954 90.48 46.8554 89.32 48.5354 89.32C50.2154 
89.32 51.3754 90.48 51.3754 92.26C51.3754 94.02 50.2154 95.18 48.5354 
95.18ZM61.3723 87.42C60.1123 87.42 59.1123 87.86 58.4723 
88.64H58.4323V83H56.3123V97H58.4323V92.08C58.4323 90.34 59.3323 89.32 
60.8323 89.32C62.1923 89.32 63.0123 90.2 63.0123 
91.74V97H65.1323V91.5C65.1323 88.94 63.7123 87.42 61.3723 87.42ZM73.486 
94.76H73.386C73.006 95.18 72.546 95.32 72.046 95.32C71.126 95.32 70.586 
94.72 70.586 93.7V89.46H73.446V87.62H70.586V85.04H68.826L68.526 
87.62H66.806V89.46H68.466V93.78C68.466 96 69.606 97.2 71.726 97.2C72.466 
97.2 73.046 97.08 73.486 96.86V94.76ZM89.2982 90.2C90.4982 89.68 91.0982 
88.7 91.0982 87.32C91.0982 84.94 89.4982 83.72 86.4182 
83.72H80.8582V97H86.9182C89.9782 97 91.5782 95.76 91.5782 93.34C91.5782 
91.74 90.7982 90.7 89.2982 90.24V90.2ZM83.2582 89.26V85.86H86.3982C87.9382 
85.86 88.6982 86.4 88.6982 87.54C88.6982 88.7 87.8982 89.26 86.2382 
89.26H83.2582ZM83.2582 94.86V91.34H86.7182C88.3582 91.34 89.1582 91.94 
89.1582 93.12C89.1582 94.3 88.3782 94.86 86.8582 94.86H83.2582ZM102.91 
92.96V91.92C102.91 89.18 101.07 87.42 98.1698 87.42C95.3098 87.42 93.2898 
89.44 93.2898 92.32C93.2898 95.24 95.4898 97.2 98.7698 97.2C100.25 97.2 
101.53 96.84 102.33 96.22V94.12H102.23C101.39 94.92 100.23 95.34 98.8498 
95.34C96.9898 95.34 95.7098 94.46 95.4498 92.96H102.91ZM98.2298 
89.28C99.6898 89.28 100.77 90.1 100.95 91.38H95.4498C95.7098 90.12 96.8898 
89.28 98.2298 89.28ZM108.507 87.42C106.247 87.42 104.747 88.62 104.747 
90.46C104.747 92.24 105.647 93 108.087 93.2C109.607 93.32 110.027 93.6 
110.027 94.22C110.027 94.9 109.347 95.34 108.247 95.34C106.807 95.34 
105.667 94.9 104.887 94.06H104.787V96.28C105.567 96.88 106.787 97.2 
108.347 97.2C110.687 97.2 112.107 96.06 112.107 94.22C112.107 92.32 
111.127 91.4 108.627 91.26C107.247 91.18 106.827 90.94 106.827 
90.4C106.827 89.74 107.547 89.28 108.567 89.28C109.787 89.28 110.767 89.62 
111.407 90.28H111.507V88.1C110.827 87.66 109.727 87.42 108.507 
87.42ZM115.358 83.34C114.558 83.34 114.018 83.9 114.018 84.7C114.018 85.5 
114.558 86.04 115.358 86.04C116.178 86.04 116.718 85.5 116.718 
84.7C116.718 83.9 116.178 83.34 115.358 83.34ZM114.298 
87.62V97H116.418V87.62H114.298ZM128.647 97V83H126.527V88.6H126.487C125.787 
87.86 124.747 87.42 123.407 87.42C120.727 87.42 118.767 89.48 118.767 
92.32C118.767 95.16 120.727 97.2 123.407 97.2C124.927 97.2 126.107 96.62 
126.787 95.66H126.827L126.887 97H128.647ZM123.747 95.3C122.067 95.3 
120.907 94.06 120.907 92.32C120.907 90.54 122.067 89.32 123.747 
89.32C125.427 89.32 126.587 90.54 126.587 92.32C126.587 94.06 125.427 95.3 
123.747 95.3ZM140.584 92.96V91.92C140.584 89.18 138.744 87.42 135.844 
87.42C132.984 87.42 130.964 89.44 130.964 92.32C130.964 95.24 133.164 97.2 
136.444 97.2C137.924 97.2 139.204 96.84 140.004 
96.22V94.12H139.904C139.064 94.92 137.904 95.34 136.524 95.34C134.664 
95.34 133.384 94.46 133.124 92.96H140.584ZM135.904 89.28C137.364 89.28 
138.444 90.1 138.624 91.38H133.124C133.384 90.12 134.564 89.28 135.904 
89.28ZM152.116 97H154.516V91.34L160.036 83.72H157.236L153.356 89.3L149.476 
83.72H146.556L152.116 91.38V97ZM164.019 87.42C161.099 87.42 159.039 89.44 
159.039 92.32C159.039 95.18 161.099 97.2 164.019 97.2C166.939 97.2 169.019 
95.18 169.019 92.32C169.019 89.44 166.939 87.42 164.019 87.42ZM164.019 
89.32C165.719 89.32 166.879 90.54 166.879 92.32C166.879 94.06 165.719 95.3 
164.019 95.3C162.339 95.3 161.179 94.06 161.179 92.32C161.179 90.54 
162.339 89.32 164.019 89.32ZM179.947 97V87.62H177.827V92.54C177.827 94.26 
176.947 95.3 175.447 95.3C174.067 95.3 173.267 94.4 173.267 
92.88V87.62H171.147V93.12C171.147 95.68 172.547 97.2 174.907 97.2C176.387 
97.2 177.447 96.62 178.047 95.58H178.087L178.167 97H179.947ZM182.96 
83.72L183.24 93.02H185.2L185.48 83.72H182.96ZM184.22 94.44C183.44 94.44 
182.84 95.04 182.84 95.82C182.84 96.6 183.44 97.2 184.22 97.2C185.02 97.2 
185.6 96.6 185.6 95.82C185.6 95.04 185.02 94.44 184.22 94.44Z" 
fill="#2F2E41"/>
<defs>
<clipPath id="clip0_0_1">
<rect width="211" height="49" fill="white"/>
</clipPath>
</defs>
</svg>

